<svg xmlns="http://www.w3.org/2000/svg" width="10.79" height="14.534" viewBox="0 0 10.79 14.534">
  <g id="download_4_" data-name="download (4)" transform="translate(-213.222 -157.758)">
    <path id="Path_45" data-name="Path 45" d="M219.917,156.917a5.387,5.387,0,0,0-5.223,8.926v4.605a.834.834,0,0,0,.383.706.853.853,0,0,0,.456.137.764.764,0,0,0,.329-.074l2.756-1.182,2.761,1.182a.839.839,0,0,0,1.162-.77v-4.605a5.351,5.351,0,0,0,1.471-3.693,5.445,5.445,0,0,0-.216-1.52.491.491,0,0,0-.947.265,4.34,4.34,0,0,1,.181,1.256,4.414,4.414,0,1,1-4.865-4.39,4.346,4.346,0,0,1,1.535.113.49.49,0,0,0,.216-.956Zm-.809,10.608h.137l.353-.069.137-.024a4.639,4.639,0,0,0,.451-.108h.029c.137-.039.275-.088.412-.142l.128-.054c.108-.044.211-.093.314-.147l.118-.059c.132-.074.265-.147.392-.231v3.556l-2.57-1.1h0a.936.936,0,0,0-.745,0l-2.59,1.084v-3.556c.128.083.26.157.392.231l.1.059c.108.054.211.1.319.147l.128.054c.137.054.275.1.417.147h.025a3.435,3.435,0,0,0,.456.113l.128.029.348.054h.628c.176,0,.324.024.5.015Z" transform="translate(0 1)" fill="#ffad77"/>
    <path id="Path_46" data-name="Path 46" d="M306.186,274.48h-3.711a.464.464,0,0,0,0,.928h3.711a.464.464,0,0,0,0-.928Z" transform="translate(-85.713 -112.971)" fill="#ffad77"/>
    <path id="Path_47" data-name="Path 47" d="M306.186,336.01h-3.711a.464.464,0,1,0,0,.928h3.711a.464.464,0,1,0,0-.928Z" transform="translate(-85.713 -172.412)" fill="#ffad77"/>
  </g>
</svg>
