<svg xmlns="http://www.w3.org/2000/svg" width="11.554" height="11.554" viewBox="0 0 11.554 11.554">
  <path id="download_5_" data-name="download (5)" d="M214.05,203.689a.5.5,0,0,0-.34.15l-.872.872a5.771,5.771,0,0,0-8.133,8.132l-.872.873h0a.5.5,0,1,0,.7.7l.874-.873a5.771,5.771,0,0,0,8.134-8.132l.872-.872h0a.5.5,0,0,0-.362-.851Zm-4.929.652a4.771,4.771,0,0,1,3.018,1.069l-6.735,6.734a4.789,4.789,0,0,1,3.717-7.8Zm3.72,1.769a4.788,4.788,0,0,1-6.736,6.734Z" transform="translate(-203.345 -203.35)" fill="#df5d77"/>
</svg>
