<svg xmlns="http://www.w3.org/2000/svg" width="16.289" height="16.289" viewBox="0 0 16.289 16.289">
  <g id="download_3_" data-name="download (3)" transform="translate(-152.561 -152.561)">
    <path id="Path_42" data-name="Path 42" d="M324.395,291.6l-3.961-2.64a.508.508,0,0,0-.789.429v5.281a.51.51,0,0,0,.789.429l3.961-2.64a.513.513,0,0,0,0-.857Z" transform="translate(-160.98 -131.328)" fill="#15b172"/>
    <path id="Path_43" data-name="Path 43" d="M159.194,151.05a8.144,8.144,0,1,0,8.144,8.144A8.152,8.152,0,0,0,159.194,151.05Zm0,15.02a6.876,6.876,0,1,1,6.876-6.876A6.886,6.886,0,0,1,159.194,166.07Z" transform="translate(1.511 1.511)" fill="#15b172" opacity="0.91"/>
  </g>
</svg>
