<svg xmlns="http://www.w3.org/2000/svg" xmlns:xlink="http://www.w3.org/1999/xlink" width="175.348" height="175" viewBox="0 0 175.348 175">
  <defs>
    <clipPath id="clip-path">
      <rect id="Rectangle_6" data-name="Rectangle 6" width="82.456" height="71.211" fill="none"/>
    </clipPath>
    <clipPath id="clip-path-2">
      <rect id="Rectangle_7" data-name="Rectangle 7" width="86.562" height="75.411" fill="none"/>
    </clipPath>
    <clipPath id="clip-path-3">
      <rect id="Rectangle_11" data-name="Rectangle 11" width="14.386" height="5.838" fill="none"/>
    </clipPath>
  </defs>
  <g id="Group_19559" data-name="Group 19559" transform="translate(-1319.652 -5330)">
    <g id="Group_19558" data-name="Group 19558" transform="translate(352)">
      <circle id="Ellipse_4" data-name="Ellipse 4" cx="87.5" cy="87.5" r="87.5" transform="translate(968 5330)" fill="#efffde"/>
      <g id="Group_19359" data-name="Group 19359" transform="translate(959.547 5392.656)">
        <g id="Group_19360" data-name="Group 19360" transform="translate(8.453)">
          <path id="Path_9035" data-name="Path 9035" d="M28.023,306.315c-4.038-2.6-5.287-.218-6.958-2.218s-.466-4.011-3.853-5.793a11.524,11.524,0,0,0-6.153-1.355,15.347,15.347,0,0,0,1.189,6.581c1.514,3.515,3.391,2.05,5.256,3.87s-.611,2.882,1.674,7.109S31.4,318.793,31.4,318.793s.657-9.874-3.381-12.478" transform="translate(-11.041 -220.067)" fill="#c1eab2"/>
          <line id="Line_3" data-name="Line 3" x2="20.345" y2="21.844" transform="translate(0.018 76.882)" fill="none" stroke="#fff" stroke-width="1"/>
          <path id="Path_9036" data-name="Path 9036" d="M48.068,346.613l7.088-1.3,1.594-7.24" transform="translate(-38.484 -250.567)" fill="none" stroke="#fff" stroke-width="1"/>
          <path id="Path_9037" data-name="Path 9037" d="M38.672,334.982l5.179-1.593,1.537-5.085" transform="translate(-31.52 -243.328)" fill="none" stroke="#fff" stroke-width="1"/>
          <path id="Path_9038" data-name="Path 9038" d="M34.769,326.289l2.759-.691.774-2.812" transform="translate(-28.627 -239.238)" fill="none" stroke="#fff" stroke-width="1"/>
          <path id="Path_9039" data-name="Path 9039" d="M19.027,311.571,23.4,310.34l1.078-4.558" transform="translate(-16.96 -226.636)" fill="none" stroke="#fff" stroke-width="1"/>
          <path id="Path_9040" data-name="Path 9040" d="M13.437,303.846l3.108-1.042.835-3.243" transform="translate(-12.817 -222.026)" fill="none" stroke="#fff" stroke-width="1"/>
          <path id="Path_9041" data-name="Path 9041" d="M578.883,313.128c4.038-2.6,5.287-.218,6.958-2.218s.466-4.011,3.853-5.793a11.524,11.524,0,0,1,6.153-1.355,15.346,15.346,0,0,1-1.189,6.581c-1.514,3.515-3.391,2.05-5.256,3.87s.61,2.882-1.674,7.109-12.225,4.284-12.225,4.284-.657-9.874,3.381-12.478" transform="translate(-429.372 -225.117)" fill="#d1fac2"/>
          <line id="Line_4" data-name="Line 4" x1="20.345" y2="21.844" transform="translate(146.13 78.645)" fill="none" stroke="#fff" stroke-width="1"/>
          <path id="Path_9042" data-name="Path 9042" d="M592.4,353.425l-7.088-1.3-1.594-7.24" transform="translate(-435.489 -255.616)" fill="none" stroke="#fff" stroke-width="1"/>
          <path id="Path_9043" data-name="Path 9043" d="M607.424,341.794l-5.18-1.593-1.537-5.085" transform="translate(-448.083 -248.378)" fill="none" stroke="#fff" stroke-width="1"/>
          <path id="Path_9044" data-name="Path 9044" d="M620.442,333.1l-2.759-.691-.774-2.812" transform="translate(-460.091 -244.287)" fill="none" stroke="#fff" stroke-width="1"/>
          <path id="Path_9045" data-name="Path 9045" d="M630.7,318.383l-4.372-1.231-1.078-4.558" transform="translate(-466.27 -231.685)" fill="none" stroke="#fff" stroke-width="1"/>
          <path id="Path_9046" data-name="Path 9046" d="M640.6,310.658l-3.108-1.042-.835-3.243" transform="translate(-474.728 -227.075)" fill="none" stroke="#fff" stroke-width="1"/>
          <path id="Path_9049" data-name="Path 9049" d="M172.953,130.8H141.041a2.108,2.108,0,0,1-2.108-2.108V111.271a2.108,2.108,0,0,1,2.108-2.107h31.913a2.108,2.108,0,0,1,2.108,2.107v17.422a2.108,2.108,0,0,1-2.108,2.108" transform="translate(-105.83 -80.909)" fill="#fff"/>
          <path id="Path_9050" data-name="Path 9050" d="M176.091,204.84h-32.9a1.22,1.22,0,0,1,0-2.44h32.9a1.22,1.22,0,1,1,0,2.44" transform="translate(-108.08 -150.012)" fill="#fff"/>
          <path id="Path_9051" data-name="Path 9051" d="M176.091,224.631h-32.9a1.22,1.22,0,0,1,0-2.44h32.9a1.22,1.22,0,1,1,0,2.44" transform="translate(-108.08 -164.681)" fill="#fff"/>
          <path id="Path_9052" data-name="Path 9052" d="M450.361,165.347H423.333a1.579,1.579,0,0,1-1.579-1.579V112.228a1.579,1.579,0,0,1,1.579-1.579h27.028a1.579,1.579,0,0,1,1.579,1.579v51.541a1.579,1.579,0,0,1-1.579,1.579" transform="translate(-315.448 -82.009)" fill="#fff"/>
          <path id="Path_9056" data-name="Path 9056" d="M179.654,136.352H149.2l6.939-4.6,3.086,1.661a.241.241,0,0,0,.254-.016l6.566-4.663,3.885,2.133a.241.241,0,0,0,.251-.011l7.976-5.373a.241.241,0,0,0-.269-.4l-7.855,5.291-3.888-2.135a.241.241,0,0,0-.255.015l-6.567,4.664-3.081-1.659a.242.242,0,0,0-.247.011l-7.065,4.688V119.979a.241.241,0,0,0-.482,0v16.855h31.2a.241.241,0,0,0,0-.482" transform="translate(-112.883 -88.746)" fill="#e0ffdd"/>
          <path id="Path_9057" data-name="Path 9057" d="M148.3,118.091a.581.581,0,1,1-.581-.581.581.581,0,0,1,.581.581" transform="translate(-111.909 -87.095)" fill="#d1fac2"/>
          <path id="Path_9058" data-name="Path 9058" d="M268.272,183.192a.581.581,0,1,1-.581-.581.581.581,0,0,1,.581.581" transform="translate(-200.831 -135.345)" fill="#b5c0ff"/>
          <path id="Path_9059" data-name="Path 9059" d="M177.363,163.62a.595.595,0,1,1-.595-.595.595.595,0,0,1,.595.595" transform="translate(-133.432 -120.829)" fill="#d1fac2"/>
          <path id="Path_9060" data-name="Path 9060" d="M215.369,152.149a.594.594,0,1,1-.594-.595.595.595,0,0,1,.594.595" transform="translate(-161.601 -112.327)" fill="#b5c0ff"/>
          <path id="Path_9061" data-name="Path 9061" d="M189.434,170.014a.594.594,0,1,1-.595-.595.595.595,0,0,1,.595.595" transform="translate(-142.379 -125.568)" fill="#b5c0ff"/>
          <path id="Path_9062" data-name="Path 9062" d="M230.831,159.832a.594.594,0,1,1-.595-.595.595.595,0,0,1,.595.595" transform="translate(-173.061 -118.021)" fill="#b5c0ff"/>
          <path id="Path_9063" data-name="Path 9063" d="M261.6,139.445a.594.594,0,1,1-.595-.595.595.595,0,0,1,.595.595" transform="translate(-195.87 -102.911)" fill="#b5c0ff"/>
          <path id="Path_9064" data-name="Path 9064" d="M561.268,272.856c-.179-2.282-1.488-3.738-.076-5.526a5.369,5.369,0,0,0,.178-6.766l0-.013-.012,0-.005-.007,0,.009a5.369,5.369,0,0,0-3.993,5.465c.026,2.279-1.9,2.631-3.436,4.329s-1.2,3.285-.8,6.819-2.212,3.913-2.6,7.367c-.276,2.45.534,5.836.712,5.729.075.192,2.783-1.99,4.062-4.1,1.8-2.972-.03-4.863,2.441-7.421s3.709-3.607,3.531-5.889" transform="translate(-410.845 -193.11)" fill="#c1eab2"/>
          <path id="Path_9065" data-name="Path 9065" d="M574.113,294.3c.115-2.167-.936-3.7.613-5.2a5.09,5.09,0,0,0,1-6.337l.006-.012h-.011l0-.007,0,.008a5.091,5.091,0,0,0-4.43,4.643c-.258,2.145-2.112,2.238-3.766,3.644s-1.531,2.939-1.6,6.311-2.563,3.4-3.357,6.6c-.563,2.269-.22,5.552-.04,5.473.047.189,2.862-1.526,4.325-3.351,2.062-2.571.574-4.575,3.213-6.674s3.933-2.931,4.048-5.1" transform="translate(-419.584 -209.561)" fill="#c1eab2"/>
          <path id="Path_9066" data-name="Path 9066" d="M71.8,272.856c.179-2.282,1.488-3.738.076-5.526a5.369,5.369,0,0,1-.178-6.766l0-.013.012,0,.005-.007,0,.009a5.368,5.368,0,0,1,3.992,5.465c-.026,2.279,1.9,2.631,3.436,4.329s1.2,3.285.8,6.819,2.212,3.913,2.6,7.367c.276,2.45-.534,5.836-.712,5.729-.075.192-2.783-1.99-4.062-4.1-1.8-2.972.03-4.863-2.441-7.421s-3.709-3.607-3.531-5.889" transform="translate(-55.169 -193.11)" fill="#c1eab2"/>
          <path id="Path_9067" data-name="Path 9067" d="M52.782,294.3c-.115-2.167.936-3.7-.613-5.2a5.09,5.09,0,0,1-1-6.337l-.006-.012h.011l0-.007,0,.008a5.09,5.09,0,0,1,4.43,4.643c.258,2.145,2.112,2.238,3.766,3.644s1.531,2.939,1.6,6.311,2.563,3.4,3.357,6.6c.563,2.269.22,5.552.04,5.473-.047.189-2.863-1.526-4.325-3.351-2.062-2.571-.574-4.575-3.213-6.674s-3.933-2.931-4.048-5.1" transform="translate(-40.252 -209.561)" fill="#c1eab2"/>
          <path id="Path_9068" data-name="Path 9068" d="M41.354,354.885H90.32s-.516-3.821-6.507-5.68c-5.3-1.644-10.431,1.756-10.431,1.756a17.419,17.419,0,0,0-14.356-7.643c-14.149,0-17.673,11.567-17.673,11.567" transform="translate(-33.508 -254.456)" fill="#b5dea5"/>
          <line id="Line_5" data-name="Line 5" x2="7.092" y2="6.093" transform="translate(13.608 94.336)" fill="none" stroke="#fff" stroke-width="1"/>
          <line id="Line_6" data-name="Line 6" x2="2.306" y2="9.261" transform="translate(21.285 91.168)" fill="none" stroke="#fff" stroke-width="1"/>
          <line id="Line_7" data-name="Line 7" x1="2.479" y2="8.331" transform="translate(26.759 92.098)" fill="none" stroke="#fff" stroke-width="1"/>
          <line id="Line_8" data-name="Line 8" x1="3.924" y2="4.407" transform="translate(30.649 96.022)" fill="none" stroke="#fff" stroke-width="1"/>
          <line id="Line_9" data-name="Line 9" x2="2.634" y2="3.047" transform="translate(42.921 97.382)" fill="none" stroke="#fff" stroke-width="1"/>
          <line id="Line_10" data-name="Line 10" y2="4.63" transform="translate(47.827 95.799)" fill="none" stroke="#fff" stroke-width="1"/>
          <line id="Line_11" data-name="Line 11" x1="2.272" y2="2.685" transform="translate(50.358 97.744)" fill="none" stroke="#fff" stroke-width="1"/>
          <path id="Path_9069" data-name="Path 9069" d="M404.418,354.885h48.966s-.516-3.821-6.507-5.68c-5.3-1.644-10.431,1.756-10.431,1.756a17.419,17.419,0,0,0-14.356-7.643c-14.149,0-17.673,11.567-17.673,11.567" transform="translate(-302.599 -254.456)" fill="#b5dea5"/>
          <line id="Line_12" data-name="Line 12" x2="7.092" y2="6.093" transform="translate(107.581 94.336)" fill="none" stroke="#fff" stroke-width="1"/>
          <line id="Line_13" data-name="Line 13" x2="2.306" y2="9.261" transform="translate(115.258 91.168)" fill="none" stroke="#fff" stroke-width="1"/>
          <line id="Line_14" data-name="Line 14" x1="2.479" y2="8.331" transform="translate(120.731 92.098)" fill="none" stroke="#fff" stroke-width="1"/>
          <line id="Line_15" data-name="Line 15" x1="3.925" y2="4.407" transform="translate(124.621 96.022)" fill="none" stroke="#fff" stroke-width="1"/>
          <line id="Line_16" data-name="Line 16" x2="2.634" y2="3.047" transform="translate(136.894 97.382)" fill="none" stroke="#fff" stroke-width="1"/>
          <line id="Line_17" data-name="Line 17" y2="4.63" transform="translate(141.8 95.799)" fill="none" stroke="#fff" stroke-width="1"/>
          <line id="Line_18" data-name="Line 18" x1="2.272" y2="2.685" transform="translate(144.33 97.744)" fill="none" stroke="#fff" stroke-width="1"/>
          <path id="Path_9070" data-name="Path 9070" d="M186.42,264.653c-3.9-5.814-6.95-3.342-8.033-6.982s1.69-5.637-1.816-9.974a16.79,16.79,0,0,0-7.453-5.362,22.365,22.365,0,0,0-2.2,9.493c0,5.577,3.357,4.7,4.8,8.21s-2.479,3.5-1.859,10.479S183.749,283.3,183.749,283.3s6.574-12.835,2.671-18.649" transform="translate(-126.57 -179.611)" fill="#b5dea5"/>
          <line id="Line_19" data-name="Line 19" x2="14.631" y2="40.967" transform="translate(42.549 62.724)" fill="none" stroke="#fff" stroke-width="1"/>
          <path id="Path_9071" data-name="Path 9071" d="M182.191,344.338l10.237,2.344,6.309-8.77" transform="translate(-137.891 -250.449)" fill="none" stroke="#fff" stroke-width="1"/>
          <path id="Path_9072" data-name="Path 9072" d="M179.4,320.108l7.85.855,4.989-5.919" transform="translate(-135.825 -233.501)" fill="none" stroke="#fff" stroke-width="1"/>
          <path id="Path_9073" data-name="Path 9073" d="M184.434,300.967l4.091.666,2.658-3.317" transform="translate(-139.554 -221.102)" fill="none" stroke="#fff" stroke-width="1"/>
          <path id="Path_9074" data-name="Path 9074" d="M168.08,275.355l6.561.874,4.07-5.478" transform="translate(-127.433 -200.672)" fill="none" stroke="#fff" stroke-width="1"/>
          <path id="Path_9075" data-name="Path 9075" d="M167.539,259.306l4.76.4,2.987-3.858" transform="translate(-127.032 -189.625)" fill="none" stroke="#fff" stroke-width="1"/>
          <path id="Path_9077" data-name="Path 9077" d="M295.915,372.765H251.579v-2.7a1.923,1.923,0,0,1,1.923-1.923h40.491a1.923,1.923,0,0,1,1.923,1.923Z" transform="translate(-189.32 -272.858)" fill="#aee898"/>
          <path id="Path_9078" data-name="Path 9078" d="M287.41,390.427h-57.3v-3.513a.924.924,0,0,1,.924-.924h55.453a.924.924,0,0,1,.924.924Z" transform="translate(-173.407 -286.083)" fill="#b5dea5"/>
          <path id="Path_9101" data-name="Path 9101" d="M51.031,104.327v-2.461l-1.854-.374a5.142,5.142,0,0,0-.232-.588l1.181-1.515-1.608-1.863-1.769,1a5.19,5.19,0,0,0-.919-.4l-.408-2.052H42.961l-.414,2.051a5.2,5.2,0,0,0-.879.38L39.7,97.39l-1.608,1.863,1.318,1.69c-.054.12-.1.244-.148.368l-2.075.419v2.461l1.976.393a5.242,5.242,0,0,0,.231.628l-1.38,1.77,1.608,1.863,2.047-1.154a5.228,5.228,0,0,0,.583.27l.466,2.343h2.461l.438-2.173a5.184,5.184,0,0,0,.787-.3l2.033,1.146,1.608-1.863-1.229-1.576a5.2,5.2,0,0,0,.357-.846Zm-6.843,1.438a2.673,2.673,0,1,1,2.673-2.673,2.673,2.673,0,0,1-2.673,2.673" transform="translate(-30.422 -71.202)" fill="#c1eab2"/>
          <path id="Path_9102" data-name="Path 9102" d="M49.475,190.322v-1.259l-.948-.191a2.634,2.634,0,0,0-.119-.3l.6-.775-.823-.953-.9.51a2.649,2.649,0,0,0-.47-.207l-.209-1.05H45.347l-.212,1.049a2.659,2.659,0,0,0-.45.194l-1.006-.567-.823.953.674.864c-.028.062-.052.125-.076.189l-1.061.214v1.259l1.011.2a2.672,2.672,0,0,0,.119.321l-.706.905.823.953,1.047-.59a2.706,2.706,0,0,0,.3.138l.238,1.2h1.259l.224-1.112a2.659,2.659,0,0,0,.4-.151l1.04.586.823-.953-.629-.806a2.692,2.692,0,0,0,.182-.433Zm-3.5.736a1.367,1.367,0,1,1,1.367-1.367,1.367,1.367,0,0,1-1.367,1.367" transform="translate(-34.279 -137.929)" fill="#c1eab2"/>
          <path id="Path_9103" data-name="Path 9103" d="M597.82,110.585v-1.259l-.948-.191a2.643,2.643,0,0,0-.119-.3l.6-.775-.823-.953-.9.51a2.652,2.652,0,0,0-.47-.207l-.209-1.05h-1.259l-.212,1.049a2.663,2.663,0,0,0-.45.194l-1.006-.567-.823.953.674.865c-.028.062-.052.125-.076.189l-1.061.214v1.259l1.011.2a2.662,2.662,0,0,0,.119.321l-.706.905.823.953,1.047-.59a2.706,2.706,0,0,0,.3.138l.238,1.2h1.259l.224-1.112a2.653,2.653,0,0,0,.4-.151l1.04.586.823-.953-.629-.806a2.689,2.689,0,0,0,.183-.433Zm-3.5.736a1.367,1.367,0,1,1,1.367-1.367,1.367,1.367,0,0,1-1.367,1.367" transform="translate(-440.694 -78.831)" fill="#c1eab2"/>
          <path id="Path_9104" data-name="Path 9104" d="M610.663,162.038v-2.013l-1.516-.306a4.221,4.221,0,0,0-.19-.481l.966-1.239-1.315-1.523-1.447.815a4.268,4.268,0,0,0-.752-.331l-.334-1.678h-2.013l-.338,1.678a4.269,4.269,0,0,0-.719.311l-1.608-.906-1.315,1.523,1.078,1.382c-.044.1-.084.2-.121.3l-1.7.342v2.012l1.616.321a4.268,4.268,0,0,0,.189.513l-1.129,1.448,1.315,1.523,1.675-.944a4.268,4.268,0,0,0,.477.221l.381,1.916h2.013l.359-1.778a4.24,4.24,0,0,0,.644-.242l1.663.937,1.315-1.523-1.005-1.289a4.261,4.261,0,0,0,.292-.691Zm-5.6,1.177a2.186,2.186,0,1,1,2.186-2.186,2.186,2.186,0,0,1-2.186,2.186" transform="translate(-450.311 -115.09)" fill="#c1eab2"/>
          <path id="Path_9110" data-name="Path 9110" d="M462.288,128.048a2.01,2.01,0,0,1,1.48,2.21c-.169,1.817-2.323-2.323-1.48-2.21" transform="translate(-345.346 -94.903)" fill="#fff"/>
          <path id="Path_9168" data-name="Path 9168" d="M472.772,198.986a6.765,6.765,0,0,1-6.764,6.764v3.735a.6.6,0,0,1-.6.6H443.813a.6.6,0,0,1-.6-.6v-3.807a6.665,6.665,0,0,0,.986.072,6.764,6.764,0,1,0,0-13.529,7,7,0,0,0-.986.072v-4.405a.6.6,0,0,1,.6-.6h4.709a6.6,6.6,0,0,1-.06-.88,6.764,6.764,0,1,1,13.529,0,7.025,7.025,0,0,1-.058.88h3.475a.6.6,0,0,1,.6.6v4.333a6.715,6.715,0,0,1,3.22.815,6.593,6.593,0,0,1,1.087.732,6.753,6.753,0,0,1,2.458,5.217" transform="translate(-331.353 -133.147)" fill="#c1eab2"/>
          <path id="Path_9169" data-name="Path 9169" d="M471.5,241.278a6.756,6.756,0,0,1-5.494,2.819v3.735a.6.6,0,0,1-.6.6H443.812a.6.6,0,0,1-.6-.6V245.21c3.557-.453,13.864-2.137,20.435-7.01a15.281,15.281,0,0,0,5.579-6.817,6.585,6.585,0,0,1,1.087.733Z" transform="translate(-331.352 -171.494)" fill="#d1fac2"/>
        </g>
      </g>
    </g>
    <g id="Group_19362" data-name="Group 19362" transform="translate(1318.318 5356)">
      <g id="Group_46" data-name="Group 46" transform="translate(37.235 0)">
        <g id="Group_43" data-name="Group 43" transform="translate(0 0)">
          <g id="Group_48" data-name="Group 48">
            <path id="Path_55" data-name="Path 55" d="M1236.914,538.03a5.106,5.106,0,0,1-.724-.616,1.511,1.511,0,0,1-.571-1.289c.06-.254.157-.407.3-.466.223-.094.5.073.748.221l.107.063-.019.033-.107-.063c-.239-.143-.509-.3-.713-.219-.128.054-.217.2-.274.44a1.542,1.542,0,0,0,.561,1.254,5.055,5.055,0,0,0,.718.611Z" transform="translate(-1130.849 -471.928)" fill="#fff"/>
            <path id="Path_56" data-name="Path 56" d="M1266.21,540.3a3.157,3.157,0,0,1-1.712-.842,2.058,2.058,0,0,1-.446-.619l.035-.014a2.764,2.764,0,0,0,2.129,1.438Z" transform="translate(-1155.917 -474.741)" fill="#fff"/>
            <path id="Path_66" data-name="Path 66" d="M707.806,927.06l-2.412,4.489a1.44,1.44,0,0,0,.373,1.81l3.965,3.148-4.944-2.735a.908.908,0,0,0-1.13.2l-1.876,2.193,1.067-2.632a1.323,1.323,0,0,0-.277-1.419l-1.847-1.9,2.37,1.291a.943.943,0,0,0,1.175-.223Z" transform="translate(-659.588 -816.803)" fill="#fff2e2"/>
            <path id="Path_67" data-name="Path 67" d="M820.871,114.114S841.9,150.937,844.824,143.5c3.554-9.049-22.746-37.37-23.953-29.387" transform="translate(-765.444 -99.308)" fill="#33353b"/>
            <path id="Path_68" data-name="Path 68" d="M850.687,42.786c.229-2.094-.594-4.663-2-7.367-3.031-5.825-8.773-12.285-12.558-16.021a24.757,24.757,0,0,0-8.953-5.815l.04-.043c.262-.275,14.542-5.858,24.513-10.489a32.58,32.58,0,0,1,23.019-1.7c8.418,2.507,16.226,5.488,16.275,5.509C902.89,12,904.8,23.178,894.641,28.024c-19.778,9.437-44.86,17.164-44.86,17.164a4.349,4.349,0,0,0,.3-.453,4.935,4.935,0,0,0,.606-1.908c0-.014,0-.027,0-.041" transform="translate(-770.997 -0.004)" fill="#70bc56"/>
            <path id="Path_69" data-name="Path 69" d="M489.894,227.228s-15.817.264-16.845,1.761c-1.982,2.887,5.986,2.887,5.986,2.887Z" transform="translate(-458.711 -200.204)" fill="#f7ccb1"/>
            <path id="Path_70" data-name="Path 70" d="M575.475,131.5c-4.913,2.589-8.5,4.116-11.883,5.844-8.347,4.26-22.863,15.137-22.061,23.355s11.083,17.437,14.116,15.089-3.281-13.826-2.1-16.468,16.428-2.608,16.923-.554-10.385,10.592-6.815,14.418c0,0,2.005,2.152,7.973-2.739,3.232-2.649,9.766-4.986,14.9-10.6,2.02-2.21,5.028-5.319,5.929-7.129,1.543-3.1-14.293-22.631-16.985-21.213" transform="translate(-519.299 -115.8)" fill="#f7ccb1"/>
            <path id="Path_71" data-name="Path 71" d="M487.886,194.084s-18.059,5.466-23.195,12.051-7.648,11.946-4.713,13.853,14.228-8.951,14.228-8.951Z" transform="translate(-446.374 -171.001)" fill="#f7ccb1"/>
            <path id="Path_72" data-name="Path 72" d="M462.965,159.007c-6.713,2.077-41.6,16.722-42.019,19.184-.806,4.768,12.352.183,12.352.183Z" transform="translate(-413.052 -140.096)" fill="#f7ccb1"/>
            <path id="Path_73" data-name="Path 73" d="M538.535,376.042s-6.367-5.974-12.594-.753,1.819,13.495,9.752,15.784,10.146,3.489,11.5,2.694,16.238-23.53,6.21-31.247c-7.2-5.536-15.3.793-14.864,13.521" transform="translate(-503.637 -317.632)" fill="#70bc56"/>
            <path id="Path_74" data-name="Path 74" d="M724.128,342.824s-8.968,9.869-8.185,13.88,8.659-1.681,17.683-7.639-5.519-12.393-9.5-6.241" transform="translate(-672.954 -299.853)" fill="#f7ccb1"/>
            <path id="Path_75" data-name="Path 75" d="M537.98,295.718a.245.245,0,0,1-.235-.179,8.872,8.872,0,0,1,7.1-11.137.245.245,0,1,1,.126.473,8.387,8.387,0,0,0-6.757,10.534.245.245,0,0,1-.236.31" transform="translate(-515.749 -250.57)" fill="#e2a279"/>
            <path id="Path_76" data-name="Path 76" d="M479.612,263a.245.245,0,0,1-.208-.373c.135-.22,3.346-5.4,5.983-6.787a47.079,47.079,0,0,1,7.419-2.693.245.245,0,1,1,.129.472,47.644,47.644,0,0,0-7.321,2.655c-2.519,1.323-5.762,6.557-5.794,6.61a.245.245,0,0,1-.208.116" transform="translate(-464.557 -223.031)" fill="#e2a279"/>
            <path id="Path_77" data-name="Path 77" d="M488.23,471.768l-3.178-5.263a1.738,1.738,0,0,0-2.109-.725l-5.706,2.182,5.879-3.452a1.1,1.1,0,0,0,.482-1.3l-1.124-3.3,2.077,2.725a1.6,1.6,0,0,0,1.643.585l3.111-.748-2.8,1.668a1.138,1.138,0,0,0-.49,1.357Z" transform="translate(-462.681 -405.216)" fill="#f5ff00"/>
            <g id="Group_14" data-name="Group 14" transform="translate(1.763 70.475)" opacity="0.8">
              <g id="Group_13" data-name="Group 13">
                <g id="Group_12" data-name="Group 12" clip-path="url(#clip-path)">
                  <path id="Path_78" data-name="Path 78" d="M438.735,601.795l-.005-.005a1.85,1.85,0,0,1-.547-1.308v-4.765a3.149,3.149,0,0,0-3.211-3.148l-47.938.954a3.345,3.345,0,0,0-3.254,2.944s.7,3.769-.19,4.549c-7.629,6.681-13.929,17.34-13.929,28.281,0,14.82,7.9,25.435,17.846,32.634a115.871,115.871,0,0,0,21.763,1.847c15.555.054,24.658-1.847,24.658-1.847,9.945-7.2,18.19-14.936,18.19-30.98,0-10.941-6.211-21.985-13.382-29.156" transform="translate(-369.66 -592.568)" fill="#fff"/>
                </g>
              </g>
            </g>
            <g id="Group_17" data-name="Group 17" transform="translate(0 68.825)" opacity="0.6">
              <g id="Group_16" data-name="Group 16">
                <g id="Group_15" data-name="Group 15" clip-path="url(#clip-path-2)">
                  <path id="Path_79" data-name="Path 79" d="M427.353,588.459l-.006-.006a1.968,1.968,0,0,1-.574-1.385v-5.046a3.319,3.319,0,0,0-3.371-3.334L373.078,579.7a3.523,3.523,0,0,0-3.417,3.118s.735,3.992-.2,4.817c-8.01,7.075-14.622,18.363-14.622,29.949,0,12.341,5.129,21.929,12.4,29.169a22.7,22.7,0,0,0,13.457,6.464,144.588,144.588,0,0,0,15.726.882,168.009,168.009,0,0,0,18.757-.922,23.875,23.875,0,0,0,12.97-5.609c7.64-6.57,13.255-14.548,13.255-28.232,0-11.586-6.52-23.282-14.048-30.876" transform="translate(-354.839 -578.687)" fill="#c8fdb6"/>
                </g>
              </g>
            </g>
            <path id="Path_80" data-name="Path 80" d="M589.185,1145.845c0,1.21-8.781,2.191-19.613,2.191s-19.613-.981-19.613-2.191,8.781-2.191,19.613-2.191,19.613.981,19.613,2.191" transform="translate(-526.752 -1007.636)" fill="#33353b"/>
            <path id="Path_81" data-name="Path 81" d="M502.15,626.683c-4.217,0-8.273-.107-11.9-.366l.021-.293c20.248,1.447,53.809-1.868,54.145-1.9l.029.292c-.276.028-22.961,2.268-42.292,2.268" transform="translate(-474.142 -549.895)" fill="#33353b"/>
            <path id="Path_82" data-name="Path 82" d="M514.389,649.815c-9.507,0-18.879-.266-24.045-1.141l.049-.289c13.129,2.223,53.557.506,53.964.489l.013.293c-.247.011-15.273.649-29.98.649" transform="translate(-474.228 -571.27)" fill="#33353b"/>
            <path id="Path_83" data-name="Path 83" d="M488.372,611.748v-.294c.472,0,47.276-.07,54.22-1.709l.067.286c-6.977,1.647-53.815,1.717-54.287,1.717" transform="translate(-472.491 -537.227)" fill="#33353b"/>
            <g id="Group_20" data-name="Group 20" transform="translate(7.824 109.612)" opacity="0.7">
              <g id="Group_19" data-name="Group 19" transform="translate(0)">
                <g id="Group_49" data-name="Group 49">
                  <path id="Path_84" data-name="Path 84" d="M432.919,933.813s-4.876-5.219-10.238-1.292.758,11.112,7.11,13.407,8.093,3.394,9.237,2.818,14.519-18.331,6.75-25.169c-5.575-4.906-12.528-.176-12.859,10.236" transform="translate(-420.627 -921.633)" fill="#70bc56"/>
                  <path id="Path_85" data-name="Path 85" d="M579.606,943.948a.265.265,0,0,1-.25-.178,3.108,3.108,0,0,0-2.782-2.208,5.536,5.536,0,0,0-2,.17.265.265,0,1,1-.157-.506c.042-.013,4.172-1.25,5.439,2.368a.265.265,0,0,1-.25.353" transform="translate(-555.963 -938.707)" fill="#fff2e2"/>
                </g>
              </g>
            </g>
            <path id="Path_86" data-name="Path 86" d="M692.508,921.557s1.112-8.963-7.046-10.984-10.169,9.745-7.247,17.77,3.268,10.6,4.755,11.249,29.561-.772,29.9-13.855c.241-9.387-9.987-12.3-20.359-4.18" transform="translate(-638.637 -802.074)" fill="#70bc56"/>
            <path id="Path_87" data-name="Path 87" d="M926.627,996.018a.335.335,0,0,1-.287-.507,3.931,3.931,0,0,0-.113-4.49,7,7,0,0,0-1.786-1.8.335.335,0,1,1,.364-.563,7.606,7.606,0,0,1,1.98,1.993,4.609,4.609,0,0,1,.131,5.2.335.335,0,0,1-.288.164" transform="translate(-856.561 -871.025)" fill="#fff"/>
            <path id="Path_88" data-name="Path 88" d="M555.776,1021.158s-4.479-.745-5.664,3.311,4.684,5.311,8.775,4.01,5.4-1.421,5.749-2.155.227-14.865-6.338-15.306c-4.71-.316-6.387,4.761-2.523,10.14" transform="translate(-526.752 -890.763)" fill="#70bc56"/>
            <path id="Path_89" data-name="Path 89" d="M593.48,1025.711a.169.169,0,0,1-.137-.266c.016-.022,1.62-2.245,3.66-.911a.169.169,0,0,1-.185.282,1.976,1.976,0,0,0-2.258-.036,3.517,3.517,0,0,0-.942.86.168.168,0,0,1-.138.071" transform="translate(-564.95 -902.309)" fill="#fff2e2"/>
            <path id="Path_90" data-name="Path 90" d="M571.43,769.146s-2.822-3.286-6.171-1.043.178,6.752,3.968,8.3,4.818,2.262,5.526,1.942,9.263-10.739,4.728-15.079c-3.253-3.114-7.587-.424-8.051,5.876" transform="translate(-539.052 -671.347)" fill="#70bc56"/>
            <path id="Path_91" data-name="Path 91" d="M662.735,775.493a.161.161,0,0,1-.154-.114,1.884,1.884,0,0,0-1.621-1.407,3.373,3.373,0,0,0-1.225.051.161.161,0,0,1-.082-.311c.025-.007,2.56-.652,3.235,1.573a.161.161,0,0,1-.107.2.163.163,0,0,1-.047.007" transform="translate(-623.296 -681.612)" fill="#fff2e2"/>
            <path id="Path_92" data-name="Path 92" d="M776.929,699.267s-4.487-.974-5.884,3.063,4.467,5.6,8.664,4.485,5.519-1.168,5.913-1.891.966-15-5.642-15.772c-4.742-.553-6.686,4.491-3.051,10.115" transform="translate(-721.359 -607.153)" fill="#70bc56"/>
            <path id="Path_93" data-name="Path 93" d="M819.608,703.723a.17.17,0,0,1-.134-.275c.017-.022,1.748-2.187,3.741-.738a.17.17,0,1,1-.2.276,2,2,0,0,0-2.278-.149,3.562,3.562,0,0,0-.994.821.17.17,0,0,1-.134.065" transform="translate(-764.182 -618.694)" fill="#fff2e2"/>
            <path id="Path_94" data-name="Path 94" d="M425.468,865.7s1.428-2.112-.365-3.665-3.806,1.148-4.1,3.541-.537,3.086-.245,3.438,7.534,3.593,9.294.346c1.263-2.33-.936-4.373-4.585-3.66" transform="translate(-412.803 -759.104)" fill="#70bc56"/>
            <path id="Path_95" data-name="Path 95" d="M489.3,909.554a.095.095,0,0,1-.05-.175,1.109,1.109,0,0,0,.547-1.144,1.978,1.978,0,0,0-.218-.682.095.095,0,1,1,.164-.095c.008.014.767,1.352-.391,2.081a.1.1,0,0,1-.05.015" transform="translate(-473.228 -799.491)" fill="#fff2e2"/>
            <path id="Path_96" data-name="Path 96" d="M900.579,822.544l1.951,5.412a1.626,1.626,0,0,0,1.8,1.052l5.636-.955-6.028,2.089a1.025,1.025,0,0,0-.681,1.1l.427,3.231-1.406-2.882a1.494,1.494,0,0,0-1.4-.838l-2.991.116,2.873-1.017a1.065,1.065,0,0,0,.7-1.155Z" transform="translate(-833.301 -724.717)" fill="#fff"/>
            <path id="Path_97" data-name="Path 97" d="M551.886,761.971l-2.723,5.068a1.627,1.627,0,0,0,.421,2.044l4.477,3.554-5.582-3.088a1.025,1.025,0,0,0-1.276.231l-2.118,2.477,1.2-2.972a1.5,1.5,0,0,0-.313-1.6l-2.085-2.148,2.677,1.458a1.065,1.065,0,0,0,1.326-.252Z" transform="translate(-521.406 -671.348)" fill="#fff"/>
            <path id="Path_98" data-name="Path 98" d="M717.793,701.38l-1.751,3.26a1.046,1.046,0,0,0,.271,1.315l2.88,2.286-3.591-1.987a.66.66,0,0,0-.821.148L713.418,708l.775-1.912a.961.961,0,0,0-.2-1.03l-1.341-1.382,1.722.938a.685.685,0,0,0,.853-.162Z" transform="translate(-670.094 -617.963)" fill="#fff"/>
            <path id="Path_99" data-name="Path 99" d="M480.539,689.109l-1.752,3.26a1.047,1.047,0,0,0,.271,1.315l2.88,2.286-3.591-1.986a.659.659,0,0,0-.82.148l-1.363,1.593.775-1.911a.961.961,0,0,0-.2-1.031L475.4,691.4l1.722.938a.685.685,0,0,0,.853-.162Z" transform="translate(-461.058 -607.152)" fill="#fff"/>
            <path id="Path_100" data-name="Path 100" d="M445.2,973.16l-1.752,3.26a1.046,1.046,0,0,0,.271,1.315l2.88,2.286-3.591-1.986a.659.659,0,0,0-.821.148l-1.363,1.593.775-1.911a.961.961,0,0,0-.2-1.031l-1.341-1.382,1.722.938a.685.685,0,0,0,.853-.162Z" transform="translate(-429.92 -857.42)" fill="#fff"/>
            <path id="Path_101" data-name="Path 101" d="M535.881,1150.254c-7.947,0-15.57-.474-18.179-.7a29.818,29.818,0,0,1-8.6-2.251.245.245,0,0,1,.2-.445,29.289,29.289,0,0,0,8.436,2.209c4.362.377,22.78,1.451,33.187-.172,10.156-1.584,14.65-7.149,14.694-7.2a.244.244,0,1,1,.384.3,16.637,16.637,0,0,1-3.592,3.093,28.209,28.209,0,0,1-11.411,4.292,105.48,105.48,0,0,1-15.126.875" transform="translate(-490.632 -1005.824)" fill="#33353b"/>
            <path id="Path_102" data-name="Path 102" d="M404.582,1080.136a.243.243,0,0,1-.143-.047c-4.751-3.446-9.137-11.146-9.181-11.223a.245.245,0,1,1,.426-.241c.043.077,4.378,7.685,9.042,11.068a.244.244,0,0,1-.144.443" transform="translate(-390.423 -941.422)" fill="#33353b"/>
            <g id="Group_29" data-name="Group 29" transform="translate(98.114 42.266)" opacity="0.4">
              <g id="Group_28" data-name="Group 28">
                <g id="Group_27" data-name="Group 27" clip-path="url(#clip-path-3)">
                  <path id="Path_105" data-name="Path 105" d="M1192.662,357.87s-1.684-2.916-4.764-2.437-.068,1.794-4.106,2.437-4.928,2.012-3.08,3.107,4.859-1.985,8.145-.479,7.679.219,3.805-2.628" transform="translate(-1179.792 -355.38)" fill="#fff"/>
                </g>
              </g>
            </g>
            <g id="Group_32" data-name="Group 32" transform="translate(11.702 9.985)" opacity="0.4">
              <g id="Group_31" data-name="Group 31">
                <g id="Group_30" data-name="Group 30" clip-path="url(#clip-path-3)">
                  <path id="Path_106" data-name="Path 106" d="M466.1,86.45s-1.684-2.916-4.763-2.437-.068,1.794-4.107,2.437-4.928,2.012-3.08,3.107,4.859-1.985,8.145-.479,7.679.219,3.805-2.628" transform="translate(-453.228 -83.96)" fill="#fff"/>
                </g>
              </g>
            </g>
          </g>
        </g>
      </g>
    </g>
  </g>
</svg>
