<svg xmlns="http://www.w3.org/2000/svg" xmlns:xlink="http://www.w3.org/1999/xlink" width="419" height="533" viewBox="0 0 419 533">
  <defs>
    <clipPath id="clip-path">
      <rect id="Rectangle_24" data-name="Rectangle 24" width="419" height="533" transform="translate(1501 6531)" fill="#fff" stroke="#707070" stroke-width="1"/>
    </clipPath>
  </defs>
  <g id="Mask_Group_1" data-name="Mask Group 1" transform="translate(-1501 -6531)" clip-path="url(#clip-path)">
    <path id="Union_2" data-name="Union 2" d="M151.309,508.523c-24.592-1.78-49.646-3.45-74.673-5.47q-17.488-1.412-34.873-3.991c-5.732-.846-11.281-2.924-16.909-4.459-2.644-.721-5.269-1.511-7.919-2.207C3.769,488.938-2.816,478.9,1.142,465.74c1.339-4.45,3.905-6.13,8.4-5.084,7.041,1.639,13.975,3.729,20.953,5.638.343.094.654.326,1,.392,7.7,1.484,15.4,2.974,23.106,4.414,3.162.591,6.35,1.046,9.518,1.608,1.057.189,2.073.647,3.133.773,13.385,1.587,26.768,3.191,40.164,4.678,10.214,1.133,20.423,2.524,30.673,3.05,14.931.768,29.9.963,44.851,1.193,5.808.089,10.423,1.7,13.547,6.951,2.364,3.972,5.414,7.54,7.8,11.5,2.965,4.931,1.316,7.656-4.361,7.661-6.793.007-13.586.009-20.418.009C170.212,508.527,160.848,508.523,151.309,508.523Zm69.266-6.417c-.118-5.783-2.872-10.472-5.325-15.325-1.735-3.436-1.365-4.276,2.333-4.276H242.7l-.006-.871c14.265.273,28.464-.1,42.525-2.967,3.821-.779,7.919-.128,11.8-.725,12.364-1.9,24.679-4.117,37.025-6.138,3.534-.578,7.172-.627,10.652-1.407,8-1.794,15.939-3.866,23.891-5.87,4.961-1.25,9.923-2.508,14.841-3.91a43.375,43.375,0,0,0,6.312-2.439c5.965-2.765,9.826-1.523,13.352,3.9,6.473,9.959,3.9,18.18-2.9,24.666-2.969,2.832-7.573,4.282-11.687,5.54-6.471,1.977-13.145,3.308-19.755,4.82-3.594.822-7.213,1.562-10.853,2.142-5.657.9-11.323,1.8-17.017,2.4-8.314.878-16.709,1.124-24.977,2.292-23.549,3.328-47.288,2.4-70.931,3.553-5.5.267-10.993.538-16.482.9-.222.015-.443.022-.661.022C223.9,508.417,220.656,506.043,220.575,502.106Zm-28.528-49.189c-.046-3.1.175-6.218-.166-9.279a42.4,42.4,0,0,0-1.873-7.133,20.978,20.978,0,0,1-1.087-2.625c-1.584-11.078-7.115-20.738-11.9-30.5a37.069,37.069,0,0,1-3.854-17.01c.017-26.557.074-53.113-.013-79.67-.017-4.922-1.674-9.375-5.965-12.343a3.488,3.488,0,0,0-2.842-.546c-3.773,1.825-8.392,6.724-8.344,11.9.245,26.555.458,53.118,0,79.666a52.3,52.3,0,0,0,6.094,25.542c3.994,7.785,8.071,15.654,10.8,23.913,2.293,6.926,3,14.433,3.867,21.746.987,8.285.728,8.273-7.7,8.075-9.81-.23-19.626-.286-29.433-.6-3.688-.12-7.354-.8-11.037-1.164-10.349-1.011-20.74-1.7-31.043-3.059-10.522-1.386-20.954-3.435-31.436-5.139-2.475-.4-5.005-.472-7.477-.89-3.748-.634-7.479-1.385-11.2-2.183-6.287-1.351-12.574-2.7-18.82-4.226-1.381-.337-2.588-1.383-3.875-2.1a32.812,32.812,0,0,1,2.641-2.992c9.422-8.431,19.192-16.635,25.854-27.51A209.613,209.613,0,0,0,65.235,391.43c2.848-6.307,4.848-12.992,7.225-19.51,1.889-5.176,4.785-10.231,5.433-15.557.988-8.118,3.291-15.894,4.7-23.879.61-3.463,1.513-6.876,2.075-10.344a96.952,96.952,0,0,0,1.384-11.279c.326-7.577-.167-15.1,2.432-22.58,1.472-4.232,1.014-9.176,1.163-13.808.585-18.2,1.03-36.4,1.609-54.6.164-5.171,1.423-6.183,6.56-6.181q65.526.031,131.052.023c8.391,0,12.871-7.292,8.487-14.447-1.146-1.869-4.5-3.056-6.972-3.322-4.731-.509-9.558-.126-14.345-.126q-50.985,0-101.97-.005H103.6l-.416-1.459c3.241-1.482,6.369-3.318,9.746-4.371,7.153-2.23,14.382-4.277,21.68-5.979,7.652-1.783,15.372-3.409,23.148-4.495a273.147,273.147,0,0,1,29.579-3,396.89,396.89,0,0,1,40.517.567c10.528.767,20.944,3.2,31.377,5.071,7.268,1.3,14.567,2.584,21.7,4.456,7.593,1.994,15.442,3.813,22.37,7.3,6.7,3.372,11.427,9.325,11.529,17.671.211,17.266.241,34.539.86,51.79.319,8.885,1.734,17.73,2.666,26.591,1.357,12.883,2.315,25.825,4.234,38.625,1.222,8.143,3.909,16.066,5.882,24.1,1.521,6.19,2.538,12.538,4.529,18.57,2.663,8.063,5.836,15.981,9.206,23.783a78.042,78.042,0,0,0,7.853,14.709c5.886,8.183,12.35,15.963,18.761,23.758a63.436,63.436,0,0,0,6.992,6.58c1.935,1.731,1.847,3.566-.483,4.814a16.52,16.52,0,0,1-3.7,1.3c-4.5,1.152-8.985,2.37-13.527,3.323-11.888,2.5-23.733,5.3-35.723,7.173-13.892,2.17-27.917,3.582-41.874,5.268-23.413,2.829-46.823,2.179-70.241,2.841-1.794.051-3.592.023-5.383.121q-.524.029-1.031.029C196.568,464.953,192.159,460.512,192.048,452.917ZM408.071,200.666c-4.165-2.98-8.356-5.962-12.207-9.317-1.338-1.167-2.634-3.588-2.361-5.163,1.129-6.517-2.244-10.213-7.132-13.446a81.159,81.159,0,0,1-11.17-8.3,9.837,9.837,0,0,1-2.821-6.774c.234-5-1.4-8.219-5.738-10.876a132.621,132.621,0,0,1-13.723-10.276,5.849,5.849,0,0,1-1.72-3.664,78.167,78.167,0,0,1-.125-7.847c-.022-4.832-.579-5.41-5.3-5.409-3.124,0-6.251-.044-9.378-.087-7.412-.1-14.825-.206-22.2.273-7.418.482-13.77-2.214-20.373-4.379-4.73-1.551-9.233-3.775-13.916-5.481-7.828-2.853-15.715-5.544-23.585-8.277-3.232-1.123-4.135-3.309-2.552-6.41a9.739,9.739,0,0,0,1.2-2.18c1.464-7.36,2.8-14.746,4.273-22.1.526-2.63,1.288-5.215,1.991-7.807.153-.563.654-1.044.761-1.607,1.423-7.5,2.77-15.014,4.215-22.509.466-2.413,1.144-4.787,1.773-7.166.511-1.935,1.23-3.826,1.6-5.786a48.949,48.949,0,0,0,.337-4.983c.54-6.5,3.513-9.061,10.022-9.052q49,.068,98,.028c7.3,0,14.6-.293,21.885.042,9.115.419,14.019,4.526,13.968,14.242-.149,28.574-.054,57.15-.054,85.725H413.7v83.94a14.552,14.552,0,0,1-.005,1.785c-.22,1.785-.493,3.563-.745,5.344A34.942,34.942,0,0,1,408.071,200.666ZM1.159,199.428a15.442,15.442,0,0,1-.059-3.206q0-42.874,0-85.748h.028q0-43.23.006-86.462c0-6.678,1.459-8.811,7.851-10.407a46.214,46.214,0,0,1,10.855-1.478Q72.8,11.883,125.757,11.9c3.707-.005,7.414.041,11.122.072,3.189.027,4.669,1.717,5.115,4.8,1.289,8.9,2.5,17.83,4.152,26.671,1.673,8.951,3.909,17.8,5.739,26.722.546,2.665.406,5.463.842,8.157,1.191,7.364,2.344,14.741,3.863,22.041a12.4,12.4,0,0,0,7.241,9.173,4.678,4.678,0,0,1,2.216,3.48c.131,14.17.094,28.342.008,42.513-.027,4.464-1.538,5.9-6.033,6.283-.953.082-1.9.185-2.856.278-4.025.391-5.314-.726-5.307-4.648q.041-23.937.1-47.874c.01-4.164-.445-4.857-4.506-3.887a121.816,121.816,0,0,0-13.894,4.482c-7.793,2.885-15.49,6.026-23.279,8.921a13.551,13.551,0,0,1-4.6.519q-10.4.021-20.792,0-8.1-.011-16.192-.009c-4.851,0-8.026,2.427-7.142,6.784,1.874,9.232-3.77,13.445-10.224,17.565a41.821,41.821,0,0,0-6.556,4.938c-2.8,2.695-4.946,5.861-4.455,10.078.4,3.461-1.07,5.746-3.985,7.695a110.907,110.907,0,0,0-13.377,10.117,11.854,11.854,0,0,0-3.508,7.283C19.158,188.5,18.385,192,14.1,194.471c-3.159,1.821-5.71,4.668-8.618,6.948a15.077,15.077,0,0,1-3.023,1.447A23.075,23.075,0,0,1,1.159,199.428Zm236.658-46.376c.01-13.206.032-26.411-.088-39.614-.027-3.02.983-4.477,4.119-4.346a24.4,24.4,0,0,0,4.645-.253c4.391-.667,4.815-.338,4.816,4.206q0,11.064,0,22.126c0,7.376-.127,14.754.052,22.126.081,3.3-1.3,4.448-4.413,4.555-.987.034-1.869.057-2.656.057C238.287,161.909,237.811,160.6,237.817,153.052Zm-46.965,5.5c-2.419-.048-3.795-1.488-3.744-4.235.125-6.894.041-13.793.045-20.689,0-6.775.119-13.553-.052-20.323-.072-2.841,1.308-4.075,3.761-4.1,7.049-.077,14.1.019,21.151.123,2.63.039,3.689,1.395,3.662,4.129-.132,13.44-.181,26.881-.066,40.321.026,3.008-1.055,4.639-3.967,4.7-4.346.088-8.694.15-13.041.15Q194.726,158.628,190.853,158.555Zm-19.99-71.032a23.529,23.529,0,0,0-2.61-13.127,8.192,8.192,0,0,1-.808-3.8c-.025-5.373.07-10.717-3.035-15.52a6.023,6.023,0,0,1-.531-3.124c.014-5.38.019-10.717-2.91-15.583a6.806,6.806,0,0,1-.633-3.475c.1-5.409-.472-10.583-2.947-15.595-1.651-3.344-.4-6.411,2.1-9.443C164.366,1.945,170.021-.5,177.864.085c9.517.714,19.13.17,28.7.17,10.649,0,21.352.668,31.931-.185,10.823-.873,20.448,10.944,15.316,22.075-1.453,3.15-1.695,6.85-2.506,10.295q-2.8,11.9-5.62,23.8c-.109.462-.352.895-.441,1.358Q242.958,69.443,240.7,81.29a36.785,36.785,0,0,1-.845,4.189c-1.891,5.976-2.524,6.383-8.905,6.391-18.544.022-37.089.011-55.633.13h-.077C171.991,92,170.68,90.625,170.862,87.523Z" transform="translate(1522.213 6549.558)" fill="#fff" opacity="0.225" style="mix-blend-mode: soft-light;isolation: isolate"/>
  </g>
</svg>
