<svg xmlns="http://www.w3.org/2000/svg" width="131.882" height="30.527" viewBox="0 0 131.882 30.527">
  <g id="logo" transform="translate(-703.024 -276.108)">
    <path id="Union_1" data-name="Union 1" d="M9.064,30.527C7.591,30.42,6.09,30.32,4.591,30.2q-1.048-.085-2.089-.24a8.809,8.809,0,0,1-1.013-.268c-.158-.043-.316-.091-.474-.132a1.2,1.2,0,0,1-.946-1.6.375.375,0,0,1,.5-.305c.422.1.837.224,1.255.338.021.006.039.02.06.024.461.089.922.179,1.384.265.189.035.38.063.57.1.063.011.124.039.188.046.8.1,1.6.192,2.406.281.612.068,1.223.151,1.837.183.894.046,1.791.058,2.687.072a.86.86,0,0,1,.811.417c.142.238.324.453.467.691.178.3.079.46-.261.46H9.064Zm4.149-.385a2.129,2.129,0,0,0-.319-.92c-.1-.206-.082-.257.14-.257h1.5v-.052a11.543,11.543,0,0,0,2.547-.178c.229-.047.474-.008.707-.044.741-.114,1.478-.247,2.218-.368.212-.035.43-.038.638-.084.479-.108.955-.232,1.431-.352.3-.075.594-.151.889-.235a2.6,2.6,0,0,0,.378-.146.548.548,0,0,1,.8.234,1.061,1.061,0,0,1-.174,1.481,1.765,1.765,0,0,1-.7.333c-.388.119-.787.2-1.183.289-.215.049-.432.094-.65.129-.339.054-.678.108-1.019.144-.5.053-1,.067-1.5.138-1.411.2-2.833.144-4.249.213-.329.016-.659.032-.987.054h-.04A.4.4,0,0,1,13.213,30.141ZM11.5,27.189c0-.186.01-.373-.01-.557a2.549,2.549,0,0,0-.112-.428,1.261,1.261,0,0,1-.065-.158,6.249,6.249,0,0,0-.713-1.831,2.229,2.229,0,0,1-.231-1.021c0-1.594,0-3.188,0-4.783a.854.854,0,0,0-.357-.741.209.209,0,0,0-.17-.033.893.893,0,0,0-.5.714c.015,1.594.027,3.189,0,4.782a3.145,3.145,0,0,0,.365,1.533,10.284,10.284,0,0,1,.647,1.436,6.683,6.683,0,0,1,.232,1.305c.059.5.044.5-.461.485-.588-.014-1.176-.017-1.763-.036-.221-.007-.441-.048-.661-.07-.62-.061-1.242-.1-1.86-.184s-1.255-.206-1.883-.308c-.148-.024-.3-.028-.448-.053-.225-.038-.448-.083-.671-.131-.377-.081-.753-.162-1.127-.254a1.022,1.022,0,0,1-.232-.126,1.969,1.969,0,0,1,.158-.18A7.774,7.774,0,0,0,3.19,24.9a12.593,12.593,0,0,0,.718-1.4c.171-.379.29-.78.433-1.171a4.47,4.47,0,0,0,.325-.934c.059-.487.2-.954.281-1.433.037-.208.091-.413.124-.621a5.832,5.832,0,0,0,.083-.677A4.579,4.579,0,0,1,5.3,17.305a2.862,2.862,0,0,0,.07-.829c.035-1.093.062-2.185.1-3.278.01-.31.085-.371.393-.371q3.925,0,7.85,0a.548.548,0,0,0,.508-.867.611.611,0,0,0-.418-.2,8.049,8.049,0,0,0-.859-.008H6.206l-.025-.088a5.1,5.1,0,0,1,.584-.262c.428-.134.862-.257,1.3-.359.458-.107.921-.2,1.387-.27a16.329,16.329,0,0,1,1.772-.18,23.724,23.724,0,0,1,2.427.034,18.26,18.26,0,0,1,1.88.3c.435.078.873.155,1.3.268a6.81,6.81,0,0,1,1.34.438,1.173,1.173,0,0,1,.691,1.061c.013,1.036.014,2.073.051,3.109.019.533.1,1.064.16,1.6.081.773.139,1.55.254,2.319.073.489.234.964.352,1.447.091.372.152.753.271,1.115.16.484.35.959.551,1.428a4.688,4.688,0,0,0,.47.883c.353.491.74.958,1.124,1.426a3.8,3.8,0,0,0,.419.395c.116.1.111.214-.029.289a.988.988,0,0,1-.222.078c-.269.069-.538.142-.81.2-.712.15-1.422.318-2.14.431-.832.13-1.672.215-2.508.316-1.4.17-2.8.131-4.208.171-.107,0-.215,0-.322.007l-.062,0A.661.661,0,0,1,11.5,27.189Zm12.94-15.143c-.249-.179-.5-.358-.731-.559a.413.413,0,0,1-.141-.31.754.754,0,0,0-.427-.807,4.862,4.862,0,0,1-.669-.5.591.591,0,0,1-.169-.407.647.647,0,0,0-.344-.653,7.946,7.946,0,0,1-.822-.617.351.351,0,0,1-.1-.22A4.7,4.7,0,0,1,21.03,7.5c0-.29-.035-.325-.318-.325-.187,0-.374,0-.562-.005-.444-.006-.888-.012-1.33.016a3.167,3.167,0,0,1-1.22-.263c-.283-.093-.553-.227-.834-.329-.469-.171-.941-.333-1.413-.5a.242.242,0,0,1-.153-.385.585.585,0,0,0,.072-.131c.088-.442.168-.885.256-1.327.032-.158.077-.313.119-.469.009-.034.039-.063.046-.1.085-.45.166-.9.253-1.351.028-.145.069-.287.106-.43.031-.116.074-.23.1-.347a2.944,2.944,0,0,0,.02-.3c.032-.39.21-.544.6-.543q2.935,0,5.87,0c.437,0,.875-.018,1.311,0,.546.025.84.272.837.855-.009,1.715,0,3.431,0,5.146h0v5.039a.876.876,0,0,1,0,.107c-.013.107-.03.214-.045.321A2.091,2.091,0,0,1,24.444,12.046ZM.069,11.972a.929.929,0,0,1,0-.192q0-2.574,0-5.147h0q0-2.6,0-5.19c0-.4.087-.529.47-.625a2.763,2.763,0,0,1,.65-.089C3.3.718,5.418.717,7.533.714c.222,0,.444,0,.666,0,.191,0,.28.1.306.288.077.535.15,1.07.249,1.6s.234,1.068.344,1.6c.033.16.024.328.05.49.071.442.14.885.231,1.323a.744.744,0,0,0,.434.551.281.281,0,0,1,.133.209c.008.851.006,1.7,0,2.552,0,.268-.092.354-.361.377l-.171.017c-.241.023-.318-.044-.318-.279q0-1.437.006-2.874c0-.25-.027-.292-.27-.233A7.286,7.286,0,0,0,8,6.613c-.467.173-.928.362-1.394.536a.81.81,0,0,1-.275.031H4.115c-.291,0-.481.146-.428.407.112.554-.226.807-.612,1.054a2.506,2.506,0,0,0-.393.3.712.712,0,0,0-.267.6A.454.454,0,0,1,2.177,10a6.645,6.645,0,0,0-.8.607.712.712,0,0,0-.21.437.667.667,0,0,1-.321.626,4.76,4.76,0,0,0-.516.417.9.9,0,0,1-.181.087A1.387,1.387,0,0,1,.069,11.972ZM14.246,9.188c0-.793,0-1.585-.005-2.378,0-.181.059-.269.247-.261a1.459,1.459,0,0,0,.278-.015c.263-.04.288-.02.288.252q0,.664,0,1.328c0,.443-.008.886,0,1.328,0,.2-.078.267-.264.273-.059,0-.112,0-.159,0C14.274,9.719,14.245,9.641,14.246,9.188Zm-2.813.33c-.145,0-.227-.089-.224-.254.008-.414,0-.828,0-1.242s.007-.814,0-1.22c0-.171.078-.245.225-.246.422,0,.845,0,1.267.007.158,0,.221.084.219.248-.008.807-.011,1.614,0,2.42,0,.181-.063.279-.238.282-.26.005-.521.009-.781.009Q11.665,9.522,11.433,9.518Zm-1.2-4.264a1.415,1.415,0,0,0-.156-.788.493.493,0,0,1-.048-.228,1.636,1.636,0,0,0-.182-.932.362.362,0,0,1-.032-.188,1.72,1.72,0,0,0-.174-.935A.409.409,0,0,1,9.6,1.975a1.969,1.969,0,0,0-.177-.936A.5.5,0,0,1,9.554.472a1.192,1.192,0,0,1,1.1-.467c.57.043,1.146.01,1.719.01.638,0,1.279.04,1.913-.011A.948.948,0,0,1,15.2,1.329a3.253,3.253,0,0,0-.15.618q-.168.715-.337,1.429c-.007.028-.021.054-.026.081q-.137.711-.272,1.422a2.213,2.213,0,0,1-.051.251c-.113.359-.151.383-.533.384-1.111,0-2.222,0-3.333.008h0C10.3,5.523,10.224,5.44,10.235,5.254Z" transform="translate(703.024 276.109)" fill="#fff"/>
    <g id="Group_2" data-name="Group 2" transform="translate(738.382 279.191)">
      <g id="Group_4" data-name="Group 4" transform="translate(0 0)">
        <path id="Path_10" data-name="Path 10" d="M599.19,20.381c.1-.6.23-1.2.287-1.8.215-2.307.392-4.619.609-6.926.222-2.36.5-4.715.7-7.077.13-1.493.092-1.5,1.561-1.5.737,0,1.474.014,2.21-.007.338-.009.439.122.466.445q.25,3.013.532,6.024c.16,1.733.332,3.466.5,5.2q.253,2.653.5,5.305a2.582,2.582,0,0,0,.065.3l.146.038a3.777,3.777,0,0,0,.268-.822c.128-1.428.207-2.86.336-4.287.112-1.242.273-2.478.4-3.719.1-1,.2-2.01.284-3.017q.177-2.224.321-4.451c.057-.912.14-1.011,1.029-1.011.552,0,1.106.02,1.657-.006.4-.02.586.111.542.532-.152,1.456-.3,2.913-.442,4.369-.005.055-.022.109-.026.164-.1,1.279-.178,2.56-.3,3.837-.115,1.164-.281,2.324-.425,3.486-.009.073-.033.144-.038.217-.1,1.262-.17,2.526-.293,3.785-.114,1.165-.282,2.325-.426,3.487-.025.2-.051.4-.069.6-.087.985-.161,1.972-.271,2.955a.465.465,0,0,1-.337.3c-1.307.021-2.615.011-3.923.015-.33,0-.43-.164-.458-.479-.179-2.05-.366-4.1-.572-6.147q-.361-3.59-.762-7.176c-.056-.5-.192-.99-.311-1.583-.112.146-.181.194-.186.248-.1.948-.175,1.9-.279,2.845-.127,1.145-.275,2.288-.415,3.432-.011.091-.041.18-.049.272-.1,1.225-.176,2.452-.3,3.674-.109,1.074-.276,2.141-.4,3.212a11.227,11.227,0,0,0-.089,1.264c0,.293-.071.444-.4.442q-2.072-.014-4.144,0c-.328,0-.432-.141-.464-.463q-.636-6.565-1.3-13.127c-.317-3.148-.651-6.294-.967-9.442-.071-.706-.053-.709.658-.711.792,0,1.584.012,2.376-.006.315-.007.412.121.435.417q.254,3.183.532,6.364.244,2.795.51,5.588c.149,1.551.315,3.1.479,4.649a1.323,1.323,0,0,0,.1.284l.144,0" transform="translate(-528.29 -2.733)" fill="#fff"/>
        <path id="Path_11" data-name="Path 11" d="M772.3,14.906c0-3.719.011-7.438-.011-11.156,0-.556.153-.733.717-.716,2,.059,4.013.01,6.014.118a4.345,4.345,0,0,1,4.063,2.885,7.64,7.64,0,0,1,.374,2.918q-.006,6.71-.048,13.419a4.391,4.391,0,0,1-2.958,3.9,16.408,16.408,0,0,1-3.182.49c-1.468.081-2.944.008-4.417.029-.432.006-.564-.122-.562-.565.017-3.774.01-7.548.01-11.322m3.684-.076q0,3.922,0,7.845c0,.662.059.724.728.721.5,0,.995-.012,1.49-.041a1.255,1.255,0,0,0,1.178-.782,6.149,6.149,0,0,0,.449-1.9c.056-2.061.021-4.124.021-6.187,0-1.878.045-3.758-.021-5.634-.035-.982-.166-2.049-1.321-2.417a6.215,6.215,0,0,0-1.687-.151c-.826-.023-.838,0-.839.812q0,3.867,0,7.734" transform="translate(-686.936 -2.697)" fill="#fff"/>
        <path id="Path_12" data-name="Path 12" d="M363.3,14.654c.112.121.179.246.283.3,1.591.818,1.844,2.342,1.952,3.874.1,1.374,0,2.761.032,4.142.031,1.258.123,2.514.192,3.859a.722.722,0,0,1-.252.052c-.939.008-1.878-.005-2.817.01a.429.429,0,0,1-.507-.437c-.063-.547-.188-1.092-.2-1.639-.029-1.878,0-3.757-.032-5.635-.015-.928-.177-1.9-1.141-2.275a7.311,7.311,0,0,0-2.205-.311c-.4-.024-.395.35-.395.655q0,4.005,0,8.01c0,.405-.01.811,0,1.215.009.268-.063.416-.364.413-.957-.008-1.915.01-2.872-.019-.125,0-.272-.211-.353-.355-.055-.1-.012-.252-.012-.381q0-11.077,0-22.153c0-.835,0-.843.86-.831,1.969.026,3.941,0,5.906.112a3.8,3.8,0,0,1,3.5,2.128,8.872,8.872,0,0,1,.646,2.583,12.791,12.791,0,0,1,.012,2.593c-.128,1.594-.488,3.1-2.087,3.923-.045.023-.074.078-.156.168m-5.085-4.8v1.984c0,1.635.054,1.681,1.718,1.457a1.886,1.886,0,0,0,1.9-1.747,18.931,18.931,0,0,0-.033-3.617,1.686,1.686,0,0,0-1.548-1.5,12.816,12.816,0,0,0-1.484-.052c-.4-.02-.562.156-.557.554.012.974,0,1.947,0,2.921" transform="translate(-315.411 -2.797)" fill="#fff"/>
        <path id="Path_13" data-name="Path 13" d="M.013,15.044q0-5.579,0-11.159c0-.737,0-.742.718-.735,1.877.017,3.76-.042,5.63.077,2.92.185,4.354,1.634,4.7,4.572a15.466,15.466,0,0,1,.106,1.762c.01,3.664.019,7.329,0,10.993a8.232,8.232,0,0,1-.7,3.765,4.267,4.267,0,0,1-3.25,2.337A46.964,46.964,0,0,1,.658,26.9c-.5.022-.661-.11-.657-.637.024-3.738.013-7.476.013-11.214M3.6,14.919c0,2.321-.01,4.642,0,6.962.01,1.752-.305,1.611,1.675,1.621A1.875,1.875,0,0,0,7.3,22.393a4.381,4.381,0,0,0,.274-1.5c.027-2.56.013-5.12.012-7.681,0-1.529.053-3.061-.027-4.585-.076-1.438-.746-2.229-2.237-2.239q-.442,0-.884,0c-.78,0-.838.057-.839.855q0,3.84,0,7.681" transform="translate(0 -2.8)" fill="#fff"/>
        <path id="Path_14" data-name="Path 14" d="M475.8,12.136c0-2.319-.071-4.641.018-6.957.12-3.133,1.84-4.884,4.951-5.127a5.669,5.669,0,0,1,4.7,1.438,5.308,5.308,0,0,1,1.321,2.6A15.726,15.726,0,0,1,487,7.929c.025,3.645.061,7.291-.013,10.935a5.11,5.11,0,0,1-4.927,5.494,6.861,6.861,0,0,1-3.688-.625,4.784,4.784,0,0,1-2.538-4.308c-.1-2.426-.024-4.858-.024-7.288H475.8m3.612,0c0,2.319-.007,4.638,0,6.956a1.836,1.836,0,0,0,1.46,1.882,1.761,1.761,0,0,0,2.211-1.077,4.692,4.692,0,0,0,.26-1.67c.021-3.975.012-7.95.008-11.925a10.012,10.012,0,0,0-.06-1.1,1.944,1.944,0,1,0-3.882.2c-.006,2.245,0,4.49,0,6.736" transform="translate(-423.187 -0.019)" fill="#fff"/>
        <path id="Path_15" data-name="Path 15" d="M234.486,12.148c0-2.026-.053-4.054.022-6.077a11.334,11.334,0,0,1,.5-3.137A4.086,4.086,0,0,1,238.274.2a6.562,6.562,0,0,1,4.911.655,4.353,4.353,0,0,1,1.873,2.688,17.5,17.5,0,0,1,.257,4.222c.016.311-.128.427-.429.425-.829-.008-1.658-.011-2.486,0-.348.005-.439-.158-.437-.475.006-.81.018-1.622-.025-2.43a1.9,1.9,0,0,0-1.128-1.822,1.794,1.794,0,0,0-2.6,1.4,25.987,25.987,0,0,0-.139,2.751c-.016,3.573-.024,7.147,0,10.719a2.8,2.8,0,0,0,.576,2.125,1.9,1.9,0,0,0,2.095.427,1.7,1.7,0,0,0,1.164-1.6c.078-1.063.051-2.134.061-3.2.007-.818,0-.817.83-.816.663,0,1.327.018,1.989-.007.38-.014.537.117.532.5-.02,1.363.086,2.738-.063,4.085A4.607,4.607,0,0,1,242.206,24a7.25,7.25,0,0,1-3.942.165,4.7,4.7,0,0,1-3.678-4.677c-.037-2.448-.008-4.9-.008-7.344h-.091" transform="translate(-208.554 0)" fill="#fff"/>
        <path id="Path_16" data-name="Path 16" d="M124.573,14.924q0-5.554,0-11.108c0-.77.005-.774.765-.773,2.873,0,5.747.013,8.62-.013.549,0,.708.181.681.7-.035.68-.029,1.364,0,2.044.016.392-.122.513-.505.509-1.713-.015-3.426-.008-5.139-.007-.749,0-.833.079-.835.813q-.007,2.4,0,4.808c0,.663.185.84.864.841,1.234,0,2.468.011,3.7-.006.441-.006.638.13.617.6-.031.7-.026,1.4,0,2.1.013.387-.134.522-.513.519-1.252-.013-2.505-.006-3.757,0-.814,0-.908.1-.908.935q0,2.874,0,5.747c0,.659.094.762.77.763,1.713,0,3.426.013,5.139-.009.44-.006.585.146.571.575-.025.791-.02,1.584,0,2.376.008.34-.119.451-.449.451q-4.559-.011-9.117,0c-.5,0-.5-.286-.5-.647q.008-5.609,0-11.218" transform="translate(-110.802 -2.695)" fill="#fff"/>
      </g>
    </g>
  </g>
</svg>
