<svg width="21" height="20" viewBox="0 0 21 20" fill="none" xmlns="http://www.w3.org/2000/svg">
<path d="M20.485 19.49V12.341C20.485 8.841 19.732 6.151 15.644 6.151C14.8766 6.12247 14.1157 6.30272 13.4427 6.67255C12.7696 7.04237 12.2095 7.58791 11.822 8.251H11.765V6.477H7.89401V19.489H11.93V13.046C11.93 11.346 12.252 9.709 14.352 9.709C16.422 9.709 16.452 11.645 16.452 13.155V19.49H20.485Z" fill="white"/>
<path d="M1.32599 6.478H5.36299V19.49H1.32599V6.478Z" fill="white"/>
<path d="M3.34 -4.89199e-06C2.87409 -0.00217978 2.41804 0.134131 2.02973 0.391624C1.64143 0.649116 1.3384 1.01618 1.15909 1.44621C0.97979 1.87625 0.932306 2.34986 1.02267 2.80694C1.11303 3.26401 1.33717 3.68392 1.66662 4.01338C1.99607 4.34283 2.41599 4.56697 2.87306 4.65733C3.33013 4.74769 3.80375 4.70021 4.23378 4.5209C4.66382 4.3416 5.03088 4.03856 5.28837 3.65026C5.54587 3.26196 5.68218 2.80591 5.68 2.33999C5.67974 1.71947 5.43312 1.12444 4.99434 0.685658C4.55556 0.24688 3.96053 0.00026012 3.34 -4.89199e-06V-4.89199e-06Z" fill="white"/>
</svg>
