<svg width="21" height="20" viewBox="0 0 21 20" fill="none" xmlns="http://www.w3.org/2000/svg">
<path d="M10.444 5.083C9.45887 5.083 8.49584 5.37513 7.67672 5.92245C6.8576 6.46977 6.21918 7.24769 5.84218 8.15785C5.46517 9.06801 5.36653 10.0695 5.55873 11.0357C5.75092 12.002 6.22531 12.8895 6.92192 13.5861C7.61853 14.2827 8.50605 14.7571 9.47227 14.9493C10.4385 15.1415 11.44 15.0428 12.3502 14.6658C13.2603 14.2888 14.0383 13.6504 14.5856 12.8313C15.1329 12.0122 15.425 11.0491 15.425 10.064C15.4261 9.40959 15.298 8.7614 15.048 8.1566C14.7981 7.55181 14.4312 7.00229 13.9685 6.53955C13.5057 6.07681 12.9562 5.70995 12.3514 5.46001C11.7466 5.21006 11.0984 5.08194 10.444 5.083V5.083ZM10.444 13.302C9.8036 13.302 9.17757 13.1121 8.64508 12.7563C8.1126 12.4005 7.69757 11.8948 7.4525 11.3031C7.20742 10.7115 7.1433 10.0604 7.26824 9.43229C7.39318 8.80418 7.70156 8.22723 8.15441 7.77438C8.60725 7.32154 9.18421 7.01315 9.81232 6.88821C10.4404 6.76328 11.0915 6.8274 11.6831 7.07247C12.2748 7.31755 12.7805 7.73257 13.1363 8.26506C13.4921 8.79755 13.682 9.42358 13.682 10.064C13.6804 10.9223 13.3388 11.745 12.7319 12.3519C12.125 12.9588 11.3023 13.3004 10.444 13.302V13.302ZM16.791 4.879C16.79 5.10869 16.721 5.33293 16.5926 5.52341C16.4642 5.71388 16.2823 5.86204 16.0698 5.94916C15.8573 6.03628 15.6237 6.05847 15.3985 6.01291C15.1734 5.96734 14.9668 5.85608 14.8049 5.69318C14.643 5.53027 14.533 5.32303 14.4888 5.09763C14.4445 4.87223 14.4681 4.63879 14.5565 4.42678C14.6449 4.21478 14.7942 4.03374 14.9854 3.90652C15.1767 3.77929 15.4013 3.7116 15.631 3.712C15.7839 3.71199 15.9353 3.74223 16.0764 3.80098C16.2175 3.85972 16.3457 3.94581 16.4534 4.05428C16.5611 4.16276 16.6463 4.29147 16.7041 4.43301C16.7619 4.57455 16.7911 4.72612 16.79 4.879H16.791ZM20.091 6.058C20.1232 4.54755 19.5596 3.08512 18.522 1.987C17.4217 0.952907 15.9607 0.389848 14.451 0.417997C12.851 0.326997 8.03902 0.326997 6.43502 0.417997C4.92535 0.387653 3.46377 0.949385 2.36302 1.983C1.32718 3.08223 0.763838 4.54391 0.794019 6.054C0.703019 7.654 0.703019 12.466 0.794019 14.07C0.76179 15.5804 1.32542 17.0429 2.36302 18.141C3.46303 19.1739 4.92229 19.7374 6.43102 19.712C8.03102 19.803 12.843 19.803 14.447 19.712C15.9575 19.7442 17.4199 19.1806 18.518 18.143C19.5521 17.0427 20.1152 15.5817 20.087 14.072C20.178 12.472 20.178 7.665 20.087 6.061L20.091 6.058ZM18.019 15.79C17.8541 16.208 17.6051 16.5876 17.2874 16.9053C16.9696 17.2231 16.59 17.4721 16.172 17.637C14.893 18.144 11.859 18.027 10.445 18.027C9.03102 18.027 5.99302 18.14 4.71802 17.637C4.30003 17.4721 3.92039 17.2231 3.60267 16.9053C3.28494 16.5876 3.03591 16.208 2.87102 15.79C2.36402 14.511 2.48102 11.477 2.48102 10.063C2.48102 8.649 2.36802 5.612 2.87102 4.337C3.03579 3.9191 3.28467 3.53953 3.60222 3.2218C3.91977 2.90408 4.29922 2.655 4.71702 2.49C5.99602 1.983 9.03002 2.1 10.444 2.1C11.858 2.1 14.896 1.987 16.171 2.49C16.589 2.65488 16.9686 2.90392 17.2864 3.22164C17.6041 3.53937 17.8531 3.91901 18.018 4.337C18.525 5.616 18.408 8.65 18.408 10.064C18.408 11.478 18.525 14.512 18.017 15.79H18.019Z" fill="white"/>
</svg>
