<svg xmlns="http://www.w3.org/2000/svg" width="60.227" height="42.515" viewBox="0 0 60.227 42.515">
  <g id="Group_19563" data-name="Group 19563" transform="translate(0)">
    <path id="Shape" d="M13.356,42.515a13.357,13.357,0,0,1-.775-26.691c.121-1.31.03-4.874-3.386-9.833a.941.941,0,0,1,.109-1.2c1.4-1.4,2.262-2.278,2.866-2.894.791-.805,1.153-1.173,1.681-1.652A.941.941,0,0,1,15.1.231a36.068,36.068,0,0,1,11.608,29C26.15,36.926,20.534,42.515,13.356,42.515Z" fill="#70bc56"/>
    <path id="Shape-2" data-name="Shape" d="M26.712,29.227h0c-.562,7.7-6.179,13.287-13.355,13.287a13.357,13.357,0,0,1-.774-26.691c.121-1.309.029-4.872-3.387-9.833a.941.941,0,0,1,.109-1.2C10.7,3.4,11.559,2.52,12.164,1.905c.795-.811,1.158-1.18,1.689-1.662A.941.941,0,0,1,15.1.232,36.07,36.07,0,0,1,26.712,29.227Z" transform="translate(33.422)" fill="#70bc56"/>
  </g>
</svg>
