<svg xmlns="http://www.w3.org/2000/svg" width="175.348" height="175.504" viewBox="0 0 175.348 175.504">
  <g id="Group_19466" data-name="Group 19466" transform="translate(-967.652 -5329.496)">
    <circle id="Ellipse_4" data-name="Ellipse 4" cx="87.5" cy="87.5" r="87.5" transform="translate(968 5330)" fill="#efffde"/>
    <g id="Group_19359" data-name="Group 19359" transform="translate(959.547 5392.656)">
      <g id="Group_19360" data-name="Group 19360" transform="translate(8.453)">
        <path id="Path_9035" data-name="Path 9035" d="M28.023,306.315c-4.038-2.6-5.287-.218-6.958-2.218s-.466-4.011-3.853-5.793a11.524,11.524,0,0,0-6.153-1.355,15.347,15.347,0,0,0,1.189,6.581c1.514,3.515,3.391,2.05,5.256,3.87s-.611,2.882,1.674,7.109S31.4,318.793,31.4,318.793s.657-9.874-3.381-12.478" transform="translate(-11.041 -220.067)" fill="#c1eab2"/>
        <line id="Line_3" data-name="Line 3" x2="20.345" y2="21.844" transform="translate(0.018 76.882)" fill="none" stroke="#fff" stroke-miterlimit="10" stroke-width="1"/>
        <path id="Path_9036" data-name="Path 9036" d="M48.068,346.613l7.088-1.3,1.594-7.24" transform="translate(-38.484 -250.567)" fill="none" stroke="#fff" stroke-miterlimit="10" stroke-width="1"/>
        <path id="Path_9037" data-name="Path 9037" d="M38.672,334.982l5.179-1.593,1.537-5.085" transform="translate(-31.52 -243.328)" fill="none" stroke="#fff" stroke-miterlimit="10" stroke-width="1"/>
        <path id="Path_9038" data-name="Path 9038" d="M34.769,326.289l2.759-.691.774-2.812" transform="translate(-28.627 -239.238)" fill="none" stroke="#fff" stroke-miterlimit="10" stroke-width="1"/>
        <path id="Path_9039" data-name="Path 9039" d="M19.027,311.571,23.4,310.34l1.078-4.558" transform="translate(-16.96 -226.636)" fill="none" stroke="#fff" stroke-miterlimit="10" stroke-width="1"/>
        <path id="Path_9040" data-name="Path 9040" d="M13.437,303.846l3.108-1.042.835-3.243" transform="translate(-12.817 -222.026)" fill="none" stroke="#fff" stroke-miterlimit="10" stroke-width="1"/>
        <path id="Path_9041" data-name="Path 9041" d="M578.883,313.128c4.038-2.6,5.287-.218,6.958-2.218s.466-4.011,3.853-5.793a11.524,11.524,0,0,1,6.153-1.355,15.346,15.346,0,0,1-1.189,6.581c-1.514,3.515-3.391,2.05-5.256,3.87s.61,2.882-1.674,7.109-12.225,4.284-12.225,4.284-.657-9.874,3.381-12.478" transform="translate(-429.372 -225.117)" fill="#d1fac2"/>
        <line id="Line_4" data-name="Line 4" x1="20.345" y2="21.844" transform="translate(146.13 78.645)" fill="none" stroke="#fff" stroke-miterlimit="10" stroke-width="1"/>
        <path id="Path_9042" data-name="Path 9042" d="M592.4,353.425l-7.088-1.3-1.594-7.24" transform="translate(-435.489 -255.616)" fill="none" stroke="#fff" stroke-miterlimit="10" stroke-width="1"/>
        <path id="Path_9043" data-name="Path 9043" d="M607.424,341.794l-5.18-1.593-1.537-5.085" transform="translate(-448.083 -248.378)" fill="none" stroke="#fff" stroke-miterlimit="10" stroke-width="1"/>
        <path id="Path_9044" data-name="Path 9044" d="M620.442,333.1l-2.759-.691-.774-2.812" transform="translate(-460.091 -244.287)" fill="none" stroke="#fff" stroke-miterlimit="10" stroke-width="1"/>
        <path id="Path_9045" data-name="Path 9045" d="M630.7,318.383l-4.372-1.231-1.078-4.558" transform="translate(-466.27 -231.685)" fill="none" stroke="#fff" stroke-miterlimit="10" stroke-width="1"/>
        <path id="Path_9046" data-name="Path 9046" d="M640.6,310.658l-3.108-1.042-.835-3.243" transform="translate(-474.728 -227.075)" fill="none" stroke="#fff" stroke-miterlimit="10" stroke-width="1"/>
        <path id="Path_9047" data-name="Path 9047" d="M226.29,147.625H115.084a2.556,2.556,0,0,1-2.556-2.556V67.833a2.555,2.555,0,0,1,2.556-2.555H226.29a2.556,2.556,0,0,1,2.556,2.555v77.235a2.556,2.556,0,0,1-2.556,2.556" transform="translate(-86.26 -48.382)" fill="#d1fac2"/>
        <path id="Path_9048" data-name="Path 9048" d="M228.846,62.339H112.528V59.728a4.825,4.825,0,0,1,4.825-4.825H224.021a4.825,4.825,0,0,1,4.825,4.825Z" transform="translate(-86.26 -40.692)" fill="#d1fac2"/>
        <path id="Path_9049" data-name="Path 9049" d="M172.953,130.8H141.041a2.108,2.108,0,0,1-2.108-2.108V111.271a2.108,2.108,0,0,1,2.108-2.107h31.913a2.108,2.108,0,0,1,2.108,2.107v17.422a2.108,2.108,0,0,1-2.108,2.108" transform="translate(-105.83 -80.909)" fill="#fff"/>
        <path id="Path_9050" data-name="Path 9050" d="M176.091,204.84h-32.9a1.22,1.22,0,0,1,0-2.44h32.9a1.22,1.22,0,1,1,0,2.44" transform="translate(-108.08 -150.012)" fill="#fff"/>
        <path id="Path_9051" data-name="Path 9051" d="M176.091,224.631h-32.9a1.22,1.22,0,0,1,0-2.44h32.9a1.22,1.22,0,1,1,0,2.44" transform="translate(-108.08 -164.681)" fill="#fff"/>
        <path id="Path_9052" data-name="Path 9052" d="M450.361,165.347H423.333a1.579,1.579,0,0,1-1.579-1.579V112.228a1.579,1.579,0,0,1,1.579-1.579h27.028a1.579,1.579,0,0,1,1.579,1.579v51.541a1.579,1.579,0,0,1-1.579,1.579" transform="translate(-315.448 -82.009)" fill="#fff"/>
        <path id="Path_9053" data-name="Path 9053" d="M488.83,64.655a1.777,1.777,0,1,1-1.777-1.777,1.777,1.777,0,0,1,1.777,1.777" transform="translate(-362.529 -46.603)" fill="#fff"/>
        <path id="Path_9054" data-name="Path 9054" d="M509.845,64.655a1.777,1.777,0,1,1-1.777-1.777,1.777,1.777,0,0,1,1.777,1.777" transform="translate(-378.104 -46.603)" fill="#fff"/>
        <path id="Path_9055" data-name="Path 9055" d="M530.86,64.655a1.777,1.777,0,1,1-1.777-1.777,1.777,1.777,0,0,1,1.777,1.777" transform="translate(-393.68 -46.603)" fill="#fff"/>
        <path id="Path_9056" data-name="Path 9056" d="M179.654,136.352H149.2l6.939-4.6,3.086,1.661a.241.241,0,0,0,.254-.016l6.566-4.663,3.885,2.133a.241.241,0,0,0,.251-.011l7.976-5.373a.241.241,0,0,0-.269-.4l-7.855,5.291-3.888-2.135a.241.241,0,0,0-.255.015l-6.567,4.664-3.081-1.659a.242.242,0,0,0-.247.011l-7.065,4.688V119.979a.241.241,0,0,0-.482,0v16.855h31.2a.241.241,0,0,0,0-.482" transform="translate(-112.883 -88.746)" fill="#e0ffdd"/>
        <path id="Path_9057" data-name="Path 9057" d="M148.3,118.091a.581.581,0,1,1-.581-.581.581.581,0,0,1,.581.581" transform="translate(-111.909 -87.095)" fill="#d1fac2"/>
        <path id="Path_9058" data-name="Path 9058" d="M268.272,183.192a.581.581,0,1,1-.581-.581.581.581,0,0,1,.581.581" transform="translate(-200.831 -135.345)" fill="#b5c0ff"/>
        <path id="Path_9059" data-name="Path 9059" d="M177.363,163.62a.595.595,0,1,1-.595-.595.595.595,0,0,1,.595.595" transform="translate(-133.432 -120.829)" fill="#d1fac2"/>
        <path id="Path_9060" data-name="Path 9060" d="M215.369,152.149a.594.594,0,1,1-.594-.595.595.595,0,0,1,.594.595" transform="translate(-161.601 -112.327)" fill="#b5c0ff"/>
        <path id="Path_9061" data-name="Path 9061" d="M189.434,170.014a.594.594,0,1,1-.595-.595.595.595,0,0,1,.595.595" transform="translate(-142.379 -125.568)" fill="#b5c0ff"/>
        <path id="Path_9062" data-name="Path 9062" d="M230.831,159.832a.594.594,0,1,1-.595-.595.595.595,0,0,1,.595.595" transform="translate(-173.061 -118.021)" fill="#b5c0ff"/>
        <path id="Path_9063" data-name="Path 9063" d="M261.6,139.445a.594.594,0,1,1-.595-.595.595.595,0,0,1,.595.595" transform="translate(-195.87 -102.911)" fill="#b5c0ff"/>
        <path id="Path_9064" data-name="Path 9064" d="M561.268,272.856c-.179-2.282-1.488-3.738-.076-5.526a5.369,5.369,0,0,0,.178-6.766l0-.013-.012,0-.005-.007,0,.009a5.369,5.369,0,0,0-3.993,5.465c.026,2.279-1.9,2.631-3.436,4.329s-1.2,3.285-.8,6.819-2.212,3.913-2.6,7.367c-.276,2.45.534,5.836.712,5.729.075.192,2.783-1.99,4.062-4.1,1.8-2.972-.03-4.863,2.441-7.421s3.709-3.607,3.531-5.889" transform="translate(-410.845 -193.11)" fill="#c1eab2"/>
        <path id="Path_9065" data-name="Path 9065" d="M574.113,294.3c.115-2.167-.936-3.7.613-5.2a5.09,5.09,0,0,0,1-6.337l.006-.012h-.011l0-.007,0,.008a5.091,5.091,0,0,0-4.43,4.643c-.258,2.145-2.112,2.238-3.766,3.644s-1.531,2.939-1.6,6.311-2.563,3.4-3.357,6.6c-.563,2.269-.22,5.552-.04,5.473.047.189,2.862-1.526,4.325-3.351,2.062-2.571.574-4.575,3.213-6.674s3.933-2.931,4.048-5.1" transform="translate(-419.584 -209.561)" fill="#c1eab2"/>
        <path id="Path_9066" data-name="Path 9066" d="M71.8,272.856c.179-2.282,1.488-3.738.076-5.526a5.369,5.369,0,0,1-.178-6.766l0-.013.012,0,.005-.007,0,.009a5.368,5.368,0,0,1,3.992,5.465c-.026,2.279,1.9,2.631,3.436,4.329s1.2,3.285.8,6.819,2.212,3.913,2.6,7.367c.276,2.45-.534,5.836-.712,5.729-.075.192-2.783-1.99-4.062-4.1-1.8-2.972.03-4.863-2.441-7.421s-3.709-3.607-3.531-5.889" transform="translate(-55.169 -193.11)" fill="#c1eab2"/>
        <path id="Path_9067" data-name="Path 9067" d="M52.782,294.3c-.115-2.167.936-3.7-.613-5.2a5.09,5.09,0,0,1-1-6.337l-.006-.012h.011l0-.007,0,.008a5.09,5.09,0,0,1,4.43,4.643c.258,2.145,2.112,2.238,3.766,3.644s1.531,2.939,1.6,6.311,2.563,3.4,3.357,6.6c.563,2.269.22,5.552.04,5.473-.047.189-2.863-1.526-4.325-3.351-2.062-2.571-.574-4.575-3.213-6.674s-3.933-2.931-4.048-5.1" transform="translate(-40.252 -209.561)" fill="#c1eab2"/>
        <path id="Path_9068" data-name="Path 9068" d="M41.354,354.885H90.32s-.516-3.821-6.507-5.68c-5.3-1.644-10.431,1.756-10.431,1.756a17.419,17.419,0,0,0-14.356-7.643c-14.149,0-17.673,11.567-17.673,11.567" transform="translate(-33.508 -254.456)" fill="#b5dea5"/>
        <line id="Line_5" data-name="Line 5" x2="7.092" y2="6.093" transform="translate(13.608 94.336)" fill="none" stroke="#fff" stroke-miterlimit="10" stroke-width="1"/>
        <line id="Line_6" data-name="Line 6" x2="2.306" y2="9.261" transform="translate(21.285 91.168)" fill="none" stroke="#fff" stroke-miterlimit="10" stroke-width="1"/>
        <line id="Line_7" data-name="Line 7" x1="2.479" y2="8.331" transform="translate(26.759 92.098)" fill="none" stroke="#fff" stroke-miterlimit="10" stroke-width="1"/>
        <line id="Line_8" data-name="Line 8" x1="3.924" y2="4.407" transform="translate(30.649 96.022)" fill="none" stroke="#fff" stroke-miterlimit="10" stroke-width="1"/>
        <line id="Line_9" data-name="Line 9" x2="2.634" y2="3.047" transform="translate(42.921 97.382)" fill="none" stroke="#fff" stroke-miterlimit="10" stroke-width="1"/>
        <line id="Line_10" data-name="Line 10" y2="4.63" transform="translate(47.827 95.799)" fill="none" stroke="#fff" stroke-miterlimit="10" stroke-width="1"/>
        <line id="Line_11" data-name="Line 11" x1="2.272" y2="2.685" transform="translate(50.358 97.744)" fill="none" stroke="#fff" stroke-miterlimit="10" stroke-width="1"/>
        <path id="Path_9069" data-name="Path 9069" d="M404.418,354.885h48.966s-.516-3.821-6.507-5.68c-5.3-1.644-10.431,1.756-10.431,1.756a17.419,17.419,0,0,0-14.356-7.643c-14.149,0-17.673,11.567-17.673,11.567" transform="translate(-302.599 -254.456)" fill="#b5dea5"/>
        <line id="Line_12" data-name="Line 12" x2="7.092" y2="6.093" transform="translate(107.581 94.336)" fill="none" stroke="#fff" stroke-miterlimit="10" stroke-width="1"/>
        <line id="Line_13" data-name="Line 13" x2="2.306" y2="9.261" transform="translate(115.258 91.168)" fill="none" stroke="#fff" stroke-miterlimit="10" stroke-width="1"/>
        <line id="Line_14" data-name="Line 14" x1="2.479" y2="8.331" transform="translate(120.731 92.098)" fill="none" stroke="#fff" stroke-miterlimit="10" stroke-width="1"/>
        <line id="Line_15" data-name="Line 15" x1="3.925" y2="4.407" transform="translate(124.621 96.022)" fill="none" stroke="#fff" stroke-miterlimit="10" stroke-width="1"/>
        <line id="Line_16" data-name="Line 16" x2="2.634" y2="3.047" transform="translate(136.894 97.382)" fill="none" stroke="#fff" stroke-miterlimit="10" stroke-width="1"/>
        <line id="Line_17" data-name="Line 17" y2="4.63" transform="translate(141.8 95.799)" fill="none" stroke="#fff" stroke-miterlimit="10" stroke-width="1"/>
        <line id="Line_18" data-name="Line 18" x1="2.272" y2="2.685" transform="translate(144.33 97.744)" fill="none" stroke="#fff" stroke-miterlimit="10" stroke-width="1"/>
        <path id="Path_9070" data-name="Path 9070" d="M186.42,264.653c-3.9-5.814-6.95-3.342-8.033-6.982s1.69-5.637-1.816-9.974a16.79,16.79,0,0,0-7.453-5.362,22.365,22.365,0,0,0-2.2,9.493c0,5.577,3.357,4.7,4.8,8.21s-2.479,3.5-1.859,10.479S183.749,283.3,183.749,283.3s6.574-12.835,2.671-18.649" transform="translate(-126.57 -179.611)" fill="#b5dea5"/>
        <line id="Line_19" data-name="Line 19" x2="14.631" y2="40.967" transform="translate(42.549 62.724)" fill="none" stroke="#fff" stroke-miterlimit="10" stroke-width="1"/>
        <path id="Path_9071" data-name="Path 9071" d="M182.191,344.338l10.237,2.344,6.309-8.77" transform="translate(-137.891 -250.449)" fill="none" stroke="#fff" stroke-miterlimit="10" stroke-width="1"/>
        <path id="Path_9072" data-name="Path 9072" d="M179.4,320.108l7.85.855,4.989-5.919" transform="translate(-135.825 -233.501)" fill="none" stroke="#fff" stroke-miterlimit="10" stroke-width="1"/>
        <path id="Path_9073" data-name="Path 9073" d="M184.434,300.967l4.091.666,2.658-3.317" transform="translate(-139.554 -221.102)" fill="none" stroke="#fff" stroke-miterlimit="10" stroke-width="1"/>
        <path id="Path_9074" data-name="Path 9074" d="M168.08,275.355l6.561.874,4.07-5.478" transform="translate(-127.433 -200.672)" fill="none" stroke="#fff" stroke-miterlimit="10" stroke-width="1"/>
        <path id="Path_9075" data-name="Path 9075" d="M167.539,259.306l4.76.4,2.987-3.858" transform="translate(-127.032 -189.625)" fill="none" stroke="#fff" stroke-miterlimit="10" stroke-width="1"/>
        <path id="Path_9077" data-name="Path 9077" d="M295.915,372.765H251.579v-2.7a1.923,1.923,0,0,1,1.923-1.923h40.491a1.923,1.923,0,0,1,1.923,1.923Z" transform="translate(-189.32 -272.858)" fill="#aee898"/>
        <path id="Path_9078" data-name="Path 9078" d="M287.41,390.427h-57.3v-3.513a.924.924,0,0,1,.924-.924h55.453a.924.924,0,0,1,.924.924Z" transform="translate(-173.407 -286.083)" fill="#b5dea5"/>
        <path id="Path_9101" data-name="Path 9101" d="M51.031,104.327v-2.461l-1.854-.374a5.142,5.142,0,0,0-.232-.588l1.181-1.515-1.608-1.863-1.769,1a5.19,5.19,0,0,0-.919-.4l-.408-2.052H42.961l-.414,2.051a5.2,5.2,0,0,0-.879.38L39.7,97.39l-1.608,1.863,1.318,1.69c-.054.12-.1.244-.148.368l-2.075.419v2.461l1.976.393a5.242,5.242,0,0,0,.231.628l-1.38,1.77,1.608,1.863,2.047-1.154a5.228,5.228,0,0,0,.583.27l.466,2.343h2.461l.438-2.173a5.184,5.184,0,0,0,.787-.3l2.033,1.146,1.608-1.863-1.229-1.576a5.2,5.2,0,0,0,.357-.846Zm-6.843,1.438a2.673,2.673,0,1,1,2.673-2.673,2.673,2.673,0,0,1-2.673,2.673" transform="translate(-30.422 -71.202)" fill="#c1eab2"/>
        <path id="Path_9102" data-name="Path 9102" d="M49.475,190.322v-1.259l-.948-.191a2.634,2.634,0,0,0-.119-.3l.6-.775-.823-.953-.9.51a2.649,2.649,0,0,0-.47-.207l-.209-1.05H45.347l-.212,1.049a2.659,2.659,0,0,0-.45.194l-1.006-.567-.823.953.674.864c-.028.062-.052.125-.076.189l-1.061.214v1.259l1.011.2a2.672,2.672,0,0,0,.119.321l-.706.905.823.953,1.047-.59a2.706,2.706,0,0,0,.3.138l.238,1.2h1.259l.224-1.112a2.659,2.659,0,0,0,.4-.151l1.04.586.823-.953-.629-.806a2.692,2.692,0,0,0,.182-.433Zm-3.5.736a1.367,1.367,0,1,1,1.367-1.367,1.367,1.367,0,0,1-1.367,1.367" transform="translate(-34.279 -137.929)" fill="#c1eab2"/>
        <path id="Path_9103" data-name="Path 9103" d="M597.82,110.585v-1.259l-.948-.191a2.643,2.643,0,0,0-.119-.3l.6-.775-.823-.953-.9.51a2.652,2.652,0,0,0-.47-.207l-.209-1.05h-1.259l-.212,1.049a2.663,2.663,0,0,0-.45.194l-1.006-.567-.823.953.674.865c-.028.062-.052.125-.076.189l-1.061.214v1.259l1.011.2a2.662,2.662,0,0,0,.119.321l-.706.905.823.953,1.047-.59a2.706,2.706,0,0,0,.3.138l.238,1.2h1.259l.224-1.112a2.653,2.653,0,0,0,.4-.151l1.04.586.823-.953-.629-.806a2.689,2.689,0,0,0,.183-.433Zm-3.5.736a1.367,1.367,0,1,1,1.367-1.367,1.367,1.367,0,0,1-1.367,1.367" transform="translate(-440.694 -78.831)" fill="#c1eab2"/>
        <path id="Path_9104" data-name="Path 9104" d="M610.663,162.038v-2.013l-1.516-.306a4.221,4.221,0,0,0-.19-.481l.966-1.239-1.315-1.523-1.447.815a4.268,4.268,0,0,0-.752-.331l-.334-1.678h-2.013l-.338,1.678a4.269,4.269,0,0,0-.719.311l-1.608-.906-1.315,1.523,1.078,1.382c-.044.1-.084.2-.121.3l-1.7.342v2.012l1.616.321a4.268,4.268,0,0,0,.189.513l-1.129,1.448,1.315,1.523,1.675-.944a4.268,4.268,0,0,0,.477.221l.381,1.916h2.013l.359-1.778a4.24,4.24,0,0,0,.644-.242l1.663.937,1.315-1.523-1.005-1.289a4.261,4.261,0,0,0,.292-.691Zm-5.6,1.177a2.186,2.186,0,1,1,2.186-2.186,2.186,2.186,0,0,1-2.186,2.186" transform="translate(-450.311 -115.09)" fill="#c1eab2"/>
        <path id="Path_9105" data-name="Path 9105" d="M205.732,42.388a9.553,9.553,0,1,1-9.553-9.553,9.553,9.553,0,0,1,9.553,9.553" transform="translate(-141.179 -24.336)" fill="#fff"/>
        <path id="Path_9106" data-name="Path 9106" d="M205.877,42.388a9.553,9.553,0,0,1-9.553,9.553c-12.672-.5-12.668-18.605,0-19.107A9.553,9.553,0,0,1,205.877,42.388Z" transform="translate(-141.323 -24.336)" fill="none" stroke="#c8e5bd" stroke-linecap="round" stroke-linejoin="round" stroke-width="1" stroke-dasharray="8.917 8.917"/>
        <path id="Path_9107" data-name="Path 9107" d="M444.68,123.043a6.931,6.931,0,0,1-6.931,6.931c-9.194-.365-9.192-13.5,0-13.863A6.931,6.931,0,0,1,444.68,123.043Z" transform="translate(-322.193 -86.058)" fill="none" stroke="#d1fac2" stroke-linecap="round" stroke-linejoin="round" stroke-width="1" stroke-dasharray="9.345 9.345"/>
        <path id="Path_9108" data-name="Path 9108" d="M454.094,155.918h0a1.186,1.186,0,0,1-1.186-1.186v-1.417h2.373v1.417a1.186,1.186,0,0,1-1.186,1.186" transform="translate(-338.538 -113.631)" fill="#c1eab2"/>
        <path id="Path_9109" data-name="Path 9109" d="M450.79,127.163a3.591,3.591,0,0,1-1.661,3.028v.182a1.367,1.367,0,0,1-.11.544,1.4,1.4,0,0,1-1.288.855h-1.074a1.4,1.4,0,0,1-1.4-1.4v-.182a3.6,3.6,0,1,1,5.532-3.028" transform="translate(-331.637 -91.584)" fill="#d1fac2"/>
        <path id="Path_9110" data-name="Path 9110" d="M462.288,128.048a2.01,2.01,0,0,1,1.48,2.21c-.169,1.817-2.323-2.323-1.48-2.21" transform="translate(-345.346 -94.903)" fill="#fff"/>
        <path id="Path_9111" data-name="Path 9111" d="M453.944,145.645l.918-2.754.936,2.754" transform="translate(-339.306 -105.907)" fill="none" stroke="#c1eab2" stroke-miterlimit="10" stroke-width="1"/>
        <path id="Path_9112" data-name="Path 9112" d="M208.391,55.749V44.076a1.163,1.163,0,0,1,1.163-1.163h5.816a1.163,1.163,0,0,1,1.163,1.163V55.749a1.163,1.163,0,0,1-1.163,1.163h-5.816a1.163,1.163,0,0,1-1.163-1.163" transform="translate(-157.31 -31.806)" fill="#bdeaac"/>
        <path id="Path_9113" data-name="Path 9113" d="M217.937,47.136v11.01a.524.524,0,0,1-.523.523h-5.589a.523.523,0,0,1-.523-.523V47.136a.523.523,0,0,1,.523-.523h5.589a.523.523,0,0,1,.523.523" transform="translate(-159.468 -34.548)" fill="#eeffed"/>
        <path id="Path_9114" data-name="Path 9114" d="M221.477,45.97h-1.371a.344.344,0,0,1-.344-.344v0a.344.344,0,0,1,.344-.344h1.371a.344.344,0,0,1,.344.344v0a.344.344,0,0,1-.344.344" transform="translate(-165.738 -33.559)" fill="#a0d88a"/>
        <path id="Path_9115" data-name="Path 9115" d="M221.03,62.525a2.288,2.288,0,1,1-2.288-2.288,2.288,2.288,0,0,1,2.288,2.288" transform="translate(-163.287 -44.646)" fill="#fff"/>
        <path id="Path_9116" data-name="Path 9116" d="M212.938,63.2l4.8-3.735-.442,5.321-1.887-1.626Z" transform="translate(-160.68 -44.074)" fill="#ade599"/>
        <path id="Path_9117" data-name="Path 9117" d="M220.811,63.16l2.329-3.695-2.912,3.7Z" transform="translate(-166.084 -44.074)" fill="#87c370"/>
        <path id="Path_9118" data-name="Path 9118" d="M220.229,73.748l.512,1.275.57-.853-.5-.431Z" transform="translate(-166.084 -54.653)" fill="#87c370"/>
        <path id="Path_9168" data-name="Path 9168" d="M472.772,198.986a6.765,6.765,0,0,1-6.764,6.764v3.735a.6.6,0,0,1-.6.6H443.813a.6.6,0,0,1-.6-.6v-3.807a6.665,6.665,0,0,0,.986.072,6.764,6.764,0,1,0,0-13.529,7,7,0,0,0-.986.072v-4.405a.6.6,0,0,1,.6-.6h4.709a6.6,6.6,0,0,1-.06-.88,6.764,6.764,0,1,1,13.529,0,7.025,7.025,0,0,1-.058.88h3.475a.6.6,0,0,1,.6.6v4.333a6.715,6.715,0,0,1,3.22.815,6.593,6.593,0,0,1,1.087.732,6.753,6.753,0,0,1,2.458,5.217" transform="translate(-331.353 -133.147)" fill="#c1eab2"/>
        <path id="Path_9169" data-name="Path 9169" d="M471.5,241.278a6.756,6.756,0,0,1-5.494,2.819v3.735a.6.6,0,0,1-.6.6H443.812a.6.6,0,0,1-.6-.6V245.21c3.557-.453,13.864-2.137,20.435-7.01a15.281,15.281,0,0,0,5.579-6.817,6.585,6.585,0,0,1,1.087.733Z" transform="translate(-331.352 -171.494)" fill="#d1fac2"/>
      </g>
      <g id="Group_19361" data-name="Group 19361" transform="matrix(0.934, 0.358, -0.358, 0.934, 40.687, -92.028)">
        <path id="Path_9076" data-name="Path 9076" d="M304.124,333.941l1.7,5.584h21.906l1.511-5.054Z" transform="translate(-219.768 -200.922)" fill="#43842d"/>
        <path id="Path_9079" data-name="Path 9079" d="M322.983,50.346a49.149,49.149,0,0,0-.946-7.536c-4.851-23.5-25.578-33.329-25.641-33.255a.977.977,0,0,0-.119.045c-1.569.682-21.11,10.762-25.608,33.633a49.425,49.425,0,0,0-.86,7.113c-.608,12.557,1.131,29.8,3.393,45.786,3.267,23.042,7.625,43.468,7.625,43.468h31.134s4.35-20.39,7.617-43.409c2.27-16,4.013-33.274,3.4-45.846m-10.651-6.2a48.214,48.214,0,0,0-.835-4.766c2.006.467,3.857.994,5.53,1.543,1.988,11.334-2.9,17.879-4.7,3.223" transform="translate(-199.048 -5.749)" fill="#abea8a"/>
        <path id="Path_9080" data-name="Path 9080" d="M323.522,42.81c-1.435-.616-3.111-1.265-5.01-1.888-1.673-.549-3.523-1.076-5.53-1.543a67.059,67.059,0,0,0-15.1-1.713,62.95,62.95,0,0,0-16.029,2.017,53.036,53.036,0,0,0-9.7,3.549c4.5-22.871,24.039-32.951,25.608-33.633a1.218,1.218,0,0,1,.119-.045c.063-.074,20.79,9.758,25.641,33.255" transform="translate(-200.532 -5.748)" fill="#63aa4a"/>
        <path id="Path_9081" data-name="Path 9081" d="M323.308,136.944a16.283,16.283,0,1,1-16.28-16.276,16.194,16.194,0,0,1,16.28,16.276" transform="translate(-211.72 -72.602)" fill="#afe5a5"/>
        <path id="Path_9082" data-name="Path 9082" d="M337.667,223.72c-3.267,23.019-7.617,43.409-7.617,43.409H305.5c-.864-5.919-3.59-25.044-5.752-44.878a136.65,136.65,0,0,1,14.734-.738,125.523,125.523,0,0,1,14.868.805l-3.089,30.625s3.086-.953,4.521-6.357c.935-3.508,2.385-14.623,3.267-23.59,1.417.245,2.622.493,3.616.723" transform="translate(-217.136 -133.277)" fill="#70bc56"/>
        <path id="Path_9083" data-name="Path 9083" d="M328.815,134.938a15.527,15.527,0,1,1-15.524-15.521,15.443,15.443,0,0,1,15.524,15.521" transform="translate(-215.943 -71.849)" fill="#43842d"/>
        <path id="Path_9084" data-name="Path 9084" d="M332.657,141.711a11.015,11.015,0,0,1-3.5,8.07,47.732,47.732,0,0,1-8.816-4.892,40.039,40.039,0,0,1-8.726-7.832,11.038,11.038,0,0,1,21.046,4.654" transform="translate(-224.272 -78.623)" fill="#fff"/>
        <path id="Path_9085" data-name="Path 9085" d="M255.1,282.971c-1.591,4.981.753,15.917.753,15.917h-4.673s-1.71-3.653-3.546-8.6c-3.148-8.489-6.664-20.791-2.548-25.007a147.414,147.414,0,0,1,13.759-12.238l.612,3.471,1.213,6.872,2.385,13.525s-6.364,1.083-7.955,6.063" transform="translate(-183.122 -152.245)" fill="#70bc56"/>
        <path id="Path_9086" data-name="Path 9086" d="M398.4,282.993V283a123.414,123.414,0,0,1-5.963,15.884H387.76s2.344-10.937.753-15.917-7.959-6.063-7.959-6.063l3.82-21.643.393-2.225a147.431,147.431,0,0,1,13.759,12.238c3.03,3.1,1.925,10.592-.13,17.716" transform="translate(-265.753 -152.245)" fill="#70bc56"/>
        <path id="Path_9087" data-name="Path 9087" d="M281.662,140.231a65.372,65.372,0,0,0-8.459,1.409c-2.262-15.984-4-33.229-3.393-45.786a49.424,49.424,0,0,1,.86-7.113,53.011,53.011,0,0,1,9.7-3.549,58.055,58.055,0,0,0-1.387,8.967c-.735,9.906.745,28.274,2.681,46.072" transform="translate(-199.048 -51.257)" fill="#7fde5e"/>
        <path id="Path_9088" data-name="Path 9088" d="M297.881,9.555a69.535,69.535,0,0,0-16.028,30.129,53.013,53.013,0,0,0-9.7,3.549c4.5-22.871,24.039-32.951,25.608-33.633a1.043,1.043,0,0,1,.119-.045" transform="translate(-200.532 -5.749)" fill="#84d069"/>
        <path id="Path_9089" data-name="Path 9089" d="M364.009,51.728c-1.673-.549-3.523-1.075-5.53-1.543a61.444,61.444,0,0,0-10.706-22.671c7.717,5.3,13.021,10.722,15.78,22.033.182.742.334,1.472.456,2.18" transform="translate(-246.03 -16.555)" fill="#fff"/>
        <path id="Path_9090" data-name="Path 9090" d="M264.826,298.594c-1.591,4.981.753,15.917.753,15.917h-2.767c-1.428-3.4-4.524-12.042-3.033-19.982,1.513-8.037,7.974-13.559,10.618-15.524l2.385,13.525s-6.364,1.083-7.955,6.063" transform="translate(-192.848 -167.868)" fill="#7fde5e"/>
        <path id="Path_9091" data-name="Path 9091" d="M388.513,298.594c1.591,4.981-.753,15.917-.753,15.917h2.767c1.428-3.4,4.524-12.042,3.033-19.982-1.513-8.037-7.973-13.559-10.618-15.524l-2.385,13.525s6.364,1.083,7.955,6.063" transform="translate(-265.756 -167.868)" fill="#7fde5e"/>
        <path id="Path_9092" data-name="Path 9092" d="M288.954,240.281c-.668-5.368-1.349-11.111-1.982-16.914a65.276,65.276,0,0,0-8.459,1.409c3.267,23.042,7.625,43.468,7.625,43.468h31.134l1.321-6.507-.416.076a25.014,25.014,0,0,1-29.222-21.533" transform="translate(-204.358 -134.392)" fill="#7fde5e"/>
        <path id="Path_9093" data-name="Path 9093" d="M327.6,159.42A11.038,11.038,0,0,1,310.054,146.7a40.027,40.027,0,0,0,8.726,7.833,47.737,47.737,0,0,0,8.815,4.892" transform="translate(-222.715 -88.262)" fill="#e4ffd6"/>
        <path id="Path_9094" data-name="Path 9094" d="M325.5,154.475a15.525,15.525,0,0,1-24.9-18.532,20.864,20.864,0,0,0,2.685,4.283,10.924,10.924,0,0,0-1.031,4.654,11.039,11.039,0,0,0,18.573,8.07,30.031,30.031,0,0,0,4.673,1.524" transform="translate(-215.943 -81.792)" fill="#54a738"/>
        <path id="Path_9095" data-name="Path 9095" d="M374.1,224.213c-.883,8.967-2.333,20.082-3.267,23.59-1.435,5.4-4.521,6.357-4.521,6.357l3.089-30.626c1.769.208,3.334.441,4.7.679" transform="translate(-257.183 -134.493)" fill="#fff"/>
        <path id="Path_9096" data-name="Path 9096" d="M378.764,202.882c-1.365-.237-2.93-.471-4.7-.679l.657-6.527c.742-8.8,4.754-9.75,4.817-3.9.022,2.051-.293,6.267-.775,11.107" transform="translate(-261.849 -113.162)" fill="#fff"/>
        <path id="Path_9097" data-name="Path 9097" d="M332.8,3.311l-.183-1.5a.969.969,0,1,0-.97-.015l-.2,1.487-2.539,2.234s.459.984,2.9,1.117a4.88,4.88,0,0,0,3.575-.969Z" transform="translate(-234.679)" fill="#4dc45a"/>
        <path id="Path_9100" data-name="Path 9100" d="M375.485,89.195a48.186,48.186,0,0,0-.834-4.766c2.006.467,3.857.994,5.53,1.543,1.988,11.334-2.9,17.879-4.7,3.223" transform="translate(-262.202 -50.798)" fill="#fff"/>
      </g>
    </g>
  </g>
</svg>
