<svg xmlns="http://www.w3.org/2000/svg" xmlns:xlink="http://www.w3.org/1999/xlink" width="161" height="161" viewBox="0 0 161 161">
  <defs>
    <clipPath id="clip-path">
      <rect id="Rectangle_9" data-name="Rectangle 9" width="27.815" height="9.68" fill="none"/>
    </clipPath>
    <clipPath id="clip-path-2">
      <rect id="Rectangle_10" data-name="Rectangle 10" width="18.883" height="7.663" fill="none"/>
    </clipPath>
    <clipPath id="clip-path-3">
      <rect id="Rectangle_11" data-name="Rectangle 11" width="12.693" height="5.151" fill="none"/>
    </clipPath>
  </defs>
  <g id="Group_19557" data-name="Group 19557" transform="translate(-365 -2011)">
    <g id="Ellipse_3" data-name="Ellipse 3" transform="translate(365 2011)" fill="#f9fff2" stroke="#aceb97" stroke-width="2">
      <circle cx="80.5" cy="80.5" r="80.5" stroke="none"/>
      <circle cx="80.5" cy="80.5" r="79.5" fill="none"/>
    </g>
    <g id="Group_45" data-name="Group 45" transform="translate(365 2039.382)">
      <g id="Group_46" data-name="Group 46" transform="translate(0 0)">
        <g id="Group_43" data-name="Group 43">
          <g id="Group_48" data-name="Group 48" transform="translate(0 0)">
            <path id="Path_25" data-name="Path 25" d="M149.058,1110.28c0,4.7-33.368,8.5-74.529,8.5S0,1114.975,0,1110.28s33.368-8.5,74.529-8.5,74.529,3.806,74.529,8.5" transform="translate(0 -986.164)" fill="#70bc56"/>
            <path id="Path_77" data-name="Path 77" d="M486.937,470.372l-2.8-4.644a1.534,1.534,0,0,0-1.861-.64l-5.034,1.925,5.187-3.046a.967.967,0,0,0,.426-1.146l-.992-2.908,1.832,2.4a1.409,1.409,0,0,0,1.45.516l2.744-.66-2.469,1.471a1,1,0,0,0-.433,1.2Z" transform="translate(-427.16 -411.654)" fill="#fff"/>
            <g id="Group_23" data-name="Group 23" transform="translate(10.26 36.396)" opacity="0.6">
              <g id="Group_22" data-name="Group 22">
                <g id="Group_21" data-name="Group 21" clip-path="url(#clip-path)">
                  <path id="Path_103" data-name="Path 103" d="M117.34,349.568a5.677,5.677,0,0,0-5.629-2.682c-4.035.384-3.554,3.458-5.475,3.17s-4.611,0-5.187,1.921-3.17.864-3.266,2.5,2.978,2.786,6.532,1.345,5.283,1.119,10.278.656,5.614-1.04,8.571-.752,2.886-1.736,1.541-3.081-6.788-1.217-7.365-3.074" transform="translate(-97.78 -346.853)" fill="#e3f7dc"/>
                </g>
              </g>
            </g>
            <g id="Group_26" data-name="Group 26" transform="translate(98.49 44.429)" opacity="0.4">
              <g id="Group_25" data-name="Group 25">
                <g id="Group_24" data-name="Group 24" clip-path="url(#clip-path-2)">
                  <path id="Path_104" data-name="Path 104" d="M955.481,426.668s-2.21-3.827-6.253-3.2-.09,2.354-5.39,3.2-6.469,2.641-4.043,4.078,6.379-2.605,10.691-.629,10.08.288,4.995-3.449" transform="translate(-938.587 -423.4)" fill="#fff"/>
                </g>
              </g>
            </g>
            <g id="Group_29" data-name="Group 29" transform="translate(123.8 37.291)" opacity="0.4">
              <g id="Group_28" data-name="Group 28">
                <g id="Group_27" data-name="Group 27" clip-path="url(#clip-path-3)">
                  <path id="Path_105" data-name="Path 105" d="M1191.147,357.577s-1.485-2.573-4.2-2.15-.06,1.583-3.623,2.15-4.348,1.775-2.718,2.741,4.287-1.751,7.186-.423,6.775.194,3.357-2.319" transform="translate(-1179.792 -355.38)" fill="#fff"/>
                </g>
              </g>
            </g>
            <g id="Group_32" data-name="Group 32" transform="translate(47.559 8.81)" opacity="0.4">
              <g id="Group_31" data-name="Group 31">
                <g id="Group_30" data-name="Group 30" clip-path="url(#clip-path-3)">
                  <path id="Path_106" data-name="Path 106" d="M464.583,86.157s-1.485-2.573-4.2-2.15-.06,1.583-3.623,2.15-4.348,1.775-2.717,2.741,4.288-1.751,7.186-.423,6.775.194,3.357-2.319" transform="translate(-453.228 -83.96)" fill="#fff"/>
                </g>
              </g>
            </g>
            <path id="Path_155" data-name="Path 155" d="M303.476,1074.972s-3.328-3.426-2.183-5.377,3.078,4.191,3.078,4.191-1-7.264,1.074-7.39,0,7.39,0,7.39.769-1.752,1.521-1.861.537,1.486-.805,3.047Z" transform="translate(-269.463 -954.494)" fill="#ddf8c9"/>
            <path id="Path_156" data-name="Path 156" d="M302.644,1064.193a15.306,15.306,0,0,1-1.741-2.24c-1.063-1.7-1.316-3.046-.753-4.006.21-.358.464-.524.751-.491.583.066,1.239.956,2.005,2.719.229.528.433,1.056.593,1.494-.184-1.906-.4-5.7.646-6.969a1.116,1.116,0,0,1,.812-.441.851.851,0,0,1,.749.327c.938,1.158.095,5.28-.369,7.209.345-.564.835-1.192,1.334-1.264a.487.487,0,0,1,.53.248c.306.558-.109,1.985-1.333,3.409l-.185-.16c1.2-1.4,1.531-2.718,1.3-3.131a.244.244,0,0,0-.281-.123c-.644.093-1.4,1.5-1.63,2.039l-.23-.082c0-.017.461-1.676.766-3.491.4-2.374.366-3.93-.1-4.5a.61.61,0,0,0-.544-.236.87.87,0,0,0-.637.352c-1.316,1.606-.475,7.828-.467,7.891l-.238.053c-.434-1.381-1.777-4.989-2.756-5.1-.186-.021-.353.1-.512.371-1.237,2.107,2.421,5.914,2.458,5.952Z" transform="translate(-268.393 -943.63)" fill="#33353b"/>
            <path id="Path_157" data-name="Path 157" d="M373.019,1175.2s-2.454-2.527-1.61-3.966,2.27,3.091,2.27,3.091-.739-5.357.792-5.45,0,5.45,0,5.45.567-1.292,1.122-1.372.4,1.1-.594,2.247Z" transform="translate(-332.278 -1046.219)" fill="#ddf8c9"/>
            <path id="Path_158" data-name="Path 158" d="M372.406,1167.249a11.261,11.261,0,0,1-1.284-1.652c-.784-1.252-.971-2.247-.555-2.955.155-.264.341-.385.554-.362.43.049.914.7,1.479,2.006.169.39.319.779.437,1.1-.135-1.405-.292-4.2.476-5.14a.822.822,0,0,1,.6-.325.627.627,0,0,1,.553.241c.692.854.07,3.894-.272,5.317.255-.416.615-.879.984-.932a.359.359,0,0,1,.391.183c.226.411-.08,1.464-.983,2.514l-.137-.118c.888-1.032,1.129-2,.962-2.309a.181.181,0,0,0-.207-.091c-.475.068-1.029,1.109-1.2,1.5l-.17-.06c0-.012.34-1.236.565-2.575.294-1.75.27-2.9-.071-3.318a.448.448,0,0,0-.4-.174.641.641,0,0,0-.47.26c-.971,1.184-.351,5.773-.344,5.82l-.175.04c-.32-1.019-1.31-3.68-2.033-3.762-.137-.016-.261.074-.378.274-.913,1.555,1.786,4.361,1.813,4.39Z" transform="translate(-331.489 -1038.207)" fill="#33353b"/>
            <path id="Path_159" data-name="Path 159" d="M1059.176,1097.645s-2.454-2.527-1.61-3.966,2.27,3.091,2.27,3.091-.739-5.357.792-5.45,0,5.45,0,5.45.567-1.293,1.122-1.372.4,1.1-.594,2.247Z" transform="translate(-946.433 -976.803)" fill="#ddf8c9"/>
            <path id="Path_160" data-name="Path 160" d="M1058.562,1089.7a11.274,11.274,0,0,1-1.284-1.652c-.784-1.252-.971-2.247-.555-2.955.155-.264.342-.385.554-.362.43.049.913.7,1.479,2.006.169.389.319.779.437,1.1-.135-1.406-.292-4.2.476-5.14a.822.822,0,0,1,.6-.325.627.627,0,0,1,.553.241c.692.854.07,3.894-.272,5.317.255-.416.615-.879.984-.932a.358.358,0,0,1,.391.183c.226.411-.08,1.464-.983,2.514l-.137-.118c.888-1.033,1.129-2,.962-2.309a.18.18,0,0,0-.207-.091c-.475.069-1.029,1.109-1.2,1.5l-.17-.06c0-.012.34-1.236.565-2.575.294-1.751.27-2.9-.071-3.318a.45.45,0,0,0-.4-.174.641.641,0,0,0-.47.26c-.97,1.184-.351,5.773-.344,5.82l-.175.039c-.321-1.018-1.31-3.68-2.032-3.762-.139-.016-.261.074-.378.274-.912,1.554,1.786,4.361,1.813,4.39Z" transform="translate(-945.644 -968.79)" fill="#33353b"/>
            <path id="Path_161" data-name="Path 161" d="M874.288,1162.626s-3.23-3.325-2.119-5.219,2.987,4.068,2.987,4.068-.972-7.049,1.042-7.172,0,7.172,0,7.172.747-1.7,1.476-1.806.521,1.442-.781,2.957Z" transform="translate(-780.441 -1033.177)" fill="#a1de8c"/>
            <path id="Path_162" data-name="Path 162" d="M873.48,1152.164a14.837,14.837,0,0,1-1.69-2.174c-1.032-1.648-1.278-2.956-.731-3.888.2-.348.449-.508.729-.476.948.107,1.986,2.6,2.522,4.08-.056-.594-.116-1.375-.137-2.2-.062-2.332.2-3.866.763-4.559a1.083,1.083,0,0,1,.788-.428.825.825,0,0,1,.727.317c.91,1.123.092,5.124-.358,7,.335-.548.81-1.157,1.3-1.226a.471.471,0,0,1,.515.24c.3.541-.106,1.927-1.294,3.308l-.18-.155c1.168-1.359,1.486-2.638,1.266-3.039a.238.238,0,0,0-.273-.12c-.625.09-1.354,1.459-1.583,1.979l-.223-.079c0-.016.447-1.627.743-3.388.388-2.3.355-3.814-.093-4.367a.591.591,0,0,0-.528-.229.843.843,0,0,0-.618.342c-1.277,1.558-.461,7.6-.453,7.658l-.231.052c-.422-1.34-1.724-4.842-2.675-4.95-.18-.02-.343.1-.5.361-1.2,2.046,2.35,5.739,2.386,5.776Z" transform="translate(-779.402 -1022.632)" fill="#33353b"/>
            <path id="Path_163" data-name="Path 163" d="M1340.8,1123.6s-2.166-2.23-1.421-3.5,2,2.728,2,2.728-.652-4.728.7-4.81,0,4.81,0,4.81.5-1.141.99-1.211.349.967-.524,1.983Z" transform="translate(-1198.697 -1000.698)" fill="#ddf8c9"/>
            <path id="Path_164" data-name="Path 164" d="M1340.263,1116.581a9.961,9.961,0,0,1-1.133-1.458c-.692-1.105-.857-1.982-.49-2.607.137-.233.3-.341.489-.319.379.043.806.622,1.305,1.77.149.344.282.687.386.972-.12-1.24-.257-3.708.42-4.536a.726.726,0,0,1,.528-.287.553.553,0,0,1,.488.213c.611.753.062,3.437-.24,4.692.225-.367.543-.776.868-.823a.317.317,0,0,1,.345.161c.2.363-.071,1.292-.868,2.219l-.121-.1c.783-.911,1-1.769.849-2.038a.159.159,0,0,0-.183-.08c-.419.06-.908.978-1.061,1.327l-.15-.053c0-.011.3-1.091.5-2.272.26-1.545.238-2.558-.062-2.929a.4.4,0,0,0-.354-.154.566.566,0,0,0-.415.229c-.856,1.045-.309,5.095-.3,5.136l-.155.035c-.283-.9-1.156-3.247-1.794-3.319-.12-.014-.23.065-.333.242-.805,1.372,1.576,3.849,1.6,3.874Z" transform="translate(-1198.001 -993.626)" fill="#33353b"/>
            <path id="Path_165" data-name="Path 165" d="M25.844,1121.571s-1.907-1.964-1.251-3.082,1.764,2.4,1.764,2.4-.574-4.163.615-4.235,0,4.235,0,4.235.441-1,.872-1.066.308.852-.461,1.746Z" transform="translate(-21.889 -999.481)" fill="#ddf8c9"/>
            <path id="Path_166" data-name="Path 166" d="M25.366,1115.393a8.761,8.761,0,0,1-1-1.284c-.609-.973-.754-1.746-.431-2.3.121-.205.265-.3.431-.281.334.038.71.548,1.149,1.559.132.3.248.605.34.856-.105-1.092-.227-3.266.37-3.994a.639.639,0,0,1,.465-.253.487.487,0,0,1,.429.187c.538.663.054,3.026-.211,4.132.2-.323.478-.683.765-.724a.279.279,0,0,1,.3.142c.175.32-.063,1.138-.764,1.954l-.106-.091c.69-.8.878-1.558.748-1.795a.14.14,0,0,0-.161-.071c-.369.053-.8.862-.934,1.169l-.132-.047c0-.01.264-.96.439-2,.229-1.36.21-2.252-.055-2.579a.351.351,0,0,0-.312-.135.5.5,0,0,0-.365.2c-.754.92-.272,4.486-.267,4.522l-.136.031c-.249-.792-1.018-2.86-1.579-2.923-.106-.012-.2.058-.294.213-.709,1.208,1.388,3.389,1.409,3.411Z" transform="translate(-21.276 -993.254)" fill="#33353b"/>
          </g>
        </g>
      </g>
    </g>
    <g id="Group_19461" data-name="Group 19461" transform="translate(387.891 2032.266)">
      <g id="Group_19462" data-name="Group 19462">
        <path id="Path_15429" data-name="Path 15429" d="M141.843,21.174a5.4,5.4,0,0,1-.3-4.876c1.1-2.105,4.4-2.584,6.211-1.149a3.26,3.26,0,0,1,1.049,1.321s3.354.243,4.04,2.773c.516,1.907-.4,5.585-2.183,5.709s-8.816-3.78-8.816-3.78" transform="translate(-77.403 -7.861)" fill="#454263"/>
        <path id="Path_15430" data-name="Path 15430" d="M132.18,263.989s-.035,2.39,0,2.726c.026.253-4.292-.011-6.76.928a.794.794,0,0,0,.24,1.528c2.95.214,8.524.514,9.919-.149.48-.336,0-5.032,0-5.032Z" transform="translate(-68.546 -144.854)" fill="#ffb2b0"/>
        <path id="Path_15431" data-name="Path 15431" d="M132.18,270.021c.026.253-4.292-.011-6.76.928a.794.794,0,0,0,.24,1.528c2.95.214,8.524.514,9.919-.149a4.881,4.881,0,0,0,.194-2.313,5.691,5.691,0,0,1-3.593.007" transform="translate(-68.546 -148.16)" fill="#2a3e48"/>
        <path id="Path_15432" data-name="Path 15432" d="M181.964,263.989s-.035,2.39,0,2.726c.026.253-4.292-.011-6.76.928a.794.794,0,0,0,.239,1.528c2.951.214,8.524.514,9.919-.149.48-.336,0-5.032,0-5.032Z" transform="translate(-95.863 -144.854)" fill="#ffb2b0"/>
        <path id="Path_15433" data-name="Path 15433" d="M181.964,270.021c.026.253-4.292-.011-6.76.928a.794.794,0,0,0,.239,1.528c2.951.214,8.524.514,9.919-.149a4.881,4.881,0,0,0,.194-2.313,5.691,5.691,0,0,1-3.593.007" transform="translate(-95.863 -148.16)" fill="#2a3e48"/>
        <path id="Path_15434" data-name="Path 15434" d="M119.952,62.54s-3.689,13.491-7.17,16.732c-2.514,2.341-8.618,6.754-8.831,7.359-.3.835,1.038,3.213,1.283,3.267.288.064,11.078-2.382,16.422-7.822Z" transform="translate(-57.016 -34.316)" fill="#ddf8c9"/>
        <path id="Path_15435" data-name="Path 15435" d="M170.79,126.891a20.5,20.5,0,0,1,1.8,6.288c.934,7.5-.905,12.987-.461,23.661.384,9.239,2.372,25.825,3.072,31.472a1.824,1.824,0,0,1-1.719,2.046l-2.465.127a1.823,1.823,0,0,1-1.84-1.286c-1.093-3.574-4.332-13.93-9.322-27.973-2.985-8.4-4.339-22.934-5.067-33.27Z" transform="translate(-84.937 -69.626)" fill="#455a64"/>
        <path id="Path_15436" data-name="Path 15436" d="M135.249,127.745s-7,20.679-6.235,30.945c.6,8.084,3.192,23.827,3.562,29.451a2.589,2.589,0,0,0,2.585,2.418h1.652a2.588,2.588,0,0,0,2.588-2.482c.28-6.831,1.067-25.621,1.372-28.891.768-8.229,10.309-16.509,10.172-32.295Z" transform="translate(-70.76 -69.627)" fill="#455a64"/>
        <path id="Path_15437" data-name="Path 15437" d="M158.27,159.3a81.964,81.964,0,0,1-2.016-18.473" transform="translate(-85.738 -77.272)" fill="none" stroke="#2a3e48" stroke-linecap="round" stroke-width="1"/>
        <path id="Path_15438" data-name="Path 15438" d="M160.83,85.283c-1,2.029-17.469,2.8-21.7,1.2-2.972-1.128-4.408-27.1-1.553-31.593,1.966-3.1,11.174-4.142,14.3-2.254,5.09,3.07,12.283,11.376,12.248,21.418-.012,3.347-3.6,4.745-3.6,4.745s1.005,5.054.3,6.485" transform="translate(-74.642 -28.364)" fill="#ddf8c9"/>
        <path id="Path_15439" data-name="Path 15439" d="M148.384,44.877s-.043-1.241-.043-3.413l5.827-3.591s-.16,4.579-.256,6.237a4.082,4.082,0,0,1-5.527.767" transform="translate(-81.396 -20.781)" fill="#ebc1a6"/>
        <path id="Path_15440" data-name="Path 15440" d="M150.151,27.055s.019,1.932,1.417,2.292c0,0,.344-.623.772-.266a1.573,1.573,0,0,1-.968,2.24c-.388,2.152-1.477,4.483-4.383,4.464-3-.02-4.517-2.267-4.237-8.359,0,0,1.161-2.062,2.874-1.651,2.1.5,1.655,1.114,4.525,1.281" transform="translate(-78.312 -14.113)" fill="#f7ccb1"/>
        <path id="Path_15447" data-name="Path 15447" d="M136.88,90.457s-.672-7.478-.491-16.022" transform="translate(-74.821 -40.843)" fill="none" stroke="#bad9a3" stroke-linecap="round" stroke-width="1"/>
        <path id="Path_15448" data-name="Path 15448" d="M64.183,225.667c-3.988-.251-6.866-6.078-6.429-13.014s4.024-12.354,8.012-12.1a4.363,4.363,0,0,1,.642.093c-.2-.178-.405-.349-.616-.5l.064-1.016-1.371-.086c-4.9-.309-9.274,5.7-9.761,13.424s3.094,14.234,8,14.543l1.371.086.064-1.016c.229-.125.453-.269.675-.421a4.206,4.206,0,0,1-.649.012" transform="translate(-30.003 -109.209)" fill="#899da5"/>
        <line id="Line_25" data-name="Line 25" y2="23.036" transform="translate(35.047 80.821)" fill="none" stroke="#c9dae2" stroke-linecap="round" stroke-width="2"/>
        <line id="Line_26" data-name="Line 26" x1="12.19" y1="13.829" transform="translate(29.051 96.851)" fill="none" stroke="#a1acb2" stroke-linecap="round" stroke-width="0.75"/>
        <line id="Line_27" data-name="Line 27" x1="9.333" y2="22.379" transform="translate(30.479 92.577)" fill="none" stroke="#a1acb2" stroke-linecap="round" stroke-width="0.75"/>
        <line id="Line_28" data-name="Line 28" x2="6.451" y2="23.373" transform="translate(31.92 92.08)" fill="none" stroke="#a1acb2" stroke-linecap="round" stroke-width="0.75"/>
        <line id="Line_29" data-name="Line 29" x1="13.829" y2="12.19" transform="translate(28.231 97.671)" fill="none" stroke="#a1acb2" stroke-linecap="round" stroke-width="0.75"/>
        <line id="Line_30" data-name="Line 30" x1="16.584" y1="1.045" transform="translate(26.854 103.244)" fill="none" stroke="#a1acb2" stroke-linecap="round" stroke-width="0.75"/>
        <line id="Line_31" data-name="Line 31" x1="1.616" y2="25.651" transform="translate(34.338 90.941)" fill="none" stroke="#a1acb2" stroke-linecap="round" stroke-width="0.75"/>
        <path id="Path_15449" data-name="Path 15449" d="M67.522,199.23c-4.9-.309-9.274,5.7-9.761,13.424s3.094,14.234,8,14.543,9.274-5.7,9.761-13.424-3.094-14.234-8-14.543M65.85,225.772c-3.988-.251-6.866-6.078-6.429-13.014s4.024-12.354,8.012-12.1,6.866,6.078,6.429,13.013-4.024,12.355-8.012,12.1" transform="translate(-31.67 -109.314)" fill="#b6c6cc"/>
        <line id="Line_32" data-name="Line 32" y2="24.25" transform="translate(24.096 91.039)" fill="none" stroke="#c9dae2" stroke-linecap="round" stroke-width="2"/>
        <rect id="Rectangle_77" data-name="Rectangle 77" width="8.416" height="0.994" transform="translate(23.323 119.503) rotate(-86.252)" fill="#5a686d"/>
        <path id="Path_15450" data-name="Path 15450" d="M51.7,250.564c-.152,2.319-1.468,4.121-2.942,4.024s-2.543-2.054-2.391-4.373,1.468-4.121,2.942-4.025,2.543,2.054,2.391,4.373" transform="translate(-25.433 -135.085)" fill="#899da5"/>
        <path id="Path_15451" data-name="Path 15451" d="M53.9,250.708c-.152,2.319-1.468,4.121-2.941,4.024s-2.543-2.054-2.391-4.373,1.468-4.121,2.941-4.025,2.543,2.054,2.391,4.373" transform="translate(-26.64 -135.164)" fill="#c9dae2"/>
        <path id="Path_15452" data-name="Path 15452" d="M54.206,253.29c-.072,1.106-.7,1.965-1.4,1.919s-1.213-.98-1.14-2.085.7-1.965,1.4-1.919,1.213.98,1.14,2.085" transform="translate(-28.345 -137.838)" fill="#707f85"/>
        <line id="Line_33" data-name="Line 33" y2="24.25" transform="translate(48.457 97.454)" fill="none" stroke="#c9dae2" stroke-linecap="round" stroke-width="2"/>
        <path id="Path_15453" data-name="Path 15453" d="M75.972,247.246,80,224.428a9.014,9.014,0,0,1,4.864-6.5l6.348-3.155" transform="translate(-41.687 -117.846)" fill="none" stroke="#c9dae2" stroke-linecap="round" stroke-width="2"/>
        <path id="Path_15454" data-name="Path 15454" d="M20.721,241.633l4.026-22.818a9.014,9.014,0,0,1,4.864-6.5l6.348-3.155" transform="translate(-11.37 -114.766)" fill="none" stroke="#c9dae2" stroke-linecap="round" stroke-width="2"/>
        <path id="Path_15455" data-name="Path 15455" d="M.574,280.341l5.284-3.013a5.494,5.494,0,0,1,3.313-.689l25.674,2.783a1.135,1.135,0,0,1,.537,2.053l-4.875,3.48a4.215,4.215,0,0,1-2.964.754L1,282.455a1.135,1.135,0,0,1-.424-2.113" transform="translate(0 -151.777)" fill="#90aab2"/>
        <path id="Path_15456" data-name="Path 15456" d="M121.993,152.567l-14.62-1.978V128.031l14.62,2.83Z" transform="translate(-58.917 -70.252)" fill="#90aab2"/>
        <path id="Path_15457" data-name="Path 15457" d="M74.977,206.058l-27.353-5.19,21.1-6.412,20.484,5.064-.672,1.678Z" transform="translate(-26.132 -106.7)" fill="#90aab2"/>
        <path id="Path_15458" data-name="Path 15458" d="M48.759,145.684v15.78s16.027-4.845,16.027-5.35V119.027l5.854-2.34" transform="translate(-26.755 -64.027)" fill="none" stroke="#c9dae2" stroke-linecap="round" stroke-width="2"/>
        <line id="Line_34" data-name="Line 34" y1="6.143" x2="19.621" transform="translate(19.482 76.172)" fill="none" stroke="#747e84" stroke-linecap="round" stroke-width="5"/>
        <path id="Path_15459" data-name="Path 15459" d="M20.6,274.374s-.035,2.428,0,2.77c.027.257-4.361-.011-6.868.943a.806.806,0,0,0,.243,1.552c3,.217,8.66.522,10.078-.152.488-.342,0-5.113,0-5.113Z" transform="translate(-7.259 -150.552)" fill="#ffb2b0"/>
        <path id="Path_15460" data-name="Path 15460" d="M20.6,280.5c.027.257-4.361-.011-6.868.943A.806.806,0,0,0,13.979,283c3,.217,8.66.522,10.078-.152a4.961,4.961,0,0,0,.2-2.35,5.784,5.784,0,0,1-3.65.007" transform="translate(-7.259 -153.911)" fill="#364459"/>
        <path id="Path_15461" data-name="Path 15461" d="M51.59,274.374s-.035,2.428,0,2.77c.027.257-4.361-.011-6.868.943a.806.806,0,0,0,.243,1.552c3,.217,8.66.522,10.078-.152.488-.342,0-5.113,0-5.113Z" transform="translate(-24.261 -150.552)" fill="#ffb2b0"/>
        <path id="Path_15462" data-name="Path 15462" d="M51.59,280.5c.027.257-4.361-.011-6.868.943A.806.806,0,0,0,44.965,283c3,.217,8.66.522,10.078-.152a4.953,4.953,0,0,0,.2-2.35,5.784,5.784,0,0,1-3.65.007" transform="translate(-24.261 -153.911)" fill="#364459"/>
        <path id="Path_15463" data-name="Path 15463" d="M45.218,184.27s-13.352,3.349-16.679,10.882c-2.75,6.226-3.391,29.272-2.18,30.223.872.685,5.373.419,5.983-.082s3.048-13.872,6.6-21.164a95.351,95.351,0,0,0,1.107,20.8c.445,1.132,5.262.635,6.388,0,0,0,3.043-18.722,5.286-23.7,1.956-4.341,6.755-1.727,13.215-4.87,5.161-2.511,6.14-10.329,6.14-10.329Z" transform="translate(-14.142 -101.111)" fill="#44474f"/>
        <path id="Path_15464" data-name="Path 15464" d="M59.79,123.083c1.437-2.773,5.887,1.513,7.26,5.254,1.45,3.949-2.289,11.527-6.042,15.921-2.864,3.354-18.188,5.166-19.331,4.712s-.443-3.411.422-3.655c2-.564,10.787-4.728,12.126-6.4,1.42-1.775,3.1-11.065,5.565-15.828" transform="translate(-22.541 -67.051)" fill="#70bc56"/>
        <path id="Path_15465" data-name="Path 15465" d="M36.139,174.3a3.586,3.586,0,0,1,.7,2.6c-.164.85-1.84.724-3.217,3-1.145,1.891-4.048-1.678-3.273-3.244s4.473-2.712,5.79-2.353" transform="translate(-16.582 -95.603)" fill="#f7ccb1"/>
        <path id="Path_15466" data-name="Path 15466" d="M68.86,146.158c12.489,4.51,25.864,1.76,25.864,1.76,1.593-8.184,3.275-19.4.514-26.029-3.223-7.74-9.611-7.729-17.51-6.428C74.437,116,70.072,120,69.965,129.3c-.047,4.091-.063,12.924-1.1,16.856" transform="translate(-37.784 -62.999)" fill="#70bc56"/>
        <path id="Path_15467" data-name="Path 15467" d="M54.962,209.381s0-6.508,1.981-9.712c2.153-3.482,9.344-5.828,9.344-5.828" transform="translate(-30.158 -106.363)" fill="none" stroke="#fff" stroke-linecap="round" stroke-width="1"/>
        <path id="Path_15468" data-name="Path 15468" d="M84.458,115.5s-2.346,1.682-2.558,3.842c-.125,1.27,4.414-1.5,4.81-1.887,0,0,1.539,2.508,2.831,2.69.9.126,2.284-2.565,2.44-4.394a1.626,1.626,0,0,0-.794-1.5,16.828,16.828,0,0,0-6.73,1.251" transform="translate(-44.938 -62.665)" fill="#fff"/>
        <path id="Path_15469" data-name="Path 15469" d="M79.922,89.164A4.373,4.373,0,0,1,81.054,84.1c2.492-2.492,8.625-1.7,10.586,1.571a5.821,5.821,0,0,1-2.028,8.27c-2.634,1.353-9.689-4.777-9.689-4.777" transform="translate(-43.651 -45.343)" fill="#e5e5e5"/>
        <path id="Path_15470" data-name="Path 15470" d="M87.716,112.345a16.83,16.83,0,0,1-.617-2.015l6.774-4.09s.128,2.088.169,3.641c0,0-2.667,3.087-6.326,2.465" transform="translate(-47.792 -58.295)" fill="#eabea2"/>
        <path id="Path_15471" data-name="Path 15471" d="M82.427,93.13a2.574,2.574,0,0,0-2.062,1.64c-.134,6.859,1.642,9.34,5.013,9.274,3.268-.065,4.424-2.719,4.8-5.15A1.77,1.77,0,0,0,91.2,96.345c-.491-.389-.86.322-.86.322a2.023,2.023,0,0,1-1.752-1.552c-.9-2.077-2.564-2.687-6.156-1.986" transform="translate(-44.093 -50.948)" fill="#f7ccb1"/>
        <path id="Path_15478" data-name="Path 15478" d="M100.6,83.288a4.382,4.382,0,0,0,3.169-.67c1.7-1.393-.274-4.759-3.019-4.395s-1.71,3.746-1.71,3.746Z" transform="translate(-54.238 -42.907)" fill="#e5e5e5"/>
        <path id="Path_15479" data-name="Path 15479" d="M104.254,151.194v12.4a2.434,2.434,0,0,0,3.205,2.309l11.159-3.724a2.434,2.434,0,0,0,1.663-2.309V127.994a5.1,5.1,0,0,1,3.21-4.74l2.644-1.057" transform="translate(-57.205 -67.051)" fill="none" stroke="#c9dae2" stroke-linecap="round" stroke-width="2"/>
        <line id="Line_37" data-name="Line 37" y1="6.143" x2="19.621" transform="translate(44.526 78.659)" fill="none" stroke="#747e84" stroke-linecap="round" stroke-width="5"/>
        <path id="Path_15480" data-name="Path 15480" d="M99.635,126.544c.549-3.075,5.984-4.023,8.406-.859,2.557,3.34,7.555,13.476,5.277,18.786-1.739,4.053-16.593,7.69-17.819,7.6s-1.436-3.126-.683-3.616c1.741-1.132,9.473-5.65,10.256-7.648.828-2.117-6.38-8.977-5.438-14.259" transform="translate(-51.787 -67.89)" fill="#70bc56"/>
        <path id="Path_15481" data-name="Path 15481" d="M95.351,157.665c1.741-1.132,9.473-5.651,10.255-7.648.592-1.513-2.921-5.449-4.629-9.5" transform="translate(-52.32 -77.103)" fill="none" stroke="#fff" stroke-linecap="round" stroke-width="1"/>
        <path id="Path_15482" data-name="Path 15482" d="M89.089,179.065a3.586,3.586,0,0,1,1.161,2.428c-.007.866-1.678,1.047-2.618,3.533-.783,2.068-4.285-.914-3.808-2.6s3.905-3.479,5.266-3.366" transform="translate(-45.97 -98.252)" fill="#f7ccb1"/>
        <rect id="Rectangle_78" data-name="Rectangle 78" width="8.416" height="0.994" transform="translate(47.684 125.917) rotate(-86.252)" fill="#5a686d"/>
        <path id="Path_15483" data-name="Path 15483" d="M105.677,264.778c-.152,2.319-1.468,4.121-2.941,4.024s-2.543-2.054-2.391-4.373,1.469-4.121,2.942-4.025,2.543,2.054,2.391,4.373" transform="translate(-55.052 -142.885)" fill="#899da5"/>
        <path id="Path_15484" data-name="Path 15484" d="M107.875,264.922c-.152,2.319-1.468,4.121-2.941,4.024s-2.543-2.054-2.391-4.373,1.468-4.121,2.942-4.025,2.543,2.054,2.391,4.373" transform="translate(-56.258 -142.964)" fill="#c9dae2"/>
        <path id="Path_15485" data-name="Path 15485" d="M108.185,267.5c-.072,1.106-.7,1.965-1.4,1.919s-1.212-.98-1.14-2.085.7-1.965,1.4-1.919,1.213.98,1.14,2.085" transform="translate(-57.963 -145.637)" fill="#707f85"/>
        <path id="Path_15486" data-name="Path 15486" d="M126.291,242.584c-3.988-.251-6.866-6.078-6.429-13.014s4.024-12.354,8.012-12.1a4.242,4.242,0,0,1,.642.093c-.2-.178-.405-.349-.616-.5l.064-1.016-1.371-.086c-4.9-.309-9.274,5.7-9.761,13.424s3.094,14.234,8,14.543l1.371.086.064-1.016c.229-.125.453-.269.675-.421a4.206,4.206,0,0,1-.649.012" transform="translate(-64.082 -118.491)" fill="#899da5"/>
        <line id="Line_38" data-name="Line 38" y2="23.036" transform="translate(63.076 88.455)" fill="none" stroke="#c9dae2" stroke-linecap="round" stroke-width="2"/>
        <line id="Line_39" data-name="Line 39" x1="12.19" y1="13.829" transform="translate(57.079 104.486)" fill="none" stroke="#a1acb2" stroke-linecap="round" stroke-width="0.75"/>
        <line id="Line_40" data-name="Line 40" x1="9.333" y2="22.379" transform="translate(58.508 100.211)" fill="none" stroke="#a1acb2" stroke-linecap="round" stroke-width="0.75"/>
        <line id="Line_41" data-name="Line 41" x2="6.451" y2="23.373" transform="translate(59.949 99.714)" fill="none" stroke="#a1acb2" stroke-linecap="round" stroke-width="0.75"/>
        <line id="Line_42" data-name="Line 42" x1="13.829" y2="12.19" transform="translate(56.26 105.305)" fill="none" stroke="#a1acb2" stroke-linecap="round" stroke-width="0.75"/>
        <line id="Line_43" data-name="Line 43" x1="16.584" y1="1.045" transform="translate(54.883 110.878)" fill="none" stroke="#a1acb2" stroke-linecap="round" stroke-width="0.75"/>
        <line id="Line_44" data-name="Line 44" x1="1.616" y2="25.651" transform="translate(62.367 98.575)" fill="none" stroke="#a1acb2" stroke-linecap="round" stroke-width="0.75"/>
        <path id="Path_15487" data-name="Path 15487" d="M129.63,216.147c-4.9-.309-9.274,5.7-9.76,13.424s3.094,14.234,8,14.543,9.274-5.7,9.761-13.424-3.094-14.234-8-14.543m-1.672,26.542c-3.988-.251-6.866-6.078-6.429-13.014s4.024-12.354,8.012-12.1,6.866,6.077,6.429,13.013-4.024,12.355-8.012,12.1" transform="translate(-65.749 -118.596)" fill="#c9dae2"/>
        <path id="Path_15488" data-name="Path 15488" d="M70.207,168.181s.367-3.058.432-7.874" transform="translate(-38.523 -87.962)" fill="none" stroke="#fff" stroke-linecap="round" stroke-width="1"/>
        <path id="Path_15489" data-name="Path 15489" d="M148.2,118.917c.3,1.09-1.82,1.75-1.82,1.75-.141.63,1.008,1,2.249.964a4.817,4.817,0,0,0,2.341-1.086,6.336,6.336,0,0,0,1.187-2.418,2.572,2.572,0,0,0-1.373-1.721,31.582,31.582,0,0,0-3.062.985,3.1,3.1,0,0,0-1.178,2.2Z" transform="translate(-80.315 -63.873)" fill="#f7ccb1"/>
        <path id="Path_15490" data-name="Path 15490" d="M171.5,102.415s-12,5.236-14.027,4.548-1.459-3.917-1.083-4.182c.469-.331,8.479-4.183,12.555-8.047" transform="translate(-85.609 -51.981)" fill="#ddf8c9"/>
        <path id="Path_15491" data-name="Path 15491" d="M171.5,102.415s-12,5.236-14.027,4.548-1.459-3.917-1.083-4.182c.469-.331,8.479-4.183,12.555-8.047" transform="translate(-85.609 -51.981)" fill="none" stroke="#bad9a3" stroke-linecap="round" stroke-width="1"/>
      </g>
    </g>
  </g>
</svg>
