<svg xmlns="http://www.w3.org/2000/svg" xmlns:xlink="http://www.w3.org/1999/xlink" width="161" height="161" viewBox="0 0 161 161">
  <defs>
    <clipPath id="clip-path">
      <rect id="Rectangle_49" data-name="Rectangle 49" width="1.045" height="0.661" fill="none"/>
    </clipPath>
    <clipPath id="clip-path-2">
      <rect id="Rectangle_50" data-name="Rectangle 50" width="0.015" height="0.567" fill="none"/>
    </clipPath>
    <clipPath id="clip-path-3">
      <rect id="Rectangle_51" data-name="Rectangle 51" width="0.006" height="0.35" fill="none"/>
    </clipPath>
    <clipPath id="clip-path-4">
      <rect id="Rectangle_52" data-name="Rectangle 52" width="0.049" height="2.927" fill="none"/>
    </clipPath>
    <clipPath id="clip-path-5">
      <rect id="Rectangle_53" data-name="Rectangle 53" width="0.321" height="0.917" fill="none"/>
    </clipPath>
    <clipPath id="clip-path-6">
      <rect id="Rectangle_63" data-name="Rectangle 63" width="12.428" height="24.623" fill="none"/>
    </clipPath>
    <clipPath id="clip-path-7">
      <rect id="Rectangle_64" data-name="Rectangle 64" width="2.49" height="9.718" fill="none"/>
    </clipPath>
    <clipPath id="clip-path-8">
      <rect id="Rectangle_65" data-name="Rectangle 65" width="1.128" height="1.149" fill="none"/>
    </clipPath>
    <clipPath id="clip-path-9">
      <rect id="Rectangle_66" data-name="Rectangle 66" width="13.299" height="8.499" fill="none"/>
    </clipPath>
    <clipPath id="clip-path-10">
      <rect id="Rectangle_67" data-name="Rectangle 67" width="6.99" height="4.921" fill="none"/>
    </clipPath>
    <clipPath id="clip-path-11">
      <rect id="Rectangle_68" data-name="Rectangle 68" width="1.167" height="1.163" fill="none"/>
    </clipPath>
    <clipPath id="clip-path-12">
      <rect id="Rectangle_69" data-name="Rectangle 69" width="15.031" height="1.279" fill="none"/>
    </clipPath>
    <clipPath id="clip-path-13">
      <rect id="Rectangle_70" data-name="Rectangle 70" width="7.272" height="1.533" fill="none"/>
    </clipPath>
    <clipPath id="clip-path-14">
      <rect id="Rectangle_71" data-name="Rectangle 71" width="13.352" height="4.803" fill="none"/>
    </clipPath>
    <clipPath id="clip-path-15">
      <rect id="Rectangle_72" data-name="Rectangle 72" width="5.179" height="2.053" fill="none"/>
    </clipPath>
    <clipPath id="clip-path-16">
      <rect id="Rectangle_73" data-name="Rectangle 73" width="5.531" height="1.756" fill="none"/>
    </clipPath>
    <clipPath id="clip-path-17">
      <rect id="Rectangle_74" data-name="Rectangle 74" width="1.868" height="11.166" fill="none"/>
    </clipPath>
    <clipPath id="clip-path-18">
      <rect id="Rectangle_76" data-name="Rectangle 76" width="126.723" height="133.33" fill="none"/>
    </clipPath>
  </defs>
  <g id="Group_19555" data-name="Group 19555" transform="translate(-365 -2011)">
    <g id="Ellipse_3" data-name="Ellipse 3" transform="translate(365 2011)" fill="#f9fff2" stroke="#aceb97" stroke-width="2">
      <circle cx="80.5" cy="80.5" r="80.5" stroke="none"/>
      <circle cx="80.5" cy="80.5" r="79.5" fill="none"/>
    </g>
    <g id="Group_19453" data-name="Group 19453" transform="translate(382.139 2038.67)">
      <g id="Group_19456" data-name="Group 19456">
        <g id="Group_19407" data-name="Group 19407">
          <g id="Group_19459" data-name="Group 19459">
            <path id="Path_15248" data-name="Path 15248" d="M44,105.268A10.166,10.166,0,1,1,33.835,95.1,10.166,10.166,0,0,1,44,105.268" transform="translate(-16.757 -67.331)" fill="#edffd8"/>
            <path id="Path_15249" data-name="Path 15249" d="M43.188,104.108a2.906,2.906,0,0,1-.082-.651,5.319,5.319,0,0,0-.1-.783,7.685,7.685,0,0,0-.219-1.05,9.862,9.862,0,0,0-1.127-2.695,10.144,10.144,0,0,0-2.555-2.869,10.037,10.037,0,0,0-9.48-1.507,9.419,9.419,0,0,0-2.542,1.337,9.142,9.142,0,0,0-2.134,2.1,9.957,9.957,0,0,0-.139,11.8,9.132,9.132,0,0,0,2.084,2.15,9.4,9.4,0,0,0,2.51,1.4,10.112,10.112,0,0,0,12.134-4.094,9.869,9.869,0,0,0,1.19-2.668,7.693,7.693,0,0,0,.244-1.045,5.335,5.335,0,0,0,.115-.78,2.9,2.9,0,0,1,.1-.649,2.871,2.871,0,0,1,.016.658,4.625,4.625,0,0,1-.063.8,7.137,7.137,0,0,1-.2,1.075,9.66,9.66,0,0,1-1.133,2.776,10.406,10.406,0,0,1-7.069,4.908,10.5,10.5,0,0,1-5.517-.492,9.863,9.863,0,0,1-2.654-1.454,9.64,9.64,0,0,1-2.207-2.258,10.461,10.461,0,0,1,.146-12.46,11.855,11.855,0,0,1,1.05-1.206,11.718,11.718,0,0,1,1.21-1,9.863,9.863,0,0,1,2.686-1.391,10.5,10.5,0,0,1,5.527-.363,10.4,10.4,0,0,1,6.952,5.072,9.668,9.668,0,0,1,1.068,2.8,7.145,7.145,0,0,1,.172,1.08,4.576,4.576,0,0,1,.044.8,2.866,2.866,0,0,1-.031.657" transform="translate(-15.845 -66.19)" fill="#def8bf"/>
            <path id="Path_15250" data-name="Path 15250" d="M47.266,107.513c.023.032-.16.195-.514.465l-.655.482c-.13.091-.265.194-.416.292l-.5.27a11.583,11.583,0,0,1-6.014,1.6l-.914-.029-.878-.126c-.144-.022-.287-.04-.427-.066l-.41-.1c-.27-.071-.537-.131-.792-.209a13.22,13.22,0,0,1-2.574-1.147,5.856,5.856,0,0,1-2.013-1.612c.055-.064.81.56,2.2,1.261a15.453,15.453,0,0,0,2.533,1c.246.068.5.119.764.182l.395.093.409.057.839.113.871.024A12.493,12.493,0,0,0,45,108.668l.508-.229c.154-.083.295-.172.43-.249l.7-.395c.387-.211.614-.314.637-.283" transform="translate(-22.056 -75.981)" fill="#def8bf"/>
            <path id="Path_15251" data-name="Path 15251" d="M30.641,143.884c-.023-.032.16-.195.514-.465l.654-.482c.13-.091.265-.194.417-.292l.5-.27a11.584,11.584,0,0,1,6.014-1.6l.914.029.878.126c.144.022.286.039.427.066l.411.1c.27.072.537.131.792.209a13.24,13.24,0,0,1,2.575,1.147,5.853,5.853,0,0,1,2.013,1.612c-.055.064-.81-.56-2.2-1.261a15.457,15.457,0,0,0-2.533-1c-.246-.068-.5-.119-.763-.182l-.395-.093-.409-.056-.839-.113-.871-.024a12.492,12.492,0,0,0-5.825,1.385l-.508.228c-.155.084-.295.173-.43.249l-.7.395c-.387.211-.613.314-.637.283" transform="translate(-21.692 -99.668)" fill="#def8bf"/>
            <path id="Path_15252" data-name="Path 15252" d="M43.862,129.631a93.553,93.553,0,0,1-10.266.162,93.508,93.508,0,0,1-10.26-.4,93.7,93.7,0,0,1,10.267-.162,93.653,93.653,0,0,1,10.259.4" transform="translate(-16.522 -91.475)" fill="#def8bf"/>
            <path id="Path_15253" data-name="Path 15253" d="M56.841,114.811a93.5,93.5,0,0,1-.162-10.262,93.488,93.488,0,0,1,.4-10.257,93.493,93.493,0,0,1,.162,10.263,93.59,93.59,0,0,1-.4,10.256" transform="translate(-40.111 -66.758)" fill="#def8bf"/>
            <path id="Path_15254" data-name="Path 15254" d="M44.608,114.782a8.233,8.233,0,0,1-2.5-2.411,13.806,13.806,0,0,1-1.876-3.307,12.374,12.374,0,0,1-.852-4.588,11.767,11.767,0,0,1,.979-4.565,14.257,14.257,0,0,1,1.964-3.253,8.739,8.739,0,0,1,2.53-2.383c.056.063-.966.916-2.213,2.625a15.377,15.377,0,0,0-1.8,3.212,11.831,11.831,0,0,0-.894,4.368,12.489,12.489,0,0,0,.774,4.4,14.8,14.8,0,0,0,1.712,3.257c1.21,1.734,2.239,2.583,2.182,2.646" transform="translate(-27.877 -66.744)" fill="#def8bf"/>
            <path id="Path_15255" data-name="Path 15255" d="M58.317,94.283a8.231,8.231,0,0,1,2.5,2.411A13.8,13.8,0,0,1,62.7,100a12.374,12.374,0,0,1,.852,4.588,11.768,11.768,0,0,1-.979,4.565,14.257,14.257,0,0,1-1.964,3.253,8.739,8.739,0,0,1-2.53,2.383c-.056-.063.966-.916,2.213-2.625a15.38,15.38,0,0,0,1.8-3.211,11.83,11.83,0,0,0,.894-4.368,12.5,12.5,0,0,0-.774-4.4A14.8,14.8,0,0,0,60.5,96.929c-1.21-1.734-2.239-2.583-2.182-2.646" transform="translate(-41.116 -66.749)" fill="#def8bf"/>
            <path id="Path_15256" data-name="Path 15256" d="M57.883,163.489c.042,0,.076,1.48.076,3.306s-.034,3.307-.076,3.307-.076-1.48-.076-3.307.034-3.306.076-3.306" transform="translate(-40.927 -115.748)" fill="#ebebeb"/>
            <path id="Path_15257" data-name="Path 15257" d="M65.358,74.19a.463.463,0,0,1-.136.015l-.39.014-1.434.024c-1.211.014-2.884.022-4.731.022H57.479l.075-.075c-.01,1.551-.019,2.917-.026,3.926-.009.474-.017.863-.022,1.158a2.468,2.468,0,0,1-.027.419,2.468,2.468,0,0,1-.027-.419c-.006-.3-.013-.684-.022-1.158-.007-1.009-.015-2.375-.026-3.926v-.075h1.264c1.847,0,3.52.008,4.731.022l1.434.024.39.014a.47.47,0,0,1,.136.015" transform="translate(-40.641 -52.472)" fill="#ebebeb"/>
            <rect id="Rectangle_45" data-name="Rectangle 45" width="3.149" height="14.861" transform="translate(86.378 118.393)" fill="#d9f0bd"/>
            <rect id="Rectangle_46" data-name="Rectangle 46" width="3.149" height="14.861" transform="translate(113.136 118.393)" fill="#d9f0bd"/>
            <rect id="Rectangle_47" data-name="Rectangle 47" width="39.725" height="3.675" transform="translate(81.17 99.711)" fill="#edffd8"/>
            <path id="Path_15258" data-name="Path 15258" d="M321.972,369.241l-35.724.077V354.046h35.724Z" transform="translate(-202.66 -250.661)" fill="#edffd8"/>
            <path id="Path_15259" data-name="Path 15259" d="M317.693,353.874c0,.039-8.893.072-19.862.072s-19.863-.032-19.863-.072,8.891-.072,19.863-.072,19.862.032,19.862.072" transform="translate(-196.798 -250.488)" fill="#e0e0e0"/>
            <path id="Path_15260" data-name="Path 15260" d="M322.159,406.171c0,.039-7.939.072-17.73.072s-17.732-.032-17.732-.072,7.937-.072,17.732-.072,17.73.032,17.73.072" transform="translate(-202.978 -287.514)" fill="#e0e0e0"/>
            <path id="Path_15261" data-name="Path 15261" d="M326,371.546s0-.061,0-.175,0-.287,0-.507c0-.449-.007-1.1-.012-1.954-.006-1.7-.015-4.173-.026-7.273l.047.047-29.831.025h0l.071-.072c0,3.443,0,6.783,0,9.91l-.069-.069,21.337.032,6.235.019,1.675.009.435,0c.1,0,.151,0,.151,0s-.046,0-.142,0l-.427,0-1.66.009-6.219.02-21.385.032h-.069v-.069c0-3.127,0-6.467,0-9.91v-.072h.073L326,361.59h.047v.047c-.011,3.113-.02,5.593-.026,7.3,0,.845-.009,1.5-.012,1.944,0,.217,0,.382,0,.5s0,.166,0,.166" transform="translate(-209.629 -255.984)" fill="#e0e0e0"/>
            <path id="Path_15262" data-name="Path 15262" d="M297.614,391.29a4.936,4.936,0,0,1-1.141,1.224,4.936,4.936,0,0,1,1.141-1.224" transform="translate(-209.898 -277.028)" fill="#e0e0e0"/>
            <path id="Path_15263" data-name="Path 15263" d="M297.513,363.111a5.422,5.422,0,0,1-1.182-1.3,5.422,5.422,0,0,1,1.182,1.3" transform="translate(-209.798 -256.159)" fill="#e0e0e0"/>
            <path id="Path_15264" data-name="Path 15264" d="M395.3,361.912a2.6,2.6,0,0,1-.649.688,4.072,4.072,0,0,1-.744.581,2.6,2.6,0,0,1,.649-.688,4.086,4.086,0,0,1,.744-.581" transform="translate(-278.879 -256.229)" fill="#e0e0e0"/>
            <path id="Path_15265" data-name="Path 15265" d="M395.248,392.594a6.124,6.124,0,0,1-1.34-1.3,6.121,6.121,0,0,1,1.34,1.3" transform="translate(-278.882 -277.031)" fill="#e0e0e0"/>
            <path id="Path_15266" data-name="Path 15266" d="M327.521,373.4s0-.045,0-.129,0-.211,0-.371c0-.33-.006-.811-.011-1.434-.006-1.252-.014-3.074-.024-5.376l.043.044-27.309.028h0l.072-.072c0,2.513,0,4.963,0,7.311l-.07-.07,19.488.032,5.735.02,1.546.009.4,0c.091,0,.14,0,.14,0s-.043,0-.131,0l-.394,0-1.53.009-5.72.02-19.536.032h-.07v-.07c0-2.348,0-4.8,0-7.311v-.072h.073l27.309.028h.044v.043c-.01,2.314-.018,4.145-.024,5.4,0,.619-.008,1.1-.01,1.424,0,.157,0,.277,0,.364s0,.12,0,.12" transform="translate(-212.495 -259.135)" fill="#e0e0e0"/>
            <path id="Path_15267" data-name="Path 15267" d="M343.241,375.364a2.9,2.9,0,0,0-.733-.333,2.359,2.359,0,0,0-.725-.113h-2.01a2.316,2.316,0,0,0-1.6.619,1.341,1.341,0,0,0-.24.29.827.827,0,0,0,.079.983c.258.242.786.124.83-.227a.872.872,0,0,0,.925.822,1.175,1.175,0,0,0,.989-.858.785.785,0,0,0,1.562.119.984.984,0,0,0,1.039.488.749.749,0,0,0,.481-.537,1.206,1.206,0,0,0-.595-1.252" transform="translate(-239.164 -265.438)" fill="#d9f0bd"/>
            <path id="Path_15268" data-name="Path 15268" d="M342.593,374.876a2.814,2.814,0,0,0-1.291,1.774c-.017,0-.03-.134.011-.344a2,2,0,0,1,.956-1.314c.187-.1.317-.132.324-.116" transform="translate(-241.627 -265.405)" fill="#ebebeb"/>
            <path id="Path_15269" data-name="Path 15269" d="M347.933,375.172a4.468,4.468,0,0,1-.166,1.583,4.447,4.447,0,0,1,.166-1.583" transform="translate(-246.196 -265.617)" fill="#ebebeb"/>
            <path id="Path_15270" data-name="Path 15270" d="M351.715,375.086c.009-.015.114.027.233.16a1.255,1.255,0,0,1,.282.618,2.239,2.239,0,0,1,0,.671c-.023.168-.051.27-.07.268s-.028-.107-.031-.274a4.136,4.136,0,0,0-.044-.64,1.547,1.547,0,0,0-.222-.582c-.088-.135-.166-.2-.153-.221" transform="translate(-249.01 -265.555)" fill="#ebebeb"/>
            <rect id="Rectangle_48" data-name="Rectangle 48" width="24.478" height="2.867" transform="translate(89.181 123.397)" fill="#d9f0bd"/>
            <path id="Path_15271" data-name="Path 15271" d="M325.184,328.72v3.692H309.308a1.846,1.846,0,1,1,0-3.692" transform="translate(-217.68 -232.73)" fill="#d9f0bd"/>
            <path id="Path_15272" data-name="Path 15272" d="M352.878,333.515h-5.343a.956.956,0,0,1-.956-.956v-.232a.956.956,0,0,1,.956-.956h5.343Z" transform="translate(-245.373 -234.607)" fill="#fff"/>
            <path id="Path_15273" data-name="Path 15273" d="M325.184,316.077v3.692H309.308a1.846,1.846,0,1,1,0-3.692Z" transform="translate(-217.68 -223.779)" fill="#d9f0bd"/>
            <path id="Path_15274" data-name="Path 15274" d="M352.878,320.871h-5.343a.956.956,0,0,1-.956-.956v-.232a.956.956,0,0,1,.956-.956h5.343Z" transform="translate(-245.373 -225.655)" fill="#fff"/>
            <path id="Path_15275" data-name="Path 15275" d="M322.774,295.8l-2.522,5.922h1.623l1.12-3.163Z" transform="translate(-226.735 -209.421)" fill="#edffd8"/>
            <path id="Path_15276" data-name="Path 15276" d="M335.587,277.443l.974,11.282h-8.241l-.906-11.282Z" transform="translate(-231.806 -196.427)" fill="#edffd8"/>
            <path id="Path_15277" data-name="Path 15277" d="M337.689,280.375l.853,9.449-6.186.081-.835-9.586Z" transform="translate(-234.714 -198.464)" fill="#d9f0bd"/>
            <path id="Path_15278" data-name="Path 15278" d="M339.915,284.987l.485,6.5h-3.3l-.582-6.5Z" transform="translate(-238.251 -201.768)" fill="#fff"/>
            <path id="Path_15279" data-name="Path 15279" d="M306.1,69.687c-.027-.272-.057-.541-.095-.809q-.055-.425-.126-.846.071.421.126.846c.038.268.068.537.095.809" transform="translate(-216.56 -48.166)" fill="#263238"/>
            <path id="Path_15280" data-name="Path 15280" d="M188.969,24.876a11.943,11.943,0,0,1-.442-1.671,1.107,1.107,0,0,0-.5-.749,4.45,4.45,0,0,0-.6-.136c-.707-.212-.9-1.2-1.569-1.505a2.282,2.282,0,0,0-.673-.14,3.52,3.52,0,0,1-2.386-1.119,4.4,4.4,0,0,0-.552-.681.661.661,0,0,0-.809-.076c.189.378.374.756.56,1.131a2.975,2.975,0,0,0,.628.941,1.013,1.013,0,0,0,1.055.227.7.7,0,0,1,.356-.125.386.386,0,0,1,.231.147,1.559,1.559,0,0,1-.147,1.989,4.558,4.558,0,0,1-1.853,1.1,1.438,1.438,0,0,1-.756.147c-.469-.087-.718-.6-.854-1.055a9.4,9.4,0,0,0-1.081-2.968A3.712,3.712,0,0,1,179,19.51a4.639,4.639,0,0,0-.3-1.036c-.212-.314-.662-.5-.692-.874a.689.689,0,0,1,.442-.612c.242-.117.514-.151.764-.253.1-.041.208-.113.212-.219,0-.159-.219-.223-.276-.37-.061-.166.11-.322.181-.484.155-.371-.231-.745-.605-.9s-.821-.261-.994-.624a2.151,2.151,0,0,1-.121-.541,1.183,1.183,0,0,0-.885-.975.779.779,0,0,0-.9.8,3.282,3.282,0,0,0,.336.684c.106.234.076.582-.166.658-.4.121-.779-.6-1.112-.355.136.465.268.93.4,1.4-.522.265-1.146-.216-1.369-.76s-.231-1.161-.5-1.683-.979-.915-1.433-.544c-.023.673.866.945,1.259,1.49a.913.913,0,0,1-.178,1.282c-.416.25-1.078-.185-.919-.643.057-.159.189-.291.2-.461.015-.212-.162-.382-.325-.518-.253-.216-.507-.427-.76-.639a1.6,1.6,0,0,0-.541-.34,1.28,1.28,0,0,0-1.32.737,6.707,6.707,0,0,1-.813,1.407,1.486,1.486,0,0,1-2.1.008A1.237,1.237,0,0,1,167,13.222c.287-.079.65-.072.8-.325.265-.45-.492-1.025-.231-1.478.2-.348.73-.189,1.115-.306s.6-.5.824-.835.575-.662.968-.575a1.21,1.21,0,0,1,.042-.688A.421.421,0,0,1,171.1,8.8a.7.7,0,0,0,.374.919,2.04,2.04,0,0,0,1.1.079c.371-.045.836-.181.866-.552.011-.121-.034-.25.011-.363.162-.442.979.166,1.293-.189.181-.185-.019-.514-.272-.575a2.77,2.77,0,0,0-.767.038c-.257.011-.571-.125-.582-.382s.272-.435.3-.684c.049-.423-.669-.533-.923-.189a1.614,1.614,0,0,0-.087,1.236,1.312,1.312,0,0,1-.193,1.21c-.132.2-.476.095-.59-.117a1.709,1.709,0,0,1-.109-.707.609.609,0,0,0-.359-.578,1.277,1.277,0,0,0-.5.057c-.658.079-1.115-.771-.908-1.4a2.672,2.672,0,0,1,1.38-1.357,1.457,1.457,0,0,1,1.369-.216c.2.11.333.3.526.412a2.255,2.255,0,0,0,1.127.132,2.626,2.626,0,0,1,1.645.639c.17.155.329.412.2.6s-.556.238-.484.469a.82.82,0,0,0,1.028-.662.688.688,0,0,1,.4.559,1.224,1.224,0,0,1,1.8.147,1.547,1.547,0,0,0,.333.427c.151.1.416.049.435-.128a.361.361,0,0,0-.03-.166c-.091-.257-.185-.51-.276-.764.352-.189.768.106,1.006.423.885,1.184,1.516.472,2.764.665.843.128,1.214.669,1.69,1.323,1.459,2.011,3.388,3.66,4.715,5.762.14.219.268.442.389.669-.022-.057-.041-.113-.064-.17a23.31,23.31,0,0,0-1.928-3.921q-.244-.4-.5-.783c-.106-.159-.215-.321-.325-.476-.14-.2-.287-.4-.435-.6-.117-.159-.234-.314-.355-.465-.083-.106-.17-.212-.257-.317-.091-.121-.189-.238-.295-.355l-.317-.367a1.438,1.438,0,0,0-.1-.114c-.11-.128-.227-.253-.344-.378a.109.109,0,0,0-.034-.038c-.03-.034-.064-.068-.1-.1-.095-.106-.2-.208-.3-.31-.162-.166-.329-.333-.5-.492-.14-.14-.284-.272-.431-.4-.128-.117-.257-.234-.389-.348s-.257-.223-.39-.333c-.159-.136-.321-.268-.488-.4h0c-.457-.367-.93-.715-1.414-1.04-.121-.083-.238-.163-.359-.242s-.246-.159-.367-.234-.246-.155-.371-.227-.25-.151-.374-.223c-.1-.06-.2-.117-.3-.17a1.559,1.559,0,0,0-.155-.087c-.215-.121-.435-.238-.654-.348-.109-.057-.219-.114-.333-.166-.14-.072-.284-.14-.427-.2a.343.343,0,0,0-.064-.03c-.129-.06-.257-.121-.39-.178-.185-.079-.371-.159-.556-.234-.212-.087-.424-.174-.639-.253-.238-.091-.476-.178-.718-.257s-.488-.163-.734-.238-.491-.144-.741-.212c-.491-.132-.99-.25-1.493-.352-.008,0-.019,0-.027-.008-.193-.038-.386-.076-.578-.106a.168.168,0,0,0-.038-.008c-.083-.015-.17-.03-.257-.042-.359-.06-.722-.11-1.089-.151-.041-.008-.087-.011-.132-.015-.106-.015-.212-.022-.321-.034-.242-.023-.484-.042-.73-.057s-.51-.03-.767-.038S167.636,0,167.368,0q-1.066,0-2.11.095c-.166.011-.329.027-.492.046s-.34.038-.51.06-.34.045-.507.072-.336.053-.507.083c-.144.022-.291.049-.435.079q-.533.1-1.055.227-.244.057-.488.125c-.162.041-.325.087-.484.132-.268.076-.529.159-.79.242h0c-.212.072-.427.144-.635.216a.028.028,0,0,0-.015.007c-.216.076-.423.155-.635.238l-.034.011c-.193.076-.386.155-.575.234-.238.1-.473.2-.7.31-.2.091-.389.181-.578.276s-.408.2-.609.31l-.023.011c-.193.1-.386.208-.575.318s-.39.223-.582.344h0c-.182.11-.359.219-.537.333-.068.041-.132.087-.2.132-.189.121-.371.246-.556.374-.227.155-.446.317-.665.48-.193.144-.382.291-.567.439a23.8,23.8,0,0,0-2.972,2.817c-.321.355-.624.718-.919,1.089-.25.317-.492.639-.722.972q-.312.434-.6.884.29-.449.6-.884c.061-.008.121-.015.182-.019a2.8,2.8,0,0,0,1.006-.163,6.009,6.009,0,0,0,.741-.575c.658-.469,1.735-.556,1.913-1.342a5.627,5.627,0,0,1,.087-.805c.185-.472.817-.541,1.323-.533.216,0,.469.03.567.219a.542.542,0,0,1-.023.439,4.11,4.11,0,0,1-1.735,2.132c-.658.4-1.516.711-1.7,1.459.091.253.552.234.59.5.027.212-.246.322-.344.511-.144.276.185.612.5.6a1.381,1.381,0,0,0,.805-.453,5.139,5.139,0,0,0,1.66-2.235,1.969,1.969,0,0,1,.446-1.062.739.739,0,0,1,1.123.359c.3-.166.764-.291.919.019a1.583,1.583,0,0,1,.064.355c.1.484.76.7.828,1.191.079.564-.643.855-1.206.942-.51.079-1.021.159-1.531.242a1.418,1.418,0,0,0-.635.2.5.5,0,0,0-.189.594,1.5,1.5,0,0,0,.265.272.814.814,0,0,1-.522,1.316c-.2.007-.4-.068-.609-.076a1.667,1.667,0,0,0-1.372,1.04,4.237,4.237,0,0,1-.987,1.505c-.779.586-2.121.45-2.5,1.35a2.158,2.158,0,0,0-.011,1.161,1.551,1.551,0,0,1-.14,1.138c-.223.317-.805.385-.972.03a.873.873,0,0,1-.022-.5c.091-.559.178-1.119.265-1.679a1.648,1.648,0,0,0-.125-1.221,1.105,1.105,0,0,0-1.562-.049,2.755,2.755,0,0,0-.752,1.55,6.728,6.728,0,0,1-.431,1.5h0c-.079.469-.144.945-.193,1.425s-.083.979-.1,1.478a2.046,2.046,0,0,0,.193-.181c.238-.246.718-1.286,1.149-.775a.386.386,0,0,1,.008.473c-.132.17-.4.208-.5.393-.125.219.049.492.253.635a2.206,2.206,0,0,1,.6.446c.276.4.011,1,.28,1.4.231.348.722.371,1.142.416l.144.022a1.908,1.908,0,0,1,1.641-1.766c1.565-.355,3.622.942,4.5,2.121.983,1.32,1.448,3.187,2.953,3.849,1.078.472,2.609.3,3.134,1.357.469.945-.348,2.008-.472,3.055a10.994,10.994,0,0,0,.2,2.072,1.777,1.777,0,0,1-.786,1.8c-.352.159-.794.14-1.078.4-.5.476-.091,1.459-.594,1.936a2.592,2.592,0,0,1-.639.336c-1.13.571-1.1,2.234-.575,3.388.019.042.038.079.057.121a23.895,23.895,0,0,0,12.255,3.384,23.78,23.78,0,0,0,11.211-2.79h0a23.9,23.9,0,0,0,2.114-1.274,23.541,23.541,0,0,0,2.968-2.359,23.157,23.157,0,0,0,1.815-1.894c.4-.461.779-.941,1.142-1.433.185-.253.367-.507.537-.768a23.472,23.472,0,0,0,2.972-6.114,23.215,23.215,0,0,0,.911-4.05c.072-.537.128-1.081.166-1.629a1.375,1.375,0,0,1-.96.427,1.545,1.545,0,0,1-1.278-1.017" transform="translate(-101.598 0)" fill="#edffd8"/>
            <path id="Path_15281" data-name="Path 15281" d="M146.571,89.783a16.551,16.551,0,0,1,.163-2.061c.008-.476-.027-.979-.034-1.459a6.563,6.563,0,0,1-1.214-.17.362.362,0,0,1-.223-.113.445.445,0,0,1-.049-.253c-.03-.537-.548-.892-1.013-1.161a4.053,4.053,0,0,0-.737-.363c0,.057,0,.11,0,.166a23.8,23.8,0,0,0,1.52,7.581,22.878,22.878,0,0,0,1.459,3.131c.234.435.491.862.76,1.282.333.518.68,1.025,1.055,1.512.348.469.718.927,1.108,1.365a23.689,23.689,0,0,0,1.69,1.74q.788.737,1.645,1.4c-1.3-3.5-2.533-7.075-4.764-10.054a5.548,5.548,0,0,1-1.369-2.541" transform="translate(-101.57 -59.614)" fill="#edffd8"/>
            <path id="Path_15282" data-name="Path 15282" d="M143.431,80.331c0,.144-.008.287-.008.431,0,.117,0,.233.006.35,0-.117-.006-.232-.006-.35,0-.144.005-.287.008-.431" transform="translate(-101.542 -56.873)" fill="#263238"/>
            <g id="Group_19393" data-name="Group 19393" transform="translate(52.471 43.732)" opacity="0.6">
              <g id="Group_19392" data-name="Group 19392">
                <g id="Group_19391" data-name="Group 19391" clip-path="url(#clip-path)">
                  <path id="Path_15283" data-name="Path 15283" d="M179.687,149.761q.3.2.61.4c.144.091.288.178.435.265-.147-.087-.291-.174-.435-.265q-.309-.193-.61-.4" transform="translate(-179.687 -149.761)" fill="#263238"/>
                </g>
              </g>
            </g>
            <path id="Path_15284" data-name="Path 15284" d="M221.035,79.5a2.068,2.068,0,0,1-.446-.047,1.456,1.456,0,0,1-1.054-.8,2.752,2.752,0,0,1-.184-1.04,3.926,3.926,0,0,0-.075-.711,3.786,3.786,0,0,0-.561-1.142,3.964,3.964,0,0,1-.748-2.693l0-.147c-.126-4.2-1.3-7.614-3.388-9.865a2.277,2.277,0,0,0-1.026-.726,1.275,1.275,0,0,0-1.316.454,2.654,2.654,0,0,0-.2.324,1.816,1.816,0,0,1-.346.492.988.988,0,0,1-.841.227A1.521,1.521,0,0,1,209.8,63.1a3.641,3.641,0,0,1-.25-2.106l.215-2.608a2.3,2.3,0,0,1,.405-1.331,2.218,2.218,0,0,1,.969-.556,2.905,2.905,0,0,0,.748-.358,2.747,2.747,0,0,0,.8-1.332,5.619,5.619,0,0,1,.38-.862,1.611,1.611,0,0,1,1.5-.736.7.7,0,0,1,.549.367,1.641,1.641,0,0,1,.974-.892c.864-.248,1.916.436,2.935,1.1.929.6,1.807,1.173,2.5,1.048.173-.032.35-.081.52-.129a2.736,2.736,0,0,1,1.121-.154c1,.14,1.516,1.229,1.85,2.162l1.634,4.564a2.139,2.139,0,0,0,1,1.4,2.082,2.082,0,0,0,.683.1,2.314,2.314,0,0,1,.71.1,1.143,1.143,0,0,1,.75.921,2.666,2.666,0,0,1-.879,2.293,10.52,10.52,0,0,1-.958.706,4.108,4.108,0,0,0-1.736,1.758,4.218,4.218,0,0,0-.2,1.335,3.1,3.1,0,0,1-.943,2.472,6.717,6.717,0,0,0-.475.605,6.557,6.557,0,0,0-.808,2.71c-.018.121-.036.242-.054.362a4.717,4.717,0,0,1-1.3,2.96,2.193,2.193,0,0,1-1.4.5" transform="translate(-148.328 -37.267)" fill="#def8bf"/>
            <g id="Group_19396" data-name="Group 19396" transform="translate(41.889 22.89)" opacity="0.6">
              <g id="Group_19395" data-name="Group 19395">
                <g id="Group_19394" data-name="Group 19394" clip-path="url(#clip-path-2)">
                  <path id="Path_15285" data-name="Path 15285" d="M143.464,78.393v0c0,.045-.008.087-.008.132-.006.142-.005.287-.008.431,0-.144,0-.289.008-.431,0-.045,0-.087.008-.132" transform="translate(-143.449 -78.389)" fill="#263238"/>
                </g>
              </g>
            </g>
            <g id="Group_19399" data-name="Group 19399" transform="translate(41.887 24.238)" opacity="0.6">
              <g id="Group_19398" data-name="Group 19398">
                <g id="Group_19397" data-name="Group 19397" clip-path="url(#clip-path-3)">
                  <path id="Path_15286" data-name="Path 15286" d="M143.443,83c0,.117,0,.234.006.35,0-.115,0-.233-.006-.35" transform="translate(-143.443 -83.005)" fill="#263238"/>
                </g>
              </g>
            </g>
            <path id="Path_15287" data-name="Path 15287" d="M146.713,78.564l-.144-.023c-.42-.045-.911-.068-1.142-.416-.269-.4,0-1.006-.28-1.4a2.205,2.205,0,0,0-.6-.446c-.2-.144-.378-.416-.253-.635.1-.185.367-.223.5-.393a.385.385,0,0,0-.008-.472c-.431-.51-.911.529-1.15.775a2.052,2.052,0,0,1-.192.182v0c0,.045-.008.087-.008.132-.006.142-.005.287-.008.431s-.008.287-.008.431c0,.117,0,.233.006.35s0,.234.006.35a4.054,4.054,0,0,1,.737.363c.465.269.983.624,1.013,1.161a.445.445,0,0,0,.049.253.364.364,0,0,0,.223.114,6.587,6.587,0,0,0,1.214.17" transform="translate(-101.543 -52.842)" fill="#e0e0e0"/>
            <path id="Path_15288" data-name="Path 15288" d="M154.2,84.587c.008.48.042.983.034,1.459a16.551,16.551,0,0,0-.163,2.061,5.545,5.545,0,0,0,1.369,2.541c2.231,2.979,3.46,6.552,4.764,10.054h0c.242.193.488.374.737.552q.295.212.6.416t.61.4c.144.091.287.178.435.265-.019-.041-.038-.079-.057-.121-.526-1.153-.556-2.817.575-3.388a2.592,2.592,0,0,0,.639-.336c.5-.477.091-1.459.593-1.936.284-.265.726-.246,1.078-.4a1.777,1.777,0,0,0,.786-1.8,10.992,10.992,0,0,1-.2-2.072c.125-1.047.941-2.11.472-3.055-.526-1.055-2.057-.885-3.134-1.358-1.5-.662-1.97-2.529-2.953-3.849-.881-1.18-2.938-2.477-4.5-2.121a1.908,1.908,0,0,0-1.641,1.766" transform="translate(-109.068 -57.939)" fill="#def8bf"/>
            <path id="Path_15289" data-name="Path 15289" d="M145.695,33.018a1.106,1.106,0,0,1,1.562.049,1.649,1.649,0,0,1,.125,1.221c-.087.559-.174,1.119-.265,1.678a.874.874,0,0,0,.022.5c.166.355.749.287.972-.03a1.55,1.55,0,0,0,.14-1.138,2.158,2.158,0,0,1,.011-1.161c.378-.9,1.721-.764,2.5-1.35a4.238,4.238,0,0,0,.987-1.5,1.667,1.667,0,0,1,1.372-1.04c.2.008.4.083.609.076a.814.814,0,0,0,.522-1.316,1.5,1.5,0,0,1-.265-.272.5.5,0,0,1,.189-.593,1.414,1.414,0,0,1,.635-.2c.51-.083,1.021-.163,1.531-.242.564-.087,1.286-.378,1.206-.941-.068-.488-.73-.707-.828-1.191a1.586,1.586,0,0,0-.064-.355c-.155-.31-.62-.185-.919-.019a.739.739,0,0,0-1.123-.359,1.971,1.971,0,0,0-.446,1.063,5.138,5.138,0,0,1-1.66,2.234,1.383,1.383,0,0,1-.805.454c-.314.015-.643-.322-.5-.6.1-.189.371-.3.344-.51-.038-.265-.5-.246-.59-.5.181-.749,1.04-1.059,1.7-1.459a4.111,4.111,0,0,0,1.735-2.133.541.541,0,0,0,.023-.439c-.1-.189-.352-.219-.567-.219-.507-.008-1.138.06-1.323.533a5.618,5.618,0,0,0-.087.805c-.178.786-1.255.873-1.913,1.342a5.98,5.98,0,0,1-.741.575,2.789,2.789,0,0,1-1.006.163c-.06,0-.121.011-.182.019q-.312.434-.6.884t-.559.912a23.635,23.635,0,0,0-2.072,4.62q-.278.848-.491,1.723t-.36,1.774a6.732,6.732,0,0,0,.431-1.5,2.756,2.756,0,0,1,.752-1.55" transform="translate(-102.312 -16.087)" fill="#def8bf"/>
            <path id="Path_15290" data-name="Path 15290" d="M202.054,8.707c.226-.3.16-.722.306-1.065.243-.569,1-.773,1.261-1.333.1-.216.126-.479.3-.639.147-.134.364-.161.522-.281a.729.729,0,0,0-.168-1.122c-.937-.6-2.662.093-3.472.679-1.041.753-2.059,1.66-3.444,1.572a2.729,2.729,0,0,0-1.137.006c-.358.135-.578.672-.27.9.171.126.414.091.608.18a.772.772,0,0,1,.218,1.035c-.174.353-.488.617-.694.952a1.8,1.8,0,0,0-.257,1.094,1,1,0,0,0,.324.7c.431.344,1.086.049,1.451-.364a5.4,5.4,0,0,1,1.09-1.231,2.716,2.716,0,0,1,.776-.27l1.806-.43a1.309,1.309,0,0,0,.777-.386" transform="translate(-138.63 -2.857)" fill="#def8bf"/>
            <g id="Group_19402" data-name="Group 19402" transform="translate(89.609 22.535)" opacity="0.6">
              <g id="Group_19401" data-name="Group 19401">
                <g id="Group_19400" data-name="Group 19400" clip-path="url(#clip-path-4)">
                  <path id="Path_15291" data-name="Path 15291" d="M306.911,78.2q0-.516-.031-1.025.028.509.031,1.025c.008.11.008.219.008.329,0,.529-.019,1.051-.049,1.573.03-.522.049-1.044.049-1.573,0-.11,0-.219-.008-.329" transform="translate(-306.87 -77.172)" fill="#263238"/>
                </g>
              </g>
            </g>
            <g id="Group_19405" data-name="Group 19405" transform="translate(88.157 15.54)" opacity="0.6">
              <g id="Group_19404" data-name="Group 19404">
                <g id="Group_19403" data-name="Group 19403" clip-path="url(#clip-path-5)">
                  <path id="Path_15292" data-name="Path 15292" d="M301.9,53.221q.17.454.321.914-.151-.46-.321-.914s0,0,0,0Z" transform="translate(-301.897 -53.217)" fill="#263238"/>
                </g>
              </g>
            </g>
            <path id="Path_15293" data-name="Path 15293" d="M246.334,35.512q0-.516-.031-1.025t-.079-1.013c-.027-.272-.057-.541-.095-.809q-.056-.425-.126-.846a23.175,23.175,0,0,0-.558-2.481q-.133-.468-.284-.928t-.321-.914v0h0c-.121-.227-.249-.45-.389-.669-1.327-2.1-3.256-3.751-4.715-5.762-.476-.654-.847-1.2-1.69-1.323-1.247-.193-1.879.518-2.764-.665-.238-.318-.654-.613-1.006-.423.091.253.185.507.276.764a.36.36,0,0,1,.03.166c-.019.178-.284.227-.435.128a1.547,1.547,0,0,1-.333-.427,1.224,1.224,0,0,0-1.8-.147.688.688,0,0,0-.4-.559.82.82,0,0,1-1.028.662c-.072-.231.34-.272.484-.469s-.027-.442-.2-.6a2.627,2.627,0,0,0-1.645-.639,2.255,2.255,0,0,1-1.127-.132c-.193-.114-.329-.3-.525-.412a1.458,1.458,0,0,0-1.369.216,2.672,2.672,0,0,0-1.38,1.357c-.208.628.25,1.478.908,1.4a1.288,1.288,0,0,1,.5-.057.61.61,0,0,1,.359.579,1.708,1.708,0,0,0,.109.707c.114.212.458.318.59.117a1.311,1.311,0,0,0,.193-1.21,1.613,1.613,0,0,1,.087-1.236c.253-.344.972-.234.922.189-.03.25-.314.431-.3.685s.325.393.582.382a2.761,2.761,0,0,1,.768-.038c.253.06.453.39.272.575-.314.356-1.131-.253-1.293.189-.046.113,0,.242-.011.363-.03.371-.5.507-.866.552a2.043,2.043,0,0,1-1.1-.079.7.7,0,0,1-.374-.919.421.421,0,0,0-.578.211,1.213,1.213,0,0,0-.042.688c-.393-.087-.745.246-.968.575s-.442.718-.824.835-.915-.041-1.115.306c-.261.454.5,1.028.231,1.478-.151.253-.514.246-.8.325a1.237,1.237,0,0,0-.507,1.921,1.486,1.486,0,0,0,2.1-.008,6.711,6.711,0,0,0,.813-1.406,1.279,1.279,0,0,1,1.32-.737,1.6,1.6,0,0,1,.541.34c.253.212.506.423.76.639.163.136.34.306.325.518-.015.17-.147.3-.2.461-.159.457.5.892.919.642a.912.912,0,0,0,.178-1.281c-.393-.545-1.282-.817-1.259-1.49.453-.371,1.168.019,1.433.544s.272,1.142.5,1.683.847,1.025,1.369.76c-.136-.469-.269-.934-.4-1.4.333-.249.715.477,1.112.355.242-.076.272-.423.166-.658a3.3,3.3,0,0,1-.336-.684.779.779,0,0,1,.9-.8,1.183,1.183,0,0,1,.885.975,2.152,2.152,0,0,0,.121.541c.174.363.624.473.994.624s.76.526.605.9c-.072.163-.242.318-.181.484.057.147.276.211.276.371,0,.106-.114.178-.212.219-.25.1-.522.136-.764.253a.69.69,0,0,0-.442.613c.03.378.48.559.692.873a4.636,4.636,0,0,1,.3,1.036,3.71,3.71,0,0,0,.571.828,9.4,9.4,0,0,1,1.081,2.969c.136.457.386.968.854,1.055a1.438,1.438,0,0,0,.756-.147,4.558,4.558,0,0,0,1.853-1.1,1.559,1.559,0,0,0,.147-1.989.386.386,0,0,0-.231-.147.7.7,0,0,0-.355.125,1.013,1.013,0,0,1-1.055-.227,2.979,2.979,0,0,1-.628-.941c-.185-.374-.371-.753-.56-1.131a.661.661,0,0,1,.809.076,4.387,4.387,0,0,1,.552.681,3.52,3.52,0,0,0,2.386,1.119,2.283,2.283,0,0,1,.673.14c.669.306.862,1.293,1.569,1.505a4.456,4.456,0,0,1,.6.136,1.107,1.107,0,0,1,.5.749,11.941,11.941,0,0,0,.442,1.671,1.545,1.545,0,0,0,1.278,1.017,1.376,1.376,0,0,0,.96-.427v0c.03-.522.049-1.044.049-1.573,0-.11,0-.219-.008-.329" transform="translate(-156.683 -11.953)" fill="#def8bf"/>
            <path id="Path_15294" data-name="Path 15294" d="M267.925,114.593c-.356.07-.427.279-.621.543-.252.343-.612.687-.842,1.025-.389.574-.039,1.47-.55,1.953a4.216,4.216,0,0,0-.332.272.6.6,0,0,0,.122.834.82.82,0,0,0,.891.016,1.3,1.3,0,0,0,.546-.746,1.255,1.255,0,0,1,.277-.611c.293-.256.747-.066,1.132-.12,1.638-.23.934-3.474-.623-3.167" transform="translate(-187.945 -81.116)" fill="#def8bf"/>
            <rect id="Rectangle_54" data-name="Rectangle 54" width="31.36" height="23.415" transform="translate(92.86 38.908)" fill="#e1f8c5"/>
            <rect id="Rectangle_55" data-name="Rectangle 55" width="31.36" height="2.364" transform="translate(92.86 38.908)" fill="#d9f0bd"/>
            <path id="Path_15295" data-name="Path 15295" d="M321.593,136.522a.316.316,0,1,1-.316-.316.316.316,0,0,1,.316.316" transform="translate(-227.237 -96.432)" fill="#f5f5f5"/>
            <path id="Path_15296" data-name="Path 15296" d="M324.964,136.522a.316.316,0,1,1-.316-.316.316.316,0,0,1,.316.316" transform="translate(-229.624 -96.432)" fill="#f5f5f5"/>
            <path id="Path_15297" data-name="Path 15297" d="M328.335,136.522a.316.316,0,1,1-.316-.316.316.316,0,0,1,.316.316" transform="translate(-232.01 -96.432)" fill="#f5f5f5"/>
            <rect id="Rectangle_56" data-name="Rectangle 56" width="31.36" height="23.415" transform="translate(89.395 43.011)" fill="#e8ffce"/>
            <rect id="Rectangle_57" data-name="Rectangle 57" width="31.36" height="2.364" transform="translate(89.395 43.011)" fill="#d9f0bd"/>
            <path id="Path_15298" data-name="Path 15298" d="M309.728,150.576a.316.316,0,1,1-.316-.316.316.316,0,0,1,.316.316" transform="translate(-218.837 -106.382)" fill="#f5f5f5"/>
            <path id="Path_15299" data-name="Path 15299" d="M313.1,150.576a.316.316,0,1,1-.316-.316.316.316,0,0,1,.316.316" transform="translate(-221.223 -106.382)" fill="#f5f5f5"/>
            <path id="Path_15300" data-name="Path 15300" d="M316.469,150.576a.316.316,0,1,1-.316-.316.316.316,0,0,1,.316.316" transform="translate(-223.609 -106.382)" fill="#f5f5f5"/>
            <rect id="Rectangle_58" data-name="Rectangle 58" width="31.36" height="23.415" transform="translate(84.149 47.149)" fill="#edffd8"/>
            <rect id="Rectangle_59" data-name="Rectangle 59" width="31.36" height="2.364" transform="translate(84.149 47.149)" fill="#d9f0bd"/>
            <path id="Path_15301" data-name="Path 15301" d="M291.761,164.745a.316.316,0,1,1-.316-.316.316.316,0,0,1,.316.316" transform="translate(-206.116 -116.414)" fill="#f5f5f5"/>
            <path id="Path_15302" data-name="Path 15302" d="M295.132,164.745a.316.316,0,1,1-.316-.316.316.316,0,0,1,.316.316" transform="translate(-208.503 -116.414)" fill="#f5f5f5"/>
            <path id="Path_15303" data-name="Path 15303" d="M298.5,164.745a.316.316,0,1,1-.316-.316.316.316,0,0,1,.316.316" transform="translate(-210.889 -116.414)" fill="#f5f5f5"/>
            <path id="Path_15304" data-name="Path 15304" d="M268.212,241.649a.443.443,0,0,1,.008.094l.007.275c0,.252.008.608.014,1.064.006.935.013,2.276.023,3.943v.052h-.052l-14.306.024-13.919-.022-4.218-.024-1.147-.014-.3-.008a.508.508,0,0,1-.1-.008.558.558,0,0,1,.1-.008l.3-.008,1.147-.014,4.218-.024,13.919-.022,14.306.024-.052.052c.01-1.667.018-3.008.023-3.943.006-.456.01-.812.014-1.064,0-.115.005-.206.007-.275a.454.454,0,0,1,.008-.094" transform="translate(-165.826 -171.085)" fill="#ebebeb"/>
            <path id="Path_15305" data-name="Path 15305" d="M349.414,104.1c-.042,0-.076-2.679-.076-5.983s.034-5.984.076-5.984.076,2.679.076,5.984-.034,5.983-.076,5.983" transform="translate(-247.327 -65.231)" fill="#ebebeb"/>
          </g>
        </g>
        <g id="Group_19409" data-name="Group 19409">
          <g id="Group_19458" data-name="Group 19458">
            <path id="Path_15306" data-name="Path 15306" d="M388.732,309.943a10.005,10.005,0,0,1,.779-11.675,4.206,4.206,0,0,1,3.33-1.727,3.476,3.476,0,0,1,2.8,2.517,8.239,8.239,0,0,1,.027,3.949,9.837,9.837,0,0,1-2.158,5.068c-1.271,1.361-3.139,2.759-4.773,1.867" transform="translate(-274.143 -209.941)" fill="#70bc56"/>
            <path id="Path_15307" data-name="Path 15307" d="M395.814,384.243a5.235,5.235,0,0,1,1.459-5.944,2.2,2.2,0,0,1,1.872-.588,1.818,1.818,0,0,1,1.212,1.55,4.311,4.311,0,0,1-.344,2.037,5.147,5.147,0,0,1-1.571,2.416c-.779.586-1.867,1.137-2.628.529" transform="translate(-279.959 -267.381)" fill="#70bc56"/>
            <path id="Path_15308" data-name="Path 15308" d="M358.651,375.469a7.575,7.575,0,0,0-3.818-7.994,3.184,3.184,0,0,0-2.826-.282,2.631,2.631,0,0,0-1.262,2.554,6.241,6.241,0,0,0,1.088,2.785,7.445,7.445,0,0,0,2.938,2.96c1.275.6,2.981,1.062,3.88-.024" transform="translate(-248.319 -259.809)" fill="#70bc56"/>
            <path id="Path_15309" data-name="Path 15309" d="M357.657,341.436c1.1-3.538-.763-7.828-3.861-9.858a3.724,3.724,0,0,0-3.254-.659,3.077,3.077,0,0,0-1.767,2.823,7.3,7.3,0,0,0,.938,3.367,8.708,8.708,0,0,0,3.07,3.788c1.413.849,3.7,1.7,4.873.539" transform="translate(-246.928 -234.174)" fill="#70bc56"/>
            <path id="Path_15310" data-name="Path 15310" d="M367.564,390.821a.761.761,0,0,1-.036-.171l-.074-.494c-.015-.109-.032-.228-.05-.357l-.081-.421c-.058-.3-.117-.647-.216-1.021l-.143-.59-.185-.631c-.118-.439-.293-.893-.456-1.377a24.108,24.108,0,0,0-3.135-5.842c-.313-.4-.6-.8-.9-1.142l-.424-.5-.413-.445c-.257-.289-.512-.529-.731-.744l-.306-.3-.27-.239-.371-.334a.807.807,0,0,1-.123-.124.74.74,0,0,1,.142.1l.39.313.28.23.315.292c.226.21.487.446.75.732l.422.441.433.5c.307.34.594.735.912,1.139a23.1,23.1,0,0,1,3.153,5.876c.161.488.332.946.445,1.39l.178.637.134.6c.093.378.145.726.2,1.031l.069.424q.02.195.037.36c.018.2.034.368.046.5a.756.756,0,0,1,.006.174" transform="translate(-254.632 -266.265)" fill="#263238"/>
            <path id="Path_15311" data-name="Path 15311" d="M368.319,367.545a.243.243,0,0,1,0-.071l.015-.205c.018-.192.042-.455.072-.786l.056-.567c.016-.208.021-.435.034-.677.018-.486.065-1.039.047-1.651q0-.46,0-.961c0-.334-.035-.681-.052-1.04-.024-.72-.122-1.483-.209-2.288a32.761,32.761,0,0,0-2.981-10.051c-.366-.722-.7-1.415-1.072-2.032-.182-.311-.344-.618-.523-.9l-.52-.808c-.319-.523-.66-.961-.94-1.358-.143-.2-.271-.384-.4-.549l-.356-.445-.489-.62-.124-.164a.241.241,0,0,1-.039-.059.268.268,0,0,1,.05.049l.136.154.512.6.367.438c.13.163.262.348.409.543.287.394.635.829.961,1.35l.53.806c.183.281.348.589.533.9.378.616.718,1.311,1.089,2.034a32.013,32.013,0,0,1,2.993,10.094c.083.808.177,1.575.2,2.3.014.361.043.709.043,1.044s0,.657,0,.964c.011.615-.043,1.169-.07,1.656-.017.243-.027.47-.046.678l-.069.567-.1.784-.03.2a.244.244,0,0,1-.015.069" transform="translate(-255.468 -242.353)" fill="#263238"/>
            <path id="Path_15312" data-name="Path 15312" d="M392.39,311.051a.257.257,0,0,1-.029.065l-.1.184-.392.7c-.084.152-.185.317-.282.5l-.306.616-.353.707c-.119.253-.233.527-.359.81s-.26.581-.387.895l-.38.986-.2.52-.184.545-.383,1.137c-.485,1.57-.945,3.318-1.334,5.174s-.64,3.648-.835,5.28c-.167,1.635-.291,3.111-.324,4.354-.032.621-.038,1.183-.04,1.677s-.01.92,0,1.267.008.606.011.8c0,.084,0,.153,0,.209a.262.262,0,0,1-.006.072.256.256,0,0,1-.01-.071c0-.056-.008-.124-.014-.208l-.039-.8c-.02-.348-.027-.774-.027-1.269s-.007-1.058.018-1.681c.02-1.246.133-2.726.293-4.366.188-1.636.448-3.431.825-5.3s.855-3.614,1.349-5.186l.39-1.139.188-.545.2-.52.389-.986c.13-.314.271-.609.4-.894s.247-.556.37-.808l.364-.7.318-.612c.1-.186.206-.35.294-.5l.416-.686.111-.176a.262.262,0,0,1,.042-.057" transform="translate(-273.577 -220.221)" fill="#263238"/>
            <path id="Path_15313" data-name="Path 15313" d="M395.346,384.655a3.123,3.123,0,0,1-.244.428c-.167.268-.4.663-.667,1.158s-.568,1.1-.868,1.78-.585,1.452-.842,2.272a24.139,24.139,0,0,0-.587,2.352c-.137.733-.234,1.4-.288,1.959s-.09,1.017-.1,1.333a3.129,3.129,0,0,1-.04.49,3.062,3.062,0,0,1-.018-.492c-.005-.317.012-.776.055-1.341a19.8,19.8,0,0,1,.258-1.975,20.368,20.368,0,0,1,1.438-4.654,19.913,19.913,0,0,1,.9-1.776c.283-.491.527-.88.71-1.139a3.1,3.1,0,0,1,.293-.4" transform="translate(-277.312 -272.331)" fill="#263238"/>
            <path id="Path_15314" data-name="Path 15314" d="M371.334,421.146h10.06l-1.217,10.274h-7.589Z" transform="translate(-262.901 -298.167)" fill="#455a64"/>
            <path id="Path_15315" data-name="Path 15315" d="M372.591,452.534l.854,1.109h7.621l.879-1.074Z" transform="translate(-263.791 -320.389)" fill="#263238"/>
            <path id="Path_15316" data-name="Path 15316" d="M381.833,431.313c0,.041-2.088.075-4.662.075s-4.663-.034-4.663-.075,2.087-.075,4.663-.075,4.662.034,4.662.075" transform="translate(-263.732 -305.312)" fill="#fafafa"/>
            <path id="Path_15317" data-name="Path 15317" d="M381.833,433.655c0,.042-2.088.075-4.662.075s-4.663-.034-4.663-.075,2.087-.075,4.663-.075,4.662.034,4.662.075" transform="translate(-263.732 -306.97)" fill="#fafafa"/>
            <path id="Path_15318" data-name="Path 15318" d="M382.2,435.923c0,.041-2.015.075-4.5.075s-4.5-.034-4.5-.075,2.014-.075,4.5-.075,4.5.034,4.5.075" transform="translate(-264.219 -308.576)" fill="#fafafa"/>
          </g>
        </g>
        <g id="Group_19411" data-name="Group 19411">
          <g id="Group_19457" data-name="Group 19457">
            <path id="Path_15319" data-name="Path 15319" d="M158.058,52.558H82.693a5.565,5.565,0,1,0,0,11.131h75.364a5.565,5.565,0,1,0,0-11.131" transform="translate(-54.606 -37.21)" fill="#fff"/>
            <path id="Path_15320" data-name="Path 15320" d="M328.378,63.69H317.485V52.559h10.893a5.415,5.415,0,0,1,5.415,5.415v.3a5.415,5.415,0,0,1-5.415,5.415" transform="translate(-224.776 -37.211)" fill="#70bc56"/>
            <path id="Path_15321" data-name="Path 15321" d="M336.623,65.08a2.426,2.426,0,1,1,2.426-2.426,2.429,2.429,0,0,1-2.426,2.426m0-4.5a2.071,2.071,0,1,0,2.071,2.071,2.074,2.074,0,0,0-2.071-2.071" transform="translate(-236.608 -42.641)" fill="#fff"/>
            <path id="Path_15322" data-name="Path 15322" d="M349.359,76.114a.177.177,0,0,1-.126-.052L347.1,73.933a.178.178,0,0,1,.251-.251l2.129,2.129a.178.178,0,0,1-.126.3" transform="translate(-245.709 -52.129)" fill="#fff"/>
            <path id="Path_15323" data-name="Path 15323" d="M96.1,63.17a.907.907,0,0,1-.026-.2,1.639,1.639,0,0,0-.03-.243,2.377,2.377,0,0,0-.068-.326,3.07,3.07,0,0,0-.35-.837,3.157,3.157,0,0,0-.793-.891,3.118,3.118,0,0,0-2.944-.468,2.915,2.915,0,0,0-.79.415,2.838,2.838,0,0,0-.663.652,3.093,3.093,0,0,0-.043,3.666,2.839,2.839,0,0,0,.647.668,2.919,2.919,0,0,0,.78.434,3.14,3.14,0,0,0,3.769-1.271,3.066,3.066,0,0,0,.369-.828,2.332,2.332,0,0,0,.076-.324,1.654,1.654,0,0,0,.036-.242.9.9,0,0,1,.03-.2.883.883,0,0,1,0,.2,1.431,1.431,0,0,1-.02.247,2.2,2.2,0,0,1-.061.334,2.994,2.994,0,0,1-.352.862,3.231,3.231,0,0,1-2.2,1.524,3.261,3.261,0,0,1-1.714-.153,3.068,3.068,0,0,1-.824-.452,2.993,2.993,0,0,1-.685-.7,3.249,3.249,0,0,1,.045-3.87,3.715,3.715,0,0,1,.326-.375,3.677,3.677,0,0,1,.376-.31,3.059,3.059,0,0,1,.835-.432,3.256,3.256,0,0,1,1.716-.113,3.231,3.231,0,0,1,2.159,1.575,2.994,2.994,0,0,1,.332.87,2.191,2.191,0,0,1,.053.335,1.421,1.421,0,0,1,.014.248.872.872,0,0,1-.01.2" transform="translate(-63.464 -42.389)" fill="#e0e0e0"/>
            <path id="Path_15324" data-name="Path 15324" d="M97.37,64.227c.007.01-.05.06-.16.145l-.2.15c-.04.028-.082.06-.129.091l-.156.084a3.6,3.6,0,0,1-1.868.5l-.284-.009-.273-.039c-.044-.007-.089-.012-.132-.02l-.128-.032c-.084-.022-.167-.041-.246-.065a4.113,4.113,0,0,1-.8-.356,1.82,1.82,0,0,1-.625-.5c.017-.02.251.174.685.392a4.811,4.811,0,0,0,.787.31c.077.021.157.037.237.057l.122.029.127.018.26.035.271.008a3.883,3.883,0,0,0,1.809-.43l.158-.071c.048-.026.092-.054.133-.077l.216-.123c.12-.066.19-.1.2-.088" transform="translate(-65.394 -45.43)" fill="#e0e0e0"/>
            <path id="Path_15325" data-name="Path 15325" d="M92.206,75.523c-.007-.01.05-.06.16-.145l.2-.15c.04-.028.082-.06.129-.091l.156-.084a3.6,3.6,0,0,1,1.868-.5l.284.009.273.039c.045.007.089.012.133.02l.128.032c.084.022.167.041.246.065a4.113,4.113,0,0,1,.8.356,1.826,1.826,0,0,1,.625.5c-.017.02-.252-.174-.685-.392a4.812,4.812,0,0,0-.787-.31c-.076-.021-.157-.037-.237-.057l-.123-.029-.127-.018-.261-.035-.27-.008a3.879,3.879,0,0,0-1.809.43l-.158.071c-.048.026-.092.054-.133.077l-.216.123c-.12.066-.191.1-.2.088" transform="translate(-65.281 -52.787)" fill="#e0e0e0"/>
            <path id="Path_15326" data-name="Path 15326" d="M96.313,71.1a29.022,29.022,0,0,1-3.188.05,29.116,29.116,0,0,1-3.186-.125,29.055,29.055,0,0,1,3.188-.051,29.076,29.076,0,0,1,3.186.125" transform="translate(-63.675 -50.242)" fill="#e0e0e0"/>
            <path id="Path_15327" data-name="Path 15327" d="M100.344,66.495a29,29,0,0,1-.05-3.187,29.1,29.1,0,0,1,.125-3.186,29.033,29.033,0,0,1,.051,3.188,29.053,29.053,0,0,1-.125,3.185" transform="translate(-71.001 -42.566)" fill="#e0e0e0"/>
            <path id="Path_15328" data-name="Path 15328" d="M96.544,66.485a2.558,2.558,0,0,1-.778-.749,4.279,4.279,0,0,1-.583-1.027,3.839,3.839,0,0,1-.265-1.425,3.658,3.658,0,0,1,.3-1.418,4.434,4.434,0,0,1,.61-1.01,2.715,2.715,0,0,1,.786-.74c.018.02-.3.285-.687.815a4.77,4.77,0,0,0-.559,1,3.675,3.675,0,0,0-.278,1.357,3.876,3.876,0,0,0,.24,1.366,4.6,4.6,0,0,0,.532,1.012c.376.538.7.8.678.822" transform="translate(-67.201 -42.56)" fill="#e0e0e0"/>
            <path id="Path_15329" data-name="Path 15329" d="M100.8,60.118a2.558,2.558,0,0,1,.778.749,4.279,4.279,0,0,1,.583,1.027,3.839,3.839,0,0,1,.265,1.425,3.658,3.658,0,0,1-.3,1.418,4.433,4.433,0,0,1-.61,1.01,2.718,2.718,0,0,1-.786.74c-.018-.02.3-.285.687-.815a4.77,4.77,0,0,0,.559-1,3.675,3.675,0,0,0,.278-1.357,3.878,3.878,0,0,0-.24-1.366,4.6,4.6,0,0,0-.532-1.012c-.376-.538-.7-.8-.678-.822" transform="translate(-71.313 -42.563)" fill="#e0e0e0"/>
            <path id="Path_15330" data-name="Path 15330" d="M122.042,66.918c-.042,0-.076-1.7-.076-3.788s.034-3.788.076-3.788.076,1.7.076,3.788-.034,3.788-.076,3.788" transform="translate(-86.351 -42.013)" fill="#e0e0e0"/>
            <path id="Path_15331" data-name="Path 15331" d="M133.476,68.658v1.364h-.318V68.689a.657.657,0,0,0-.707-.752.771.771,0,0,0-.823.85v1.235h-.318V66.7h.318v1.378a.994.994,0,0,1,.881-.429.9.9,0,0,1,.966,1.007" transform="translate(-92.967 -47.225)" fill="#263238"/>
            <path id="Path_15332" data-name="Path 15332" d="M142.033,70.974a.756.756,0,0,1-.5.166.623.623,0,0,1-.689-.684V69.033h-.421v-.268h.421V68.25h.318v.515h.716v.268h-.716v1.4a.377.377,0,0,0,.407.429.525.525,0,0,0,.349-.121Z" transform="translate(-99.421 -48.32)" fill="#263238"/>
            <path id="Path_15333" data-name="Path 15333" d="M148.039,70.974a.756.756,0,0,1-.5.166.623.623,0,0,1-.689-.684V69.033h-.421v-.268h.421V68.25h.318v.515h.716v.268h-.716v1.4a.377.377,0,0,0,.407.429.525.525,0,0,0,.349-.121Z" transform="translate(-103.673 -48.32)" fill="#263238"/>
            <path id="Path_15334" data-name="Path 15334" d="M156.295,71.145a1.14,1.14,0,0,1-1.172,1.2,1.028,1.028,0,0,1-.895-.465V73.19h-.318V69.969h.3v.465a1.025,1.025,0,0,1,.908-.483,1.138,1.138,0,0,1,1.172,1.194m-.318,0a.878.878,0,1,0-.877.917.867.867,0,0,0,.877-.917" transform="translate(-108.967 -49.525)" fill="#263238"/>
            <path id="Path_15335" data-name="Path 15335" d="M163.593,70.192a.237.237,0,0,1,.237-.242.241.241,0,0,1,.241.242.244.244,0,0,1-.241.246.241.241,0,0,1-.237-.246m0,1.906a.237.237,0,0,1,.237-.241.24.24,0,0,1,.241.241.244.244,0,0,1-.241.246.241.241,0,0,1-.237-.246" transform="translate(-115.822 -49.524)" fill="#263238"/>
            <path id="Path_15336" data-name="Path 15336" d="M167.812,65.171h.291l-1.476,4.214h-.291Z" transform="translate(-117.764 -46.14)" fill="#263238"/>
            <path id="Path_15337" data-name="Path 15337" d="M175.375,70.012l-.89,2.353h-.3l-.743-1.928-.743,1.928h-.3l-.886-2.353h.3l.738,2,.756-2h.273l.752,2,.747-2Z" transform="translate(-121.43 -49.568)" fill="#263238"/>
            <path id="Path_15338" data-name="Path 15338" d="M188.766,70.012l-.89,2.353h-.3l-.743-1.928-.743,1.928h-.3l-.886-2.353h.3l.738,2,.756-2h.273l.752,2,.747-2Z" transform="translate(-130.911 -49.568)" fill="#263238"/>
            <path id="Path_15339" data-name="Path 15339" d="M202.158,70.012l-.89,2.353h-.3l-.743-1.928-.743,1.928h-.3l-.886-2.353h.3l.738,2,.756-2h.273l.752,2,.747-2Z" transform="translate(-140.392 -49.568)" fill="#263238"/>
            <path id="Path_15340" data-name="Path 15340" d="M211.933,76.718a.237.237,0,0,1,.237-.241.24.24,0,0,1,.242.241.245.245,0,0,1-.242.246.241.241,0,0,1-.237-.246" transform="translate(-150.046 -54.145)" fill="#263238"/>
            <path id="Path_15341" data-name="Path 15341" d="M219.7,70.843a15.067,15.067,0,0,1-.1-2.414,15.063,15.063,0,0,1,.1-2.414,15.13,15.13,0,0,1,.1,2.414,15.133,15.133,0,0,1-.1,2.414" transform="translate(-155.475 -46.737)" fill="#ff725e"/>
            <path id="Path_15342" data-name="Path 15342" d="M157.886,52.373s.162,0,.479.016c.159,0,.353.046.586.077.117.017.238.056.371.087a2.754,2.754,0,0,1,.418.127,5.524,5.524,0,0,1,1.951,1.175,6.046,6.046,0,0,1,.49.509c.077.095.149.2.226.3l.115.153.1.166a5.3,5.3,0,0,1,.664,1.525,5.575,5.575,0,0,1-.347,3.834,5.547,5.547,0,0,1-4.7,3.191c-.436.033-.871.013-1.318.019l-2.756,0-5.992.006-65.645.022a5.642,5.642,0,0,1-3.192-10.293,5.543,5.543,0,0,1,2.133-.886,12.794,12.794,0,0,1,2.284-.1l17.43,0,29.513.016,19.9.024,5.409.014,1.407.007c.317,0,.479.008.479.008s-.162.005-.479.008L156,52.388l-5.409.014-19.9.024-29.513.016-17.43,0a12.7,12.7,0,0,0-2.256.1,5.394,5.394,0,0,0-2.076.863A5.518,5.518,0,0,0,77.087,57.2a5.46,5.46,0,0,0,1.285,4.324,5.516,5.516,0,0,0,4.154,1.9l65.645.022,5.992.006,2.756,0c.444-.006.887.016,1.312-.016a5.615,5.615,0,0,0,1.241-.215,5.533,5.533,0,0,0,3.758-6.707,5.255,5.255,0,0,0-.651-1.513l-.1-.165-.113-.152c-.076-.1-.147-.2-.223-.295a6.008,6.008,0,0,0-.484-.507,5.525,5.525,0,0,0-1.931-1.179,2.739,2.739,0,0,0-.415-.13c-.132-.032-.253-.072-.369-.091-.232-.033-.425-.077-.583-.084-.316-.018-.478-.032-.478-.032" transform="translate(-54.434 -37.025)" fill="#263238"/>
          </g>
        </g>
        <path id="Path_15343" data-name="Path 15343" d="M18.345,429.616l3.279.03,4.656-11.039-6.49-.009Z" transform="translate(-12.988 -296.362)" fill="#263238"/>
        <path id="Path_15344" data-name="Path 15344" d="M79.621,429.68l3.279.029,4.594-10.988-6.44-.013Z" transform="translate(-56.371 -296.44)" fill="#263238"/>
        <g id="Group_19449" data-name="Group 19449">
          <g id="Group_19455" data-name="Group 19455">
            <path id="Path_15345" data-name="Path 15345" d="M17.686,186.554c1.8-2.7,37.331-3.1,38.851-.283l12.981,24.672,19.524-.9a7.6,7.6,0,0,1,5.193,2.332c1.267,1.212,1.2,8.855.846,11.807-.238,1.966-3.231,28.7-3.231,28.7l-73.559-.149s-2.4-63.486-.605-66.185" transform="translate(-12.048 -130.509)" fill="#455a64"/>
            <path id="Path_15346" data-name="Path 15346" d="M92.8,388.8s.008-.08.013-.235.012-.391.021-.689c.015-.611.036-1.5.064-2.641.048-2.295.117-5.595.2-9.641l-.061.06,22.34.159,23.147.128-.058-.049a37.869,37.869,0,0,1,.409,9.025c-.078,1.07-.181,1.9-.254,2.459l-.09.638c-.02.144-.025.218-.025.218a29.139,29.139,0,0,0,.435-3.311,37.161,37.161,0,0,0-.359-9.05l-.008-.049h-.05l-23.146-.166-22.34-.124h-.06v.06c-.062,4.047-.113,7.347-.148,9.642-.013,1.14-.024,2.031-.032,2.642,0,.3,0,.528,0,.689s0,.235,0,.235" transform="translate(-65.698 -265.873)" fill="#263238"/>
            <path id="Path_15347" data-name="Path 15347" d="M86.066,279.182s-.05,0-.15,0a3,3,0,0,0-.441.022,4.5,4.5,0,0,0-1.631.511,6.128,6.128,0,0,0-2.053,1.811,8.241,8.241,0,0,0-1.4,3.406,23.76,23.76,0,0,0-.3,4.547c0,1.653.057,3.434.167,5.326.219,3.785.688,8.006,1.193,12.559l.007.064h.064l18.6.126,33.735.2h.055l0-.053a29.857,29.857,0,0,0-.331-6.7,11.832,11.832,0,0,0-1.746-4.737,4.862,4.862,0,0,0-1.31-1.306l-.163-.113-.169-.088-.317-.164c-.215-.073-.405-.156-.583-.2l-.475-.1c-.138-.017-.256-.021-.35-.029-.188-.013-.284-.016-.284-.016s.1.014.283.032c.093.011.21.018.347.037l.47.107c.176.047.364.131.576.206l.312.166.166.089.16.113a4.838,4.838,0,0,1,1.285,1.3,11.831,11.831,0,0,1,1.708,4.716,29.939,29.939,0,0,1,.307,6.68l.058-.053-33.735-.239-18.6-.115.072.065c-.512-4.554-.988-8.771-1.216-12.551-.115-1.89-.175-3.668-.183-5.319a23.811,23.811,0,0,1,.279-4.53,8.194,8.194,0,0,1,1.364-3.382,6.116,6.116,0,0,1,2.02-1.81,4.582,4.582,0,0,1,1.612-.528c.385-.049.588-.032.588-.044" transform="translate(-56.708 -197.656)" fill="#263238"/>
            <path id="Path_15348" data-name="Path 15348" d="M254.267,419.051l1.066,10.877-3.279-.03-4.106-10.86Z" transform="translate(-175.544 -296.675)" fill="#263238"/>
            <path id="Path_15349" data-name="Path 15349" d="M228.617,329.137a1.376,1.376,0,0,1-.326-.034l-.878-.147c-.741-.125-1.763-.306-2.9-.429a26.345,26.345,0,0,0-2.924-.138l-.889.012a.165.165,0,1,1,0-.059c.21-.022.514-.042.89-.06a20.2,20.2,0,0,1,2.943.094c1.145.124,2.167.323,2.9.475.368.077.665.144.87.194a1.373,1.373,0,0,1,.314.093" transform="translate(-156.02 -232.408)" fill="#263238"/>
            <path id="Path_15350" data-name="Path 15350" d="M251.362,272.529c.006.014-.237.12-.653.35a8.4,8.4,0,0,0-1.62,1.186,10.221,10.221,0,0,0-1.85,2.326,13,13,0,0,0-1.372,3.372,24.71,24.71,0,0,0-.543,6.613c.025.853.058,1.544.078,2.021.008.226.015.409.02.55a.1.1,0,1,1-.031,0c-.013-.141-.028-.323-.048-.548-.038-.477-.088-1.166-.126-2.021s-.062-1.874-.008-3.006a18.933,18.933,0,0,1,.51-3.648,12.835,12.835,0,0,1,1.4-3.407,10.031,10.031,0,0,1,1.9-2.333,7.828,7.828,0,0,1,1.664-1.159,5.158,5.158,0,0,1,.5-.231.9.9,0,0,1,.18-.067" transform="translate(-173.584 -192.947)" fill="#263238"/>
            <g id="Group_19414" data-name="Group 19414" transform="translate(38.96 97.829)" opacity="0.3">
              <g id="Group_19413" data-name="Group 19413">
                <g id="Group_19412" data-name="Group 19412" clip-path="url(#clip-path-6)">
                  <path id="Path_15351" data-name="Path 15351" d="M133.783,337.221a26.229,26.229,0,0,0,6.769.675,169.505,169.505,0,0,0,1.837,21.22,4.789,4.789,0,0,0,1.777.524,1.631,1.631,0,0,0,1.55-.834,2.39,2.39,0,0,0,.124-1.09,178.525,178.525,0,0,0-2.179-21.117,1.476,1.476,0,0,0-2.1-1.5q-4.112.767-8.144,1.9" transform="translate(-133.421 -335.019)"/>
                </g>
              </g>
            </g>
            <g id="Group_19417" data-name="Group 19417" transform="translate(36.083 99.438)" opacity="0.3">
              <g id="Group_19416" data-name="Group 19416">
                <g id="Group_19415" data-name="Group 19415" clip-path="url(#clip-path-7)">
                  <path id="Path_15352" data-name="Path 15352" d="M123.569,340.53l.685,9.718s2.3-5.256,1.709-7.268a3.571,3.571,0,0,0-2.394-2.45" transform="translate(-123.569 -340.53)"/>
                </g>
              </g>
            </g>
            <path id="Path_15353" data-name="Path 15353" d="M96.008,148.282,95.325,125.3l-.743-1.322a2,2,0,0,0-2.42.032,4.292,4.292,0,0,0-1.405,2.155c-1.364,3.955-.284,8.3-.573,12.472a4.99,4.99,0,0,1-.732,2.585c-.714,1-2.039,1.5-2.586,2.6a2.369,2.369,0,0,0,.806,2.938,5.4,5.4,0,0,0-1.806,1.435,1.844,1.844,0,0,0-.076,2.164,2.649,2.649,0,0,0,2.343.581,32.931,32.931,0,0,0,6.971-1.374,1.361,1.361,0,0,0,.754-.443,1.391,1.391,0,0,0,.152-.838" transform="translate(-60.512 -87.495)" fill="#263238"/>
            <path id="Path_15354" data-name="Path 15354" d="M104.851,149.474a1.756,1.756,0,0,0,.638-.434,3.443,3.443,0,0,0,.681-1.975,48.345,48.345,0,0,0-.034-7.071c-.106-1.379-.271-2.686-.457-3.87a7.64,7.64,0,0,1-.038-3.188,3.138,3.138,0,0,1,1.191-1.772,2.231,2.231,0,0,1,.528-.261,1,1,0,0,1,.2-.046,2.966,2.966,0,0,0-.694.355,3.138,3.138,0,0,0-1.121,1.751,7.681,7.681,0,0,0,.073,3.138c.194,1.185.364,2.5.47,3.88a44.16,44.16,0,0,1-.01,7.094,3.421,3.421,0,0,1-.744,2,1.522,1.522,0,0,1-.484.336.957.957,0,0,1-.2.057" transform="translate(-74.233 -92.646)" fill="#455a64"/>
            <path id="Path_15355" data-name="Path 15355" d="M122.722,128.917c-.068.324.157-.271,0,0" transform="translate(-86.876 -91.22)" fill="#ff725e"/>
            <path id="Path_15356" data-name="Path 15356" d="M115.461,124.292a.741.741,0,0,0-.979.057,3.625,3.625,0,0,0-1.176,1.67,8.718,8.718,0,0,0-.469,2.172,1.454,1.454,0,0,0,.232,1.194.556.556,0,0,0,.7-.01,2.085,2.085,0,0,0,.526-.647,15.283,15.283,0,0,0,1.425-3.148,2.052,2.052,0,0,0-.256-1.286" transform="translate(-79.872 -87.882)" fill="#70bc56"/>
            <path id="Path_15357" data-name="Path 15357" d="M113.3,124.3c.586-2.492,1.635-5.038,3.7-6.551a10.663,10.663,0,0,1,6.8-1.693,8.072,8.072,0,0,1,3.329,1.227c1.315.8,1.832,2.358,2.433,3.776,1.2,2.841.916,6.625.005,7.65l-11.9,5.8c-2.035-1.145-4.241-2.687-4.715-4.973a13.485,13.485,0,0,1,.345-5.232" transform="translate(-79.872 -82.147)" fill="#263238"/>
            <path id="Path_15358" data-name="Path 15358" d="M126.871,124.5l7.431-1.932c2.382-.268,3.987,2.656,4.154,5.048a42.627,42.627,0,0,1,.006,7.893,5.912,5.912,0,0,1-3.661,4.94c0-.013-.007,3.467-.022,4.652l-3.466,10.559-4.93-10.559-.758-19.169a1.4,1.4,0,0,1,1.245-1.431" transform="translate(-88.941 -86.766)" fill="#ffbe9d"/>
            <path id="Path_15364" data-name="Path 15364" d="M144.109,180.583l-.022.993c-3.989.4-5.328-2.381-5.328-2.381a10.145,10.145,0,0,0,5.351,1.388" transform="translate(-98.239 -126.868)" fill="#eb996e"/>
            <path id="Path_15369" data-name="Path 15369" d="M123.967,150.462c-.055-.025-2.22-.713-2.2,1.513a1.674,1.674,0,0,0,2.254,1.683c0-.064-.053-3.2-.053-3.2" transform="translate(-86.209 -106.441)" fill="#ffbe9d"/>
            <path id="Path_15370" data-name="Path 15370" d="M124.7,154.57c-.01-.007-.039.027-.1.058a.386.386,0,0,1-.29.008.959.959,0,0,1-.452-.857,1.283,1.283,0,0,1,.1-.556.447.447,0,0,1,.289-.3.2.2,0,0,1,.23.1c.03.062.017.107.029.11s.047-.038.029-.129a.249.249,0,0,0-.089-.139.293.293,0,0,0-.215-.055.545.545,0,0,0-.4.349,1.32,1.32,0,0,0-.129.622,1.007,1.007,0,0,0,.574.956.415.415,0,0,0,.354-.062c.069-.055.08-.105.072-.11" transform="translate(-87.58 -108.189)" fill="#eb996e"/>
            <path id="Path_15371" data-name="Path 15371" d="M124.406,160.9c-.01-.01-.1.094-.084.293a.414.414,0,0,0,.157.312.461.461,0,0,0,.427.031.45.45,0,0,0,.3-.309.463.463,0,0,0-.061-.342c-.11-.172-.251-.188-.249-.176s.1.06.179.215a.409.409,0,0,1,.03.279.361.361,0,0,1-.235.228.374.374,0,0,1-.328-.011.352.352,0,0,1-.138-.236,1.229,1.229,0,0,1,0-.283" transform="translate(-88.018 -113.777)" fill="#e0e0e0"/>
            <path id="Path_15372" data-name="Path 15372" d="M154.67,126.13a3.479,3.479,0,0,0-1.5-1.468c-.618-.352-1.288-.608-1.9-.965a6.69,6.69,0,0,1-2.991-3.742,4.016,4.016,0,0,1,3.564.046,5.443,5.443,0,0,1,2.463,2.661,8.531,8.531,0,0,1,.68,3.605" transform="translate(-104.976 -84.647)" fill="#263238"/>
            <path id="Path_15373" data-name="Path 15373" d="M122.882,122.441a7.607,7.607,0,0,1,6.9-1.695,12.655,12.655,0,0,1-2.977,5.416c-1.252,1.446-2.008,3.98-4.731,3.119-.188-.059-.4.112-.572.012a.7.7,0,0,1-.263-.413,6.384,6.384,0,0,1,1.641-6.439" transform="translate(-85.635 -85.3)" fill="#263238"/>
            <path id="Path_15374" data-name="Path 15374" d="M124.345,124.972a.283.283,0,0,0,.047.075c.035.046.081.118.154.2a4.027,4.027,0,0,0,.676.637,4.382,4.382,0,0,0,5.66-.311,4.018,4.018,0,0,0,.6-.708,2.441,2.441,0,0,0,.131-.216.288.288,0,0,0,.038-.08,6.1,6.1,0,0,1-.821.949,4.563,4.563,0,0,1-1.129.747,4.256,4.256,0,0,1-3.233.178,4.563,4.563,0,0,1-1.2-.618,6.093,6.093,0,0,1-.92-.854" transform="translate(-88.035 -88.195)" fill="#fff"/>
            <path id="Path_15375" data-name="Path 15375" d="M120.688,128.335a.407.407,0,0,0,.074.076,2.3,2.3,0,0,0,.233.2,3.483,3.483,0,0,0,.993.52,4.425,4.425,0,0,0,1.648.223,5.1,5.1,0,0,0,1.971-.507,6.457,6.457,0,0,0,1.649-1.194,8.481,8.481,0,0,0,1.059-1.281,10.071,10.071,0,0,0,.579-.958c.063-.116.106-.209.137-.272a.4.4,0,0,0,.041-.1.417.417,0,0,0-.059.088l-.154.262c-.133.227-.332.552-.6.936a8.9,8.9,0,0,1-1.066,1.254,6.536,6.536,0,0,1-1.628,1.169,5.1,5.1,0,0,1-1.93.5,4.476,4.476,0,0,1-1.619-.2,3.731,3.731,0,0,1-.992-.484c-.215-.15-.324-.248-.331-.24" transform="translate(-85.445 -88.527)" fill="#455a64"/>
            <path id="Path_15376" data-name="Path 15376" d="M116.876,151.324a.426.426,0,0,1-.118-.054c-.074-.041-.186-.1-.322-.185a8.86,8.86,0,0,1-1.109-.8,7.9,7.9,0,0,1-1.373-1.5,7.682,7.682,0,0,1-1.064-2.249,8.839,8.839,0,0,1-.108-4.481,8.008,8.008,0,0,1,.425-1.3c.061-.15.121-.26.158-.337a.427.427,0,0,1,.065-.112,3.868,3.868,0,0,1-.168.471,9.652,9.652,0,0,0-.375,1.3,9.1,9.1,0,0,0,.149,4.415,7.779,7.779,0,0,0,1.033,2.212,8.215,8.215,0,0,0,1.328,1.5,10.871,10.871,0,0,0,1.071.833,3.733,3.733,0,0,1,.408.289" transform="translate(-79.681 -99.334)" fill="#455a64"/>
            <path id="Path_15377" data-name="Path 15377" d="M222.833,370.209l3.719,6.758s7.822-1.988,8.632-.806l-12.549,8.158-6.227-10.292Z" transform="translate(-153.215 -262.104)" fill="#70bc56"/>
            <g id="Group_19420" data-name="Group 19420" transform="translate(68.875 116.515)" opacity="0.6">
              <g id="Group_19419" data-name="Group 19419">
                <g id="Group_19418" data-name="Group 19418" clip-path="url(#clip-path-8)">
                  <path id="Path_15378" data-name="Path 15378" d="M236.022,399.176a.611.611,0,0,0,0,.816.588.588,0,0,0,.809.012.645.645,0,0,0,0-.864.61.61,0,0,0-.842.081" transform="translate(-235.863 -399.009)" fill="#fff"/>
                </g>
              </g>
            </g>
            <g id="Group_19423" data-name="Group 19423" transform="translate(68.793 113.717)" opacity="0.6">
              <g id="Group_19422" data-name="Group 19422">
                <g id="Group_19421" data-name="Group 19421" clip-path="url(#clip-path-9)">
                  <path id="Path_15379" data-name="Path 15379" d="M236.211,397.926l-.628-1.038,12.391-7.455a1.035,1.035,0,0,1,.908.385Z" transform="translate(-235.583 -389.427)" fill="#fff"/>
                </g>
              </g>
            </g>
            <path id="Path_15380" data-name="Path 15380" d="M249.757,392.665c.035.064-.261.28-.449.666s-.195.748-.267.758-.2-.408.04-.872.656-.618.676-.552" transform="translate(-176.251 -277.992)" fill="#263238"/>
            <path id="Path_15381" data-name="Path 15381" d="M256.324,391.829c.051.052-.157.321-.211.714s.052.71-.012.745-.316-.3-.239-.783.426-.734.463-.675" transform="translate(-181.137 -277.405)" fill="#263238"/>
            <path id="Path_15382" data-name="Path 15382" d="M262.493,392.478c-.049.047-.324-.214-.368-.654s.167-.752.225-.715-.014.329.028.689.174.637.115.68" transform="translate(-185.577 -276.899)" fill="#263238"/>
            <path id="Path_15383" data-name="Path 15383" d="M245.083,387.642c.008.073-.331.159-.672.395s-.55.513-.615.479.067-.417.472-.689.816-.252.814-.184" transform="translate(-172.594 -274.415)" fill="#263238"/>
            <g id="Group_19426" data-name="Group 19426" transform="translate(64.027 109.444)" opacity="0.3">
              <g id="Group_19425" data-name="Group 19425">
                <g id="Group_19424" data-name="Group 19424" clip-path="url(#clip-path-10)">
                  <path id="Path_15384" data-name="Path 15384" d="M225.59,374.8l.664,1.2-6.347,3.718-.643-1.058Z" transform="translate(-219.264 -374.795)"/>
                </g>
              </g>
            </g>
            <path id="Path_15385" data-name="Path 15385" d="M239.658,382.43c.016.025-.208.213-.645.381a3.366,3.366,0,0,1-.8.2,3.538,3.538,0,0,1-.486.025.923.923,0,0,1-.285-.035.319.319,0,0,1-.228-.317.4.4,0,0,1,.189-.308.97.97,0,0,1,.261-.111,2.7,2.7,0,0,1,.482-.1,2.642,2.642,0,0,1,.826.034,1.251,1.251,0,0,1,.691.3c-.016.038-.278-.072-.718-.118a3,3,0,0,0-.767.02,2.8,2.8,0,0,0-.437.107c-.157.046-.274.114-.272.2,0,.031,0,.041.057.064a.754.754,0,0,0,.209.025,3.969,3.969,0,0,0,.456-.009,4.154,4.154,0,0,0,.764-.133,5.147,5.147,0,0,1,.7-.211" transform="translate(-167.946 -270.553)" fill="#263238"/>
            <path id="Path_15386" data-name="Path 15386" d="M243.2,377.827c-.016.023-.275-.127-.541-.52a2.429,2.429,0,0,1-.4-1.245.619.619,0,0,1,.216-.57.35.35,0,0,1,.376.019,1,1,0,0,1,.207.2,1.662,1.662,0,0,1,.26.433,1.724,1.724,0,0,1,.123.829c-.052.483-.269.715-.287.7a6.08,6.08,0,0,0,.107-.706,1.726,1.726,0,0,0-.158-.726,1.535,1.535,0,0,0-.234-.364c-.1-.125-.219-.2-.261-.16a.429.429,0,0,0-.1.345,2.482,2.482,0,0,0,.049.444,2.7,2.7,0,0,0,.259.716c.208.388.415.582.387.612" transform="translate(-171.512 -265.811)" fill="#263238"/>
            <path id="Path_15387" data-name="Path 15387" d="M181.191,414.83l-.383,7.7s7.978,2.381,7.847,4.268l-15.011-.019.073-12.076Z" transform="translate(-122.939 -293.608)" fill="#70bc56"/>
            <g id="Group_19429" data-name="Group 19429" transform="translate(52.808 128.19)" opacity="0.6">
              <g id="Group_19428" data-name="Group 19428">
                <g id="Group_19427" data-name="Group 19427" clip-path="url(#clip-path-11)">
                  <path id="Path_15388" data-name="Path 15388" d="M181.286,439.015a.611.611,0,0,0-.432.692.588.588,0,0,0,.682.434.645.645,0,0,0,.454-.735.609.609,0,0,0-.759-.373" transform="translate(-180.843 -438.991)" fill="#fff"/>
                </g>
              </g>
            </g>
            <g id="Group_19432" data-name="Group 19432" transform="translate(50.686 131.915)" opacity="0.6">
              <g id="Group_19431" data-name="Group 19431">
                <g id="Group_19430" data-name="Group 19430" clip-path="url(#clip-path-12)">
                  <path id="Path_15389" data-name="Path 15389" d="M173.6,453.007l-.02-1.26,14.324.159s.708.5.707,1.12Z" transform="translate(-173.578 -451.747)" fill="#fff"/>
                </g>
              </g>
            </g>
            <path id="Path_15390" data-name="Path 15390" d="M195.678,441.089c0,.073-.369.1-.732.331s-.558.535-.625.5c-.067-.015.048-.45.492-.721s.882-.181.865-.114" transform="translate(-137.565 -312.236)" fill="#263238"/>
            <path id="Path_15391" data-name="Path 15391" d="M201.918,443.483c.016.071-.3.191-.555.5s-.329.631-.4.627-.114-.418.207-.792.748-.4.749-.332" transform="translate(-142.244 -313.96)" fill="#263238"/>
            <path id="Path_15392" data-name="Path 15392" d="M207.117,446.994c-.067.015-.163-.352.03-.749s.537-.552.567-.491-.184.272-.338.6-.186.633-.259.639" transform="translate(-146.577 -315.58)" fill="#263238"/>
            <path id="Path_15393" data-name="Path 15393" d="M194.868,434.554c-.032.066-.365-.039-.779-.017s-.737.148-.774.085.276-.319.763-.339.827.214.79.271" transform="translate(-136.862 -307.467)" fill="#263238"/>
            <g id="Group_19435" data-name="Group 19435" transform="translate(50.721 126.677)" opacity="0.3">
              <g id="Group_19434" data-name="Group 19434">
                <g id="Group_19433" data-name="Group 19433" clip-path="url(#clip-path-13)">
                  <path id="Path_15394" data-name="Path 15394" d="M180.966,433.811l-.087,1.533-7.185-.189.008-1.238Z" transform="translate(-173.694 -433.811)"/>
                </g>
              </g>
            </g>
            <path id="Path_15395" data-name="Path 15395" d="M193.322,426.9a1.4,1.4,0,0,1-.749-.014,3.366,3.366,0,0,1-.781-.252,3.545,3.545,0,0,1-.427-.234.923.923,0,0,1-.224-.179.318.318,0,0,1-.028-.389.4.4,0,0,1,.322-.163.967.967,0,0,1,.281.043,2.7,2.7,0,0,1,.464.166,2.647,2.647,0,0,1,.685.463c.343.326.458.6.432.615s-.2-.207-.549-.478a3.006,3.006,0,0,0-.663-.386,2.781,2.781,0,0,0-.429-.139c-.158-.044-.293-.047-.334.023-.015.027-.017.037.015.084a.741.741,0,0,0,.164.131,3.936,3.936,0,0,0,.393.232,4.14,4.14,0,0,0,.721.288,5.215,5.215,0,0,1,.707.189" transform="translate(-135.267 -301.371)" fill="#263238"/>
            <path id="Path_15396" data-name="Path 15396" d="M198.02,424.5a1.2,1.2,0,0,1-.188-.727,2.428,2.428,0,0,1,.311-1.272.619.619,0,0,1,.483-.372.351.351,0,0,1,.31.213,1.008,1.008,0,0,1,.073.276,1.655,1.655,0,0,1-.006.5,1.724,1.724,0,0,1-.331.77c-.3.384-.6.467-.61.442-.024-.037.233-.175.462-.544a1.73,1.73,0,0,0,.247-.7,1.545,1.545,0,0,0-.008-.433c-.021-.159-.079-.289-.139-.273-.074,0-.2.116-.265.242a2.477,2.477,0,0,0-.191.4,2.7,2.7,0,0,0-.156.746c-.027.439.048.714.008.724" transform="translate(-140.062 -298.86)" fill="#263238"/>
            <path id="Path_15397" data-name="Path 15397" d="M119.376,188.641l.841-.356c-.256-.41,1.749,3.5,4.48,3.53a4.068,4.068,0,0,0,4.106-3.684l.2.024,6.137,6.359.809,17.8-.666,2.285-13.18,4.787-4.6-9.152-.4-5.639Z" transform="translate(-82.903 -133.195)" fill="#f5f5f5"/>
            <path id="Path_15398" data-name="Path 15398" d="M101.331,189.194s-7.485,1.7-8.7,4.9c-.539,1.41-.711,24.16-.711,24.16a16.46,16.46,0,0,0-.87,6.377,7.62,7.62,0,0,0,6.179,7.55s.894-6.469,4.477-9.711c3.394-3.072,3.706-2.7,3.706-2.7l-.819-7.418-.847-6.46c-.85-4.615.106-9.62-1.466-14.042Z" transform="translate(-64.457 -133.947)" fill="#70bc56"/>
            <path id="Path_15399" data-name="Path 15399" d="M164.3,192.971l5.105,22.454-5.489-1.247-1.747-13.472-4.5-12.566s.759.1,1.734.251a5.973,5.973,0,0,1,4.9,4.58" transform="translate(-111.628 -133.201)" fill="#70bc56"/>
            <g id="Group_19438" data-name="Group 19438" transform="translate(27.491 84.407)" opacity="0.3">
              <g id="Group_19437" data-name="Group 19437">
                <g id="Group_19436" data-name="Group 19436" clip-path="url(#clip-path-14)">
                  <path id="Path_15400" data-name="Path 15400" d="M94.166,292.805a.807.807,0,0,0,.364.69,1.841,1.841,0,0,0,.761.275,7.948,7.948,0,0,0,3.782-.411,30.253,30.253,0,0,0,4.05-1.76,37.678,37.678,0,0,0,4.374-2.548,22.246,22.246,0,0,1-4.53,1.334c-2.987.684-6.118,1.025-8.823,2.465" transform="translate(-94.144 -289.052)"/>
                </g>
              </g>
            </g>
            <path id="Path_15401" data-name="Path 15401" d="M131.821,265.938l3.34-.721s3.835-2.139,4.7-2.135a23.792,23.792,0,0,1,4.44,1.663.349.349,0,0,1,.159.145.6.6,0,0,1-.207.807l-.053.033.038.079a.992.992,0,0,1,.1.323.4.4,0,0,1-.713.293l.135.168a.46.46,0,0,1,.1.238l.018.169a.459.459,0,0,1-.741.41,4.25,4.25,0,0,0-1.823-.979,12.182,12.182,0,0,0-1.686.19.575.575,0,0,0-.467.448,28.654,28.654,0,0,1,3.42,1,.813.813,0,0,1,.534.532c.066.23-.013.5-.494.463a20.764,20.764,0,0,1-2.96-.6,2.075,2.075,0,0,0-1.5.407c-.745.732-1.1,1.013-1.858.891a6.2,6.2,0,0,1-1.352-.379l-1.21.229Z" transform="translate(-93.328 -186.259)" fill="#ffbe9d"/>
            <path id="Path_15402" data-name="Path 15402" d="M155.889,269.764c.006.015.277-.123.748-.232a4.007,4.007,0,0,1,3.524.868c.368.314.543.563.555.552a.966.966,0,0,0-.121-.174,3.46,3.46,0,0,0-.4-.42,3.884,3.884,0,0,0-3.573-.88,3.5,3.5,0,0,0-.547.187.932.932,0,0,0-.188.1" transform="translate(-110.368 -190.702)" fill="#eb996e"/>
            <path id="Path_15403" data-name="Path 15403" d="M156.814,266.173a3.38,3.38,0,0,1,.774-.269,3.525,3.525,0,0,1,1.94.222,7.578,7.578,0,0,1,1.7,1.02l.48.368a1.265,1.265,0,0,0,.182.129,1.209,1.209,0,0,0-.162-.152c-.108-.094-.266-.228-.466-.388a6.945,6.945,0,0,0-1.705-1.048,3.436,3.436,0,0,0-1.98-.2,2.29,2.29,0,0,0-.574.2,1.391,1.391,0,0,0-.143.083c-.032.02-.048.032-.046.035" transform="translate(-111.022 -188.172)" fill="#eb996e"/>
            <path id="Path_15404" data-name="Path 15404" d="M88.278,204.46l-1.667,17.933h-.471l7.558.15,2.736,5.493s-9.911,4.822-14.147,3.493c-5.021-1.575-3.588-7.176-3.551-9.157.006-.349,2.823-17.007,5.554-19.5,0,0,3.6.239,3.989,1.591" transform="translate(-55.59 -143.629)" fill="#70bc56"/>
            <path id="Path_15405" data-name="Path 15405" d="M108.42,225.461a2.891,2.891,0,0,1-.044.484l-.178,1.311-.649,4.314c-.257,1.684-.48,3.21-.637,4.315l-.188,1.309a2.934,2.934,0,0,1-.087.478,2.877,2.877,0,0,1,.027-.485c.027-.311.074-.761.139-1.316.128-1.11.334-2.639.592-4.325s.508-3.206.694-4.307c.092-.529.168-.968.227-1.3a2.885,2.885,0,0,1,.1-.475" transform="translate(-75.496 -159.624)" fill="#263238"/>
            <path id="Path_15406" data-name="Path 15406" d="M110.78,199.006c.009-.006.061.061.147.188a4.3,4.3,0,0,1,.319.567,6,6,0,0,1,.345.9,7.515,7.515,0,0,1,.228,1.16,10.634,10.634,0,0,1,.01,2.14,4.193,4.193,0,0,1-.13.875,6.037,6.037,0,0,1,.02-.882,13.97,13.97,0,0,0-.055-2.114,8.584,8.584,0,0,0-.211-1.14,7.165,7.165,0,0,0-.307-.9c-.211-.5-.388-.786-.365-.8" transform="translate(-78.43 -140.894)" fill="#263238"/>
            <path id="Path_15407" data-name="Path 15407" d="M91.422,278.79a.278.278,0,0,1,.074.013l.213.054a5.649,5.649,0,0,0,.834.123,11.72,11.72,0,0,0,3.082-.3c.641-.136,1.352-.285,2.1-.458.742-.2,1.52-.482,2.335-.783,1.627-.611,3.4-1.333,5.247-2.115l.231-.1-.039.107-2.729-5.5.063.039c-1.216-.01-2.328-.076-3.32-.108s-1.859-.055-2.574-.05-1.28.034-1.664.074-.587.079-.589.066a.767.767,0,0,1,.148-.036c.1-.02.244-.052.436-.074a14.919,14.919,0,0,1,1.667-.113c.718-.018,1.587-.01,2.579.018s2.108.081,3.315.084h.044l.019.039,2.743,5.489.037.074-.076.032-.231.1c-1.85.783-3.625,1.5-5.258,2.106-.819.3-1.6.578-2.353.774-.761.17-1.462.31-2.111.44a11.238,11.238,0,0,1-3.108.253,3.733,3.733,0,0,1-1.116-.251" transform="translate(-64.726 -190.89)" fill="#263238"/>
            <path id="Path_15408" data-name="Path 15408" d="M98.989,267.192c-.02.018-.188-.174-.529-.387a3.826,3.826,0,0,0-1.467-.515,8.691,8.691,0,0,0-1.578-.049,3.1,3.1,0,0,1-.663,0,2.571,2.571,0,0,1,.655-.113,6.5,6.5,0,0,1,1.609,0,3.425,3.425,0,0,1,1.505.578,1.379,1.379,0,0,1,.467.479" transform="translate(-67.083 -188.383)" fill="#263238"/>
            <g id="Group_19441" data-name="Group 19441" transform="translate(26.809 78.705)" opacity="0.3">
              <g id="Group_19440" data-name="Group 19440">
                <g id="Group_19439" data-name="Group 19439" clip-path="url(#clip-path-15)">
                  <path id="Path_15409" data-name="Path 15409" d="M96.779,269.61a7.328,7.328,0,0,0-3.214.232,2.837,2.837,0,0,0-1.636,1.063c-.115.181-.186.444-.031.592a.492.492,0,0,0,.529.014,4.922,4.922,0,0,0,1-.674,6.678,6.678,0,0,1,1.662-.972,3.741,3.741,0,0,1,1.9-.237" transform="translate(-91.809 -269.528)"/>
                </g>
              </g>
            </g>
            <g id="Group_19444" data-name="Group 19444" transform="translate(25.915 76.646)" opacity="0.3">
              <g id="Group_19443" data-name="Group 19443">
                <g id="Group_19442" data-name="Group 19442" clip-path="url(#clip-path-16)">
                  <path id="Path_15410" data-name="Path 15410" d="M94.279,264.232a2.879,2.879,0,0,0-1.59-1.4,4.281,4.281,0,0,0-3.7.13.445.445,0,0,0-.244.317c-.007.193.207.311.393.362a6.592,6.592,0,0,0,2.377.006,3.831,3.831,0,0,1,2.33.317" transform="translate(-88.748 -262.476)"/>
                </g>
              </g>
            </g>
            <g id="Group_19447" data-name="Group 19447" transform="translate(31.193 66.447)" opacity="0.3">
              <g id="Group_19446" data-name="Group 19446">
                <g id="Group_19445" data-name="Group 19445" clip-path="url(#clip-path-17)">
                  <path id="Path_15411" data-name="Path 15411" d="M106.823,238.716a19.266,19.266,0,0,0,1.637-11.166Z" transform="translate(-106.823 -227.55)"/>
                </g>
              </g>
            </g>
            <path id="Path_15412" data-name="Path 15412" d="M111.972,296.215s2.7,1.794,8.076,1.794,6.6-.372,6.6-.372l5.031-4.569L142.718,312.4s8.759-5.431,8.818-5.256c.105.1-8.172-18.311-9.983-21.5a23.839,23.839,0,0,0-2.054-2.976,7.815,7.815,0,0,0-7.84-2.849,35.885,35.885,0,0,0-4.588,1.283c-4.006,1.466-7.4,2.453-10.3,5.023-3.349,2.969-5.378,8.735-4.8,10.089" transform="translate(-79.205 -197.983)" fill="#263238"/>
            <path id="Path_15413" data-name="Path 15413" d="M166.03,318s-3.97,2.747-3.864,4.95c.089,1.845,2.544,29.006,2.544,29.006l9.775-.166.67-17.785Z" transform="translate(-114.811 -225.14)" fill="#263238"/>
            <path id="Path_15414" data-name="Path 15414" d="M176.031,335.6a.308.308,0,0,1-.045-.065l-.117-.2-.437-.775-1.583-2.864-5.17-9.478-2.055-3.794.074.039a4.967,4.967,0,0,0-3.537,2.245,4.768,4.768,0,0,0-.66,1.708,7.921,7.921,0,0,0-.109,1.585c.027.969.116,1.74.14,2.272.014.265.022.47.022.609a1.319,1.319,0,0,1,0,.211,1.267,1.267,0,0,1-.021-.21c-.012-.149-.027-.351-.046-.606-.04-.529-.143-1.3-.183-2.273a7.883,7.883,0,0,1,.092-1.607,4.857,4.857,0,0,1,.663-1.756,5.082,5.082,0,0,1,3.628-2.325l.05-.006.025.045,2.061,3.791,5.13,9.5,1.539,2.888.412.789.1.207a.311.311,0,0,1,.031.073" transform="translate(-114.9 -225.359)" fill="#455a64"/>
            <path id="Path_15415" data-name="Path 15415" d="M178.022,305.343a5.217,5.217,0,0,0-1.236,4.042,1.745,1.745,0,0,1-.133-.636,4.243,4.243,0,0,1,.9-2.952,1.741,1.741,0,0,1,.466-.453" transform="translate(-125.059 -216.179)" fill="#455a64"/>
            <path id="Path_15416" data-name="Path 15416" d="M173.6,302.777c.026.008-.054.279-.113.728a5.58,5.58,0,0,0,.639,3.4c.217.4.39.62.369.637a2.164,2.164,0,0,1-.464-.582,4.934,4.934,0,0,1-.653-3.475,2.168,2.168,0,0,1,.222-.71" transform="translate(-122.696 -214.363)" fill="#455a64"/>
            <path id="Path_15417" data-name="Path 15417" d="M148.242,241.737c-.022-.019.277-.359.657-.977a8.885,8.885,0,0,0,.583-1.128,8.785,8.785,0,0,0,.7-3.015,8.9,8.9,0,0,0-.027-1.27c-.069-.722-.187-1.159-.159-1.166a1.293,1.293,0,0,1,.1.3,3.108,3.108,0,0,1,.085.364c.026.143.064.305.081.489a7.845,7.845,0,0,1,.06,1.288,8.237,8.237,0,0,1-.712,3.065,7.879,7.879,0,0,1-.621,1.13c-.1.157-.2.286-.288.4a3.17,3.17,0,0,1-.237.289,1.277,1.277,0,0,1-.223.227" transform="translate(-104.953 -165.798)" fill="#263238"/>
            <path id="Path_15418" data-name="Path 15418" d="M179.009,200.661s10.6,18.2,10.835,19.6c.176,1.04-.16,4-1.11,4.388-2.657,1.074-5.728-.174-8.535-2.116l-.421-.291Z" transform="translate(-126.736 -142.066)" fill="#70bc56"/>
            <path id="Path_15419" data-name="Path 15419" d="M17.646,191.518s1.66-.965,2.055,1.724,3.122,22.409,3.122,22.409l16.951-.16s3.581-.136,6.012,7.162c1.7,5.106,3.435,22.48,3.435,22.48L48.9,257.708l-30.649,0s-.947-26.357-1.105-38.077-.495-24.5.5-28.108" transform="translate(-12.008 -135.473)" fill="#455a64"/>
            <path id="Path_15420" data-name="Path 15420" d="M24.546,191.324a.837.837,0,0,0,.092.081,2.469,2.469,0,0,1,.251.257,2.254,2.254,0,0,1,.515,1.271l.627,5.2c.546,4.417,1.306,10.561,2.163,17.5l.009.069h.068l3.537-.074c3.823-.061,7.466-.088,10.776.007.827.026,1.634.059,2.414.121l.581.049c.192.018.379.051.567.076a1.957,1.957,0,0,1,1.012.388,6.681,6.681,0,0,1,1.437,1.572,17.438,17.438,0,0,1,1.037,1.7,31.551,31.551,0,0,1,2.312,5.584,12.237,12.237,0,0,1,.39,1.6,3.621,3.621,0,0,1,.045.426c0,.1,0,.147,0,.147s.007-.049.013-.147a3.047,3.047,0,0,0-.03-.431A11.3,11.3,0,0,0,52,225.11c-.2-.691-.475-1.524-.844-2.474a29.942,29.942,0,0,0-1.431-3.146,17.416,17.416,0,0,0-1.035-1.721,6.786,6.786,0,0,0-1.46-1.608l-.241-.154c-.083-.048-.173-.084-.26-.127a2.758,2.758,0,0,0-.28-.088c-.094-.021-.189-.029-.284-.045-.19-.026-.38-.059-.574-.079l-.584-.051c-.784-.065-1.592-.1-2.42-.128-3.314-.1-6.958-.081-10.783-.019l-3.538.076.077.067L26.131,198.12l-.673-5.193a2.247,2.247,0,0,0-.548-1.283,1.613,1.613,0,0,0-.364-.319" transform="translate(-17.378 -135.455)" fill="#263238"/>
            <path id="Path_15421" data-name="Path 15421" d="M85.9,279.186a.9.9,0,0,1-.111.02c-.073.012-.183.029-.324.061a6.551,6.551,0,0,0-2.894,1.44,7.005,7.005,0,0,0-.865.9l-.386.561c-.033.048-.067.1-.1.145l-.081.159-.166.323-.169.331c-.052.114-.088.237-.133.356-.084.243-.183.486-.259.742a11.34,11.34,0,0,0-.311,1.639c-.028.287-.073.578-.09.876s-.006.6-.009.91c-.022.615.034,1.252.053,1.9.116,2.607.305,5.471.535,8.475.265,3.386.555,6.589.841,9.4l-.068-.061,8.948.076,2.536.033.671.014.173.006a.249.249,0,0,1,.058.006.223.223,0,0,1-.058.006l-.173,0-.671.007-2.536.006-8.948-.021h-.061l-.006-.061c-.3-2.812-.591-6.015-.856-9.4-.23-3-.415-5.871-.523-8.48-.017-.653-.07-1.287-.046-1.909q.007-.466.013-.918c.018-.3.064-.595.094-.885a11.407,11.407,0,0,1,.323-1.656c.079-.259.181-.505.267-.75.047-.121.084-.245.138-.36l.174-.335.17-.327.084-.16c.032-.05.068-.1.1-.147l.4-.566a7.045,7.045,0,0,1,.885-.9,6.07,6.07,0,0,1,1.721-1.045,5.735,5.735,0,0,1,1.221-.36c.143-.027.254-.039.328-.046a.658.658,0,0,1,.113,0" transform="translate(-56.545 -197.66)" fill="#263238"/>
            <path id="Path_15422" data-name="Path 15422" d="M99.715,389.55c-.042,0-.076-2.735-.076-6.108s.034-6.109.076-6.109.076,2.735.076,6.109-.034,6.108-.076,6.108" transform="translate(-70.543 -267.148)" fill="#263238"/>
            <path id="Path_15423" data-name="Path 15423" d="M161.12,237.066l-17.249,1.558a.4.4,0,0,0-.343.277l-3.834,12.313a.4.4,0,0,1-.247.257l-6.624,1.8a.4.4,0,0,0,.223.757l7.128-1.51,16.032-2a.4.4,0,0,0,.323-.248l5-12.669a.4.4,0,0,0-.4-.538" transform="translate(-93.85 -167.839)" fill="#edffd8"/>
            <path id="Path_15424" data-name="Path 15424" d="M160.937,237.058a.323.323,0,0,1,.154.009.406.406,0,0,1,.287.333.624.624,0,0,1-.072.329l-.145.377-.365.944-2.368,6.067-1.662,4.239-.227.579-.115.293a.5.5,0,0,1-.209.279.447.447,0,0,1-.172.062l-.161.021-.321.04-.65.082-2.7.34L140,252.586H140l-3.709.787-1.9.4-.958.2-.481.1a.654.654,0,0,1-.274.022.471.471,0,0,1-.071-.908h.005l6.625-1.8h0a.334.334,0,0,0,.214-.251l.123-.394.244-.783.483-1.547.939-3.009L143,239.772l.208-.665a2.024,2.024,0,0,1,.121-.339.459.459,0,0,1,.321-.212l1.342-.121,2.548-.226,4.542-.4,6.5-.564,1.747-.145.452-.034c.1-.007.154-.007.154-.007s-.051.009-.153.021l-.451.047-1.745.171-6.494.609-4.54.419-2.547.234-1.334.123a.332.332,0,0,0-.232.154,2.107,2.107,0,0,0-.107.309l-.206.666-1.751,5.64-.935,3.01-.481,1.547-.244.784-.123.394a.485.485,0,0,1-.307.348h-.005l-6.624,1.8.005,0a.319.319,0,0,0,.048.615.492.492,0,0,0,.213-.02l.482-.1.959-.2,1.9-.4,3.71-.785h.006l12.214-1.514,2.7-.333.65-.081.321-.039a.689.689,0,0,0,.285-.065.374.374,0,0,0,.161-.221l.116-.293.229-.578,1.678-4.232,2.41-6.051.377-.939.151-.375a.6.6,0,0,0,.077-.313.392.392,0,0,0-.264-.324.654.654,0,0,0-.15-.022" transform="translate(-93.666 -167.831)" fill="#263238"/>
            <path id="Path_15425" data-name="Path 15425" d="M162.973,242.2a.559.559,0,0,1-.028.147l-.108.412c-.1.357-.244.872-.431,1.506-.374,1.269-.918,3.013-1.532,4.935l-1.574,4.921-.477,1.491-.135.4a.558.558,0,0,1-.057.138.547.547,0,0,1,.027-.147l.108-.412c.1-.357.244-.872.431-1.506.374-1.269.918-3.014,1.532-4.936l1.574-4.92.477-1.492.135-.4a.556.556,0,0,1,.057-.138" transform="translate(-112.309 -171.478)" fill="#263238"/>
            <path id="Path_15426" data-name="Path 15426" d="M193.987,259.416a.8.8,0,0,0-.674.317.628.628,0,0,0-.188.674.536.536,0,0,0,.439.28.9.9,0,0,0,.518-.136.76.76,0,0,0,.417-.59.551.551,0,0,0-.512-.544" transform="translate(-136.701 -183.663)" fill="#fff"/>
            <path id="Path_15427" data-name="Path 15427" d="M180.425,218.162a1.9,1.9,0,0,1-.138-.364l-.333-1c-.281-.847-.682-2.012-1.166-3.283s-.961-2.408-1.315-3.227l-.419-.97a1.876,1.876,0,0,1-.139-.363,1.908,1.908,0,0,1,.192.338c.116.222.274.547.464.951.379.809.873,1.942,1.359,3.217s.871,2.449,1.126,3.3c.128.428.225.776.287,1.019a1.879,1.879,0,0,1,.081.38" transform="translate(-125.253 -147.936)" fill="#263238"/>
          </g>
        </g>
        <g id="Group_19451" data-name="Group 19451">
          <g id="Group_19450" data-name="Group 19450" clip-path="url(#clip-path-18)">
            <path id="Path_15428" data-name="Path 15428" d="M126.723,456.148c0,.042-28.37.076-63.359.076S0,456.19,0,456.148s28.364-.076,63.365-.076,63.359.034,63.359.076" transform="translate(0 -322.894)" fill="#263238"/>
          </g>
        </g>
      </g>
    </g>
  </g>
</svg>
