<svg xmlns="http://www.w3.org/2000/svg" xmlns:xlink="http://www.w3.org/1999/xlink" width="161" height="161" viewBox="0 0 161 161">
  <defs>
    <clipPath id="clip-path">
      <rect id="Rectangle_5" data-name="Rectangle 5" width="2.462" height="1.951" fill="none"/>
    </clipPath>
    <clipPath id="clip-path-2">
      <rect id="Rectangle_6" data-name="Rectangle 6" width="72.751" height="62.829" fill="none"/>
    </clipPath>
    <clipPath id="clip-path-3">
      <rect id="Rectangle_7" data-name="Rectangle 7" width="76.373" height="66.535" fill="none"/>
    </clipPath>
    <clipPath id="clip-path-4">
      <rect id="Rectangle_9" data-name="Rectangle 9" width="27.815" height="9.68" fill="#8e6464"/>
    </clipPath>
    <clipPath id="clip-path-5">
      <rect id="Rectangle_10" data-name="Rectangle 10" width="18.883" height="7.663" fill="none"/>
    </clipPath>
    <clipPath id="clip-path-6">
      <rect id="Rectangle_11" data-name="Rectangle 11" width="12.693" height="5.151" fill="none"/>
    </clipPath>
    <clipPath id="clip-path-8">
      <rect id="Rectangle_13" data-name="Rectangle 13" width="2.186" height="3.152" fill="none"/>
    </clipPath>
    <clipPath id="clip-path-9">
      <rect id="Rectangle_14" data-name="Rectangle 14" width="1.965" height="3.071" fill="none"/>
    </clipPath>
    <clipPath id="clip-path-10">
      <rect id="Rectangle_15" data-name="Rectangle 15" width="2.163" height="1.833" fill="none"/>
    </clipPath>
  </defs>
  <g id="Group_19556" data-name="Group 19556" transform="translate(-365 -2011)">
    <g id="Ellipse_3" data-name="Ellipse 3" transform="translate(365 2011)" fill="#f9fff2" stroke="#aceb97" stroke-width="2">
      <circle cx="80.5" cy="80.5" r="80.5" stroke="none"/>
      <circle cx="80.5" cy="80.5" r="79.5" fill="none"/>
    </g>
    <g id="Group_45" data-name="Group 45" transform="translate(365 2039.382)">
      <g id="Group_46" data-name="Group 46" transform="translate(0 0)">
        <g id="Group_43" data-name="Group 43">
          <g id="Group_48" data-name="Group 48" transform="translate(0 0)">
            <path id="Path_25" data-name="Path 25" d="M149.058,1110.28c0,4.7-33.368,8.5-74.529,8.5S0,1114.975,0,1110.28s33.368-8.5,74.529-8.5,74.529,3.806,74.529,8.5" transform="translate(0 -986.164)" fill="#70bc56"/>
            <path id="Path_26" data-name="Path 26" d="M1061.346,598.8a12.6,12.6,0,0,1-5.906-4.028,19.272,19.272,0,0,1-2.29-3.054l1.67-1.015,1.146-1.167c.725,1.245,3.792,4.447,6.468,5.21,2.017.575,4.823-.037,5.763-.213l2.707,3.134c-2.114,1.758-6.933,1.766-9.559,1.133" transform="translate(-942.64 -527.678)" fill="#c97e67"/>
            <path id="Path_27" data-name="Path 27" d="M1017.321,575.462s-3.64-.034-4.524-.874-1.322-2.664-.721-2.177a4.634,4.634,0,0,1,1,1.28s-.888-1.819-.528-1.96c.52-.2,1.356,1.438,1.356,1.438s-1.131-2.258-.577-2.248,1.4,1.685,1.4,1.685-1.041-2.086-.4-2.06,1.1,1.686,1.635,1.523,2.287-.14,2.755.418Z" transform="translate(-905.626 -510.676)" fill="#c97e67"/>
            <path id="Path_28" data-name="Path 28" d="M1058.276,572.772c-.314-.618-2.094-2.226-2.615-2.226s1.245,3.281,1.245,3.281Z" transform="translate(-944.8 -510.677)" fill="#c97e67"/>
            <path id="Path_29" data-name="Path 29" d="M1059.112,584.617l-.085-.03a1.07,1.07,0,0,0-.129-.846l.075-.049a1.146,1.146,0,0,1,.138.926" transform="translate(-947.785 -522.442)" fill="#b2604d"/>
            <path id="Path_30" data-name="Path 30" d="M1024.3,600.578c-.52,0-.674-.231-.682-.243l.076-.048-.038.024.038-.025s.2.285.916.176l.013.089a2.17,2.17,0,0,1-.324.026" transform="translate(-916.208 -537.296)" fill="#b2604d"/>
            <path id="Path_31" data-name="Path 31" d="M1029.87,591.509a.968.968,0,0,1-.958-.562l.085-.03c.01.028.255.687,1.28.452l.02.088a1.911,1.911,0,0,1-.427.052" transform="translate(-920.944 -528.91)" fill="#b2604d"/>
            <path id="Path_32" data-name="Path 32" d="M1038.456,587.258a.829.829,0,0,1-.5-.135.477.477,0,0,1-.2-.3l.089-.011a.387.387,0,0,0,.164.242,1.038,1.038,0,0,0,.789.079l.017.088a1.913,1.913,0,0,1-.365.039" transform="translate(-928.865 -525.233)" fill="#b2604d"/>
            <path id="Path_33" data-name="Path 33" d="M1167.758,647.6l-.1-.043a8.861,8.861,0,0,1,1.526-2.106l.078.077a8.746,8.746,0,0,0-1.5,2.073" transform="translate(-1045.13 -577.725)" fill="#33353b"/>
            <path id="Path_34" data-name="Path 34" d="M1165.3,1144.646s-.065,1.251-.922,1.582-3.32.583-2.425,1.413c.514.476,3,.245,3.7.263s1.35.342,1.883-.113c.587-.5.083-3.082.083-3.082a2.8,2.8,0,0,1-1.156.27,2.231,2.231,0,0,1-1.166-.332" transform="translate(-1039.853 -1024.534)" fill="#33353b"/>
            <path id="Path_35" data-name="Path 35" d="M1136.627,826.347c.156,2.653.467,6.173,1.072,10.535,1.091,7.86,2.415,15.787,3.067,19.588a2.951,2.951,0,0,0,2.691,2.469l.723.049a2.476,2.476,0,0,0,2.606-2.613l-1.139-25.625-.1-3.624s-9.157-4.749-8.924-.779" transform="translate(-1017.352 -738.218)" fill="#44474f"/>
            <path id="Path_36" data-name="Path 36" d="M1241.767,1146.708s-.065,1.251-.922,1.582-3.32.583-2.425,1.413c.514.476,3,.245,3.7.263s1.35.342,1.883-.113c.586-.5.083-3.082.083-3.082a2.8,2.8,0,0,1-1.156.27,2.23,2.23,0,0,1-1.166-.332" transform="translate(-1108.295 -1026.38)" fill="#33353b"/>
            <path id="Path_37" data-name="Path 37" d="M1211.767,784.743s-.321,5.646,1.19,16.534c1.091,7.86,2.415,15.787,3.067,19.588a2.95,2.95,0,0,0,2.69,2.469l.724.049a2.476,2.476,0,0,0,2.606-2.613l-1.139-25.625-.224-8.43Z" transform="translate(-1084.586 -702.397)" fill="#44474f"/>
            <path id="Path_38" data-name="Path 38" d="M1149.31,819.558c-.109.673-4.232.386-9.264-.46s-8.976-2.094-8.867-2.767,4.23-.517,9.262.329,8.978,2.225,8.869,2.9" transform="translate(-1012.478 -730.295)" fill="#33353b"/>
            <path id="Path_39" data-name="Path 39" d="M1150.7,626.385s-.412-3.664-7-4.6c-9.5-1.346-9.81,7.511-12.5,20.669a60.173,60.173,0,0,1,18.158,3.061s2.667-13.441,1.339-19.134" transform="translate(-1012.497 -556.421)" fill="#70bc56"/>
            <path id="Path_40" data-name="Path 40" d="M1173.813,627.523l-4.945.2s-10.134,1.125-12.581.372-2.409-4.916-2.409-4.916a18.713,18.713,0,0,1,7.786-1.836c.435-.012.884,0,1.346.03a15.456,15.456,0,0,1,2.284.357c8.931,2,8.519,5.8,8.519,5.8" transform="translate(-1032.797 -556.136)" fill="#70bc56"/>
            <path id="Path_41" data-name="Path 41" d="M1236.543,573.51l-.279-1.674-.081-.487-.478-2.866-.484,2.72-.291,1.633-.092.517a1.428,1.428,0,0,1-.435.925c-.123.11-1.06.512-.336.957a3.534,3.534,0,0,0,3.528-.631c-.005,0-.962-.553-1.052-1.094" transform="translate(-1104.329 -508.83)" fill="#c97e67"/>
            <path id="Path_42" data-name="Path 42" d="M1135.574,824.692s5.369-.141,17.073,3.03l.034,1.272-16.788.141Z" transform="translate(-1016.414 -738.153)" fill="#44474f"/>
            <path id="Path_43" data-name="Path 43" d="M1291.191,665.039c-.119.627-1.6.9-3.3.6s-2.987-1.043-2.868-1.67,1.6-.9,3.3-.6,2.987,1.043,2.868,1.67" transform="translate(-1150.176 -593.652)" fill="#33353b"/>
            <path id="Path_44" data-name="Path 44" d="M1234.247,552.092a3.645,3.645,0,0,0-.463,1.441c-.091.855,1.358-.853,1.358-.853Z" transform="translate(-1104.314 -494.159)" fill="#33353b"/>
            <path id="Path_45" data-name="Path 45" d="M1229.312,552.084a2.509,2.509,0,1,1,.959,3.742,2.756,2.756,0,0,1-.959-3.742" transform="translate(-1100.014 -492.51)" fill="#c97e67"/>
            <path id="Path_46" data-name="Path 46" d="M1235.8,537.164l-1.1-.483a.869.869,0,0,1-.494-.569c-.116-.439-.336-.716-1.409-1.017a2.341,2.341,0,0,1-1.907-2.215.842.842,0,0,1,1.49-.471c.564.558.544-.373,1.221-.253,1.265.223,1.192,1.23,2.193,1.518,1.314.378,3.326,2.115,1.485,4.05Z" transform="translate(-1101.72 -476.274)" fill="#33353b"/>
            <path id="Path_47" data-name="Path 47" d="M1252.521,575.567a.05.05,0,0,1,.05-.081.541.541,0,0,1,.448.488.051.051,0,0,1-.042.057.055.055,0,0,1-.057-.042.856.856,0,0,0-.372-.406.049.049,0,0,1-.027-.017" transform="translate(-1121.079 -515.097)" fill="#33353b"/>
            <path id="Path_48" data-name="Path 48" d="M1250.092,580.28a.165.165,0,1,1-.013-.267.193.193,0,0,1,.013.267" transform="translate(-1118.64 -519.134)" fill="#33353b"/>
            <path id="Path_49" data-name="Path 49" d="M1236.12,568.536a.036.036,0,0,1-.018-.032.06.06,0,0,1,.039-.058.351.351,0,0,1,.468.211.059.059,0,0,1-.02.067.037.037,0,0,1-.055-.01.524.524,0,0,0-.388-.176.033.033,0,0,1-.025,0" transform="translate(-1106.393 -508.774)" fill="#33353b"/>
            <path id="Path_50" data-name="Path 50" d="M1236.245,573.43c-.022.117-.109.2-.194.183a.194.194,0,0,1-.114-.241c.022-.117.109-.2.194-.183a.194.194,0,0,1,.114.241" transform="translate(-1106.241 -513.04)" fill="#33353b"/>
            <path id="Path_51" data-name="Path 51" d="M1267.861,575.453s-1.329,1.441-2.482,1.208c0,0,1.315-1-.329-2.4a6.348,6.348,0,0,1,2.811,1.19" transform="translate(-1132.303 -514.004)" fill="#33353b"/>
            <path id="Path_52" data-name="Path 52" d="M1268.442,581.621a.483.483,0,1,1,.4-.6.51.51,0,0,1-.4.6" transform="translate(-1134.754 -519.741)" fill="#c97e67"/>
            <path id="Path_53" data-name="Path 53" d="M1231.873,574.263s-.3,1.47-.681,1.646a5.4,5.4,0,0,1-3.1-.953,1.95,1.95,0,0,0,.928,2.361,2.832,2.832,0,0,0,.913.29,1.951,1.951,0,0,0,1.792-.468,5.692,5.692,0,0,0,.255-1.308,1.288,1.288,0,0,1,.6-.876,1.9,1.9,0,0,0-.7-.692" transform="translate(-1099.126 -514.004)" fill="#33353b"/>
            <path id="Path_54" data-name="Path 54" d="M1246.85,532.562a.515.515,0,0,1-.173-.033l.023-.063a.308.308,0,0,0,.418-.14l.062.026a.37.37,0,0,1-.329.209" transform="translate(-1115.858 -476.467)" fill="#33353b"/>
            <path id="Path_55" data-name="Path 55" d="M1236.76,537.748a4.5,4.5,0,0,1-.639-.544,1.333,1.333,0,0,1-.5-1.138c.053-.225.138-.359.261-.411.2-.083.443.065.66.195l.094.056-.017.029-.095-.056c-.21-.126-.449-.269-.629-.193-.113.048-.192.174-.242.388a1.36,1.36,0,0,0,.5,1.107,4.458,4.458,0,0,0,.633.539Z" transform="translate(-1105.944 -479.426)" fill="#fff"/>
            <path id="Path_56" data-name="Path 56" d="M1265.956,540.127a2.785,2.785,0,0,1-1.51-.743,1.815,1.815,0,0,1-.394-.546l.031-.013a2.439,2.439,0,0,0,1.879,1.269Z" transform="translate(-1131.41 -482.284)" fill="#fff"/>
            <path id="Path_57" data-name="Path 57" d="M1233.046,587.717a1.338,1.338,0,0,1-1.078-.612.073.073,0,0,1,.125-.074,1.138,1.138,0,0,0,1.294.49.073.073,0,0,1,.04.14,1.383,1.383,0,0,1-.381.056" transform="translate(-1102.684 -525.4)" fill="#c97e67"/>
            <path id="Path_58" data-name="Path 58" d="M1194.108,882.484c-.006-.047-.624-4.666-1.088-6.321-.46-1.639-2.592-3.063-2.613-3.077l.06-.091c.022.014,2.188,1.461,2.658,3.139.466,1.662,1.085,6.289,1.091,6.336Z" transform="translate(-1065.493 -781.388)" fill="#33353b"/>
            <path id="Path_59" data-name="Path 59" d="M1173.6,672.992c1.751,1.055,4.719,1.958,5.88,1.5,2.162-.852,2.721-3.348,3.362-5.3a2.047,2.047,0,0,1,2.364-1.509,5.112,5.112,0,0,1,2.707.557c.556.31.481.935.352,1.455a18.229,18.229,0,0,1-.986,3.354c-1.416,3.27-2.061,4.693-4.557,6.025-3.063,1.634-8.374.431-11.828-3.062-.364-.368,2.3-3.271,2.707-3.023" transform="translate(-1047.999 -597.621)" fill="#c97e67"/>
            <g id="Group_11" data-name="Group 11" transform="translate(132.233 78.695)" opacity="0.5">
              <g id="Group_10" data-name="Group 10">
                <g id="Group_9" data-name="Group 9" clip-path="url(#clip-path)">
                  <path id="Path_60" data-name="Path 60" d="M1261.019,751.9a1.155,1.155,0,0,1-.415-.072.694.694,0,0,1-.4-.37c-.195-.455.169-1.047.828-1.347a1.5,1.5,0,0,1,1.125-.091.693.693,0,0,1,.4.37c.195.455-.169,1.047-.828,1.347a1.74,1.74,0,0,1-.711.163m.719-1.714a1.5,1.5,0,0,0-.611.142c-.522.238-.846.713-.708,1.037a.469.469,0,0,0,.271.242,1.264,1.264,0,0,0,.941-.085c.522-.238.846-.713.708-1.037a.469.469,0,0,0-.271-.242.916.916,0,0,0-.33-.057" transform="translate(-1260.148 -749.948)" fill="#b2604d"/>
                </g>
              </g>
            </g>
            <path id="Path_61" data-name="Path 61" d="M1127.3,699.491s-4.008-.467-4.884-1.5-1.143-3.092-.538-2.485a5.132,5.132,0,0,1,.953,1.529s-.764-2.11-.351-2.222c.6-.163,1.325,1.745,1.325,1.745s-.981-2.622-.371-2.546,1.347,2.022,1.347,2.022-.9-2.422-.2-2.317,1.014,1.988,1.622,1.871,2.538.115,2.987.785Z" transform="translate(-1003.862 -620.922)" fill="#c97e67"/>
            <path id="Path_62" data-name="Path 62" d="M1134.078,725.931c-.44-.065-.747-.692-.76-.719l.09-.043c0,.006.3.606.684.664Z" transform="translate(-1014.394 -649.075)" fill="#b2604d"/>
            <path id="Path_63" data-name="Path 63" d="M1143.2,721.486a1.755,1.755,0,0,1-.891-.852l.091-.042a1.684,1.684,0,0,0,.833.8Z" transform="translate(-1022.443 -644.979)" fill="#b2604d"/>
            <path id="Path_64" data-name="Path 64" d="M1152.371,716.124c-.475-.03-.836-.772-.851-.8l.09-.043c0,.007.351.721.768.747Z" transform="translate(-1030.686 -640.22)" fill="#b2604d"/>
            <path id="Path_65" data-name="Path 65" d="M1174.451,698.682c-.075-.035-2.159-2.467-2.734-2.53s.565,2.67.565,2.67Z" transform="translate(-1048.619 -623.102)" fill="#c97e67"/>
            <path id="Path_66" data-name="Path 66" d="M706.972,927.06l-2.128,3.96a1.271,1.271,0,0,0,.329,1.6l3.5,2.777-4.362-2.413a.8.8,0,0,0-1,.18l-1.655,1.935.941-2.322a1.168,1.168,0,0,0-.244-1.252l-1.63-1.678,2.091,1.139a.832.832,0,0,0,1.036-.2Z" transform="translate(-627.195 -829.78)" fill="#fff2e2"/>
            <path id="Path_67" data-name="Path 67" d="M820.871,113.949S839.427,146.438,842,139.877c3.136-7.984-20.068-32.971-21.134-25.928" transform="translate(-734.734 -100.885)" fill="#33353b"/>
            <path id="Path_68" data-name="Path 68" d="M847.919,37.75c.2-1.848-.524-4.114-1.767-6.5-2.674-5.139-7.74-10.839-11.08-14.135a21.843,21.843,0,0,0-7.9-5.13l.035-.038c.232-.242,12.831-5.169,21.628-9.255a28.746,28.746,0,0,1,20.31-1.5c7.427,2.212,14.316,4.842,14.36,4.861,10.471,4.535,12.153,14.4,3.193,18.673-17.45,8.326-39.58,15.144-39.58,15.144a3.845,3.845,0,0,0,.261-.4,4.354,4.354,0,0,0,.534-1.683c0-.012,0-.024,0-.036" transform="translate(-740.374 -0.004)" fill="#70bc56"/>
            <path id="Path_69" data-name="Path 69" d="M487.874,227.228s-13.955.233-14.862,1.554c-1.749,2.547,5.282,2.547,5.282,2.547Z" transform="translate(-423.127 -203.384)" fill="#f7ccb1"/>
            <path id="Path_70" data-name="Path 70" d="M571.476,131.5c-4.335,2.284-7.5,3.632-10.485,5.156-7.365,3.758-20.172,13.355-19.464,20.606s9.778,15.385,12.454,13.313-2.9-12.2-1.849-14.529,14.495-2.3,14.931-.488-9.163,9.345-6.013,12.721c0,0,1.769,1.9,7.034-2.417,2.852-2.338,8.616-4.4,13.146-9.356,1.782-1.95,4.436-4.693,5.231-6.29,1.361-2.734-12.61-19.967-14.986-18.716" transform="translate(-484.677 -117.639)" fill="#f7ccb1"/>
            <path id="Path_71" data-name="Path 71" d="M484.454,194.084s-15.934,4.823-20.465,10.633-6.747,10.54-4.158,12.223,12.553-7.9,12.553-7.9Z" transform="translate(-410.594 -173.718)" fill="#f7ccb1"/>
            <path id="Path_72" data-name="Path 72" d="M458.015,159.007c-5.923,1.833-36.706,14.754-37.074,16.926-.711,4.207,10.9.162,10.9.162Z" transform="translate(-376.742 -142.322)" fill="#f7ccb1"/>
            <path id="Path_73" data-name="Path 73" d="M536.792,374.213s-5.618-5.271-11.111-.665,1.6,11.906,8.6,13.926,8.951,3.078,10.142,2.377,14.327-20.761,5.479-27.569c-6.348-4.885-13.5.7-13.114,11.93" transform="translate(-468.767 -322.678)" fill="#70bc56"/>
            <path id="Path_74" data-name="Path 74" d="M723.159,342.531s-7.912,8.708-7.222,12.247,7.64-1.483,15.6-6.74-4.87-10.934-8.38-5.506" transform="translate(-640.773 -304.617)" fill="#f7ccb1"/>
            <path id="Path_75" data-name="Path 75" d="M537.92,294.385a.216.216,0,0,1-.208-.158,7.828,7.828,0,0,1,6.266-9.826.216.216,0,1,1,.112.417,7.4,7.4,0,0,0-5.962,9.294.216.216,0,0,1-.208.274" transform="translate(-481.071 -254.551)" fill="#e2a279"/>
            <path id="Path_76" data-name="Path 76" d="M479.583,261.838a.216.216,0,0,1-.184-.329c.119-.194,2.952-4.766,5.279-5.988a41.536,41.536,0,0,1,6.545-2.376.216.216,0,1,1,.114.416,42.035,42.035,0,0,0-6.459,2.342c-2.223,1.167-5.084,5.785-5.112,5.832a.216.216,0,0,1-.184.1" transform="translate(-429.065 -226.575)" fill="#e2a279"/>
            <path id="Path_77" data-name="Path 77" d="M486.937,470.372l-2.8-4.644a1.534,1.534,0,0,0-1.861-.64l-5.034,1.925,5.187-3.046a.967.967,0,0,0,.426-1.146l-.992-2.908,1.832,2.4a1.409,1.409,0,0,0,1.45.516l2.744-.66-2.469,1.471a1,1,0,0,0-.433,1.2Z" transform="translate(-427.16 -411.654)" fill="#fff"/>
            <g id="Group_14" data-name="Group 14" transform="translate(38.79 62.18)" opacity="0.8">
              <g id="Group_13" data-name="Group 13">
                <g id="Group_12" data-name="Group 12" clip-path="url(#clip-path-2)">
                  <path id="Path_78" data-name="Path 78" d="M430.6,600.709l0,0a1.632,1.632,0,0,1-.483-1.154v-4.2a2.778,2.778,0,0,0-2.833-2.778l-42.3.842a2.951,2.951,0,0,0-2.871,2.6s.618,3.326-.168,4.013c-6.731,5.894-12.289,15.3-12.289,24.952,0,13.076,6.972,22.441,15.745,28.793a102.235,102.235,0,0,0,19.2,1.63c13.724.048,21.756-1.63,21.756-1.63,8.775-6.351,16.049-13.178,16.049-27.333,0-9.653-5.48-19.4-11.807-25.724" transform="translate(-369.66 -592.568)" fill="#fff2e2"/>
                </g>
              </g>
            </g>
            <g id="Group_17" data-name="Group 17" transform="translate(37.235 60.724)" opacity="0.6">
              <g id="Group_16" data-name="Group 16">
                <g id="Group_15" data-name="Group 15" clip-path="url(#clip-path-3)">
                  <path id="Path_79" data-name="Path 79" d="M418.818,587.309l-.005-.005a1.736,1.736,0,0,1-.507-1.222v-4.452a2.929,2.929,0,0,0-2.974-2.941l-44.4.892a3.109,3.109,0,0,0-3.015,2.751s.649,3.522-.176,4.25c-7.067,6.242-12.9,16.2-12.9,26.424a35.4,35.4,0,0,0,10.938,25.736,20.028,20.028,0,0,0,11.873,5.7,127.572,127.572,0,0,0,13.875.778,148.232,148.232,0,0,0,16.549-.813,21.065,21.065,0,0,0,11.443-4.948c6.741-5.8,11.7-12.836,11.7-24.909,0-10.223-5.753-20.542-12.395-27.241" transform="translate(-354.839 -578.687)" fill="#c8fdb6"/>
                </g>
              </g>
            </g>
            <path id="Path_80" data-name="Path 80" d="M584.568,1145.587c0,1.068-7.748,1.933-17.3,1.933s-17.3-.865-17.3-1.933,7.748-1.933,17.3-1.933,17.3.865,17.3,1.933" transform="translate(-492.249 -1023.646)" fill="#33353b"/>
            <path id="Path_81" data-name="Path 81" d="M500.748,626.382c-3.721,0-7.3-.094-10.5-.323l.018-.258c17.865,1.276,47.475-1.648,47.772-1.678l.026.258c-.244.024-20.258,2-37.314,2" transform="translate(-438.802 -558.632)" fill="#33353b"/>
            <path id="Path_82" data-name="Path 82" d="M511.559,649.646c-8.388,0-16.657-.235-21.215-1.007l.043-.255c11.583,1.961,47.253.447,47.612.431l.011.259c-.218.009-13.476.572-26.451.572" transform="translate(-438.89 -580.347)" fill="#33353b"/>
            <path id="Path_83" data-name="Path 83" d="M488.372,611.512v-.259c.416,0,41.711-.062,47.838-1.508l.059.252c-6.156,1.453-47.48,1.515-47.9,1.515" transform="translate(-437.125 -545.762)" fill="#33353b"/>
            <g id="Group_20" data-name="Group 20" transform="translate(44.138 96.71)" opacity="0.7">
              <g id="Group_19" data-name="Group 19" transform="translate(0)">
                <g id="Group_49" data-name="Group 49">
                  <path id="Path_84" data-name="Path 84" d="M431.472,932.38s-4.3-4.6-9.033-1.14.669,9.8,6.273,11.829,7.14,2.994,8.15,2.486,12.81-16.174,5.955-22.206c-4.918-4.328-11.054-.155-11.345,9.032" transform="translate(-420.627 -921.633)" fill="#70bc56"/>
                  <path id="Path_85" data-name="Path 85" d="M578.974,943.6a.234.234,0,0,1-.221-.157A2.742,2.742,0,0,0,576.3,941.5a4.885,4.885,0,0,0-1.763.15.234.234,0,1,1-.139-.447c.037-.011,3.681-1.1,4.8,2.09a.234.234,0,0,1-.221.311" transform="translate(-558.113 -938.979)" fill="#fff2e2"/>
                </g>
              </g>
            </g>
            <path id="Path_86" data-name="Path 86" d="M690.676,920.237s.981-7.908-6.217-9.691-8.972,8.6-6.394,15.678,2.883,9.357,4.2,9.925,26.081-.681,26.378-12.224c.213-8.282-8.811-10.853-17.963-3.688" transform="translate(-605.912 -814.818)" fill="#70bc56"/>
            <path id="Path_87" data-name="Path 87" d="M926.352,995.145a.3.3,0,0,1-.254-.447,3.468,3.468,0,0,0-.1-3.962,6.182,6.182,0,0,0-1.576-1.59.3.3,0,1,1,.321-.5,6.71,6.71,0,0,1,1.747,1.759,4.067,4.067,0,0,1,.115,4.592.3.3,0,0,1-.254.144" transform="translate(-827.298 -884.864)" fill="#fff2e2"/>
            <path id="Path_88" data-name="Path 88" d="M555.091,1019.963s-3.952-.657-5,2.921,4.132,4.686,7.742,3.538,4.76-1.254,5.073-1.9.2-13.115-5.592-13.5c-4.156-.279-5.635,4.2-2.226,8.946" transform="translate(-492.248 -904.916)" fill="#70bc56"/>
            <path id="Path_89" data-name="Path 89" d="M593.461,1025.522a.149.149,0,0,1-.121-.235c.014-.02,1.43-1.981,3.229-.8a.149.149,0,0,1-.163.249,1.743,1.743,0,0,0-1.992-.032,3.1,3.1,0,0,0-.831.758.149.149,0,0,1-.122.063" transform="translate(-531.053 -916.645)" fill="#fff2e2"/>
            <path id="Path_90" data-name="Path 90" d="M570.546,768.3s-2.49-2.9-5.445-.92.157,5.958,3.5,7.327,4.251,2,4.875,1.713,8.172-9.475,4.172-13.3c-2.87-2.747-6.694-.374-7.1,5.185" transform="translate(-504.744 -682.014)" fill="#70bc56"/>
            <path id="Path_91" data-name="Path 91" d="M662.358,775.273a.142.142,0,0,1-.136-.1,1.662,1.662,0,0,0-1.43-1.241,2.977,2.977,0,0,0-1.081.045.142.142,0,0,1-.073-.274c.022-.006,2.258-.575,2.855,1.388a.142.142,0,0,1-.095.177.144.144,0,0,1-.041.006" transform="translate(-590.326 -692.442)" fill="#fff2e2"/>
            <path id="Path_92" data-name="Path 92" d="M776.211,698.072s-3.958-.86-5.192,2.7,3.941,4.937,7.644,3.957,4.87-1.03,5.217-1.668.853-13.236-4.978-13.916c-4.183-.488-5.9,3.962-2.692,8.925" transform="translate(-689.947 -616.799)" fill="#70bc56"/>
            <path id="Path_93" data-name="Path 93" d="M819.588,703.544a.15.15,0,0,1-.118-.243c.015-.019,1.542-1.93,3.3-.651a.15.15,0,1,1-.177.243,1.762,1.762,0,0,0-2.01-.131,3.142,3.142,0,0,0-.877.725.15.15,0,0,1-.118.058" transform="translate(-733.451 -628.525)" fill="#fff2e2"/>
            <path id="Path_94" data-name="Path 94" d="M424.9,865.21a2.482,2.482,0,0,0-.322-3.234c-1.582-1.37-3.358,1.013-3.617,3.124s-.474,2.723-.216,3.034,6.647,3.17,8.2.3c1.115-2.056-.826-3.858-4.045-3.229" transform="translate(-376.489 -771.164)" fill="#70bc56"/>
            <path id="Path_95" data-name="Path 95" d="M489.292,909.3a.083.083,0,0,1-.044-.154.979.979,0,0,0,.482-1.009,1.747,1.747,0,0,0-.193-.6.083.083,0,1,1,.144-.084c.007.012.677,1.193-.345,1.836a.084.084,0,0,1-.044.013" transform="translate(-437.874 -812.194)" fill="#fff2e2"/>
            <path id="Path_96" data-name="Path 96" d="M900.262,822.544l1.721,4.775a1.435,1.435,0,0,0,1.59.928l4.972-.843-5.319,1.843a.9.9,0,0,0-.6.973l.377,2.85-1.24-2.543a1.318,1.318,0,0,0-1.236-.739l-2.639.1,2.535-.9a.94.94,0,0,0,.617-1.019Z" transform="translate(-803.668 -736.232)" fill="#fff2e2"/>
            <path id="Path_97" data-name="Path 97" d="M550.945,761.971l-2.4,4.471a1.435,1.435,0,0,0,.372,1.8l3.95,3.136-4.925-2.725a.9.9,0,0,0-1.126.2l-1.869,2.185,1.063-2.622a1.319,1.319,0,0,0-.276-1.414l-1.84-1.9,2.362,1.286a.94.94,0,0,0,1.17-.222Z" transform="translate(-486.818 -682.015)" fill="#fff2e2"/>
            <path id="Path_98" data-name="Path 98" d="M717.187,701.38l-1.545,2.876a.923.923,0,0,0,.239,1.16l2.541,2.017-3.168-1.753a.582.582,0,0,0-.724.131l-1.2,1.406.684-1.687a.848.848,0,0,0-.178-.909L712.65,703.4l1.519.827a.6.6,0,0,0,.753-.143Z" transform="translate(-637.869 -627.782)" fill="#fff2e2"/>
            <path id="Path_99" data-name="Path 99" d="M479.933,689.109l-1.545,2.876a.923.923,0,0,0,.239,1.16l2.541,2.017L478,693.409a.582.582,0,0,0-.724.131l-1.2,1.406.684-1.686a.848.848,0,0,0-.178-.909l-1.183-1.219,1.519.827a.6.6,0,0,0,.753-.143Z" transform="translate(-425.511 -616.798)" fill="#fff2e2"/>
            <path id="Path_100" data-name="Path 100" d="M444.592,973.16l-1.545,2.876a.923.923,0,0,0,.239,1.16l2.541,2.017-3.168-1.753a.582.582,0,0,0-.724.131l-1.2,1.406.684-1.687a.848.848,0,0,0-.178-.909l-1.183-1.219,1.519.827a.6.6,0,0,0,.753-.143Z" transform="translate(-393.878 -871.043)" fill="#fff2e2"/>
            <path id="Path_101" data-name="Path 101" d="M532.713,1149.235c-7.011,0-13.737-.418-16.039-.617a26.311,26.311,0,0,1-7.585-1.986.216.216,0,1,1,.179-.392,25.844,25.844,0,0,0,7.443,1.949c3.849.332,20.1,1.28,29.281-.152,8.96-1.4,12.926-6.308,12.965-6.357a.216.216,0,1,1,.339.267,14.679,14.679,0,0,1-3.169,2.729,24.889,24.889,0,0,1-10.068,3.787,93.068,93.068,0,0,1-13.345.772" transform="translate(-455.555 -1021.805)" fill="#33353b"/>
            <path id="Path_102" data-name="Path 102" d="M403.481,1078.767a.214.214,0,0,1-.126-.041c-4.192-3.04-8.062-9.834-8.1-9.9a.216.216,0,1,1,.376-.213c.038.068,3.863,6.781,7.978,9.765a.216.216,0,0,1-.127.39" transform="translate(-353.754 -956.38)" fill="#33353b"/>
            <g id="Group_23" data-name="Group 23" transform="translate(10.26 36.396)" opacity="0.6">
              <g id="Group_22" data-name="Group 22">
                <g id="Group_21" data-name="Group 21" clip-path="url(#clip-path-4)">
                  <path id="Path_103" data-name="Path 103" d="M117.34,349.568a5.677,5.677,0,0,0-5.629-2.682c-4.035.384-3.554,3.458-5.475,3.17s-4.611,0-5.187,1.921-3.17.864-3.266,2.5,2.978,2.786,6.532,1.345,5.283,1.119,10.278.656,5.614-1.04,8.571-.752,2.886-1.736,1.541-3.081-6.788-1.217-7.365-3.074" transform="translate(-97.78 -346.853)" fill="#e3f7dc"/>
                </g>
              </g>
            </g>
            <g id="Group_26" data-name="Group 26" transform="translate(98.49 44.429)" opacity="0.4">
              <g id="Group_25" data-name="Group 25">
                <g id="Group_24" data-name="Group 24" clip-path="url(#clip-path-5)">
                  <path id="Path_104" data-name="Path 104" d="M955.481,426.668s-2.21-3.827-6.253-3.2-.09,2.354-5.39,3.2-6.469,2.641-4.043,4.078,6.379-2.605,10.691-.629,10.08.288,4.995-3.449" transform="translate(-938.587 -423.4)" fill="#fff"/>
                </g>
              </g>
            </g>
            <g id="Group_29" data-name="Group 29" transform="translate(123.8 37.291)" opacity="0.4">
              <g id="Group_28" data-name="Group 28">
                <g id="Group_27" data-name="Group 27" clip-path="url(#clip-path-6)">
                  <path id="Path_105" data-name="Path 105" d="M1191.147,357.577s-1.485-2.573-4.2-2.15-.06,1.583-3.623,2.15-4.348,1.775-2.718,2.741,4.287-1.751,7.186-.423,6.775.194,3.357-2.319" transform="translate(-1179.792 -355.38)" fill="#fff"/>
                </g>
              </g>
            </g>
            <g id="Group_32" data-name="Group 32" transform="translate(47.559 8.81)" opacity="0.4">
              <g id="Group_31" data-name="Group 31">
                <g id="Group_30" data-name="Group 30" clip-path="url(#clip-path-6)">
                  <path id="Path_106" data-name="Path 106" d="M464.583,86.157s-1.485-2.573-4.2-2.15-.06,1.583-3.623,2.15-4.348,1.775-2.717,2.741,4.288-1.751,7.186-.423,6.775.194,3.357-2.319" transform="translate(-453.228 -83.96)" fill="#fff"/>
                </g>
              </g>
            </g>
            <path id="Path_107" data-name="Path 107" d="M146.31,588.286s.589,1.68-1.516,2.658-1.281,2.044-.735,2.659c.935,1.052-2.928.645-3.791,2.652-1.5,3.487,2.983,3.656,5.116,2.789s8.632-3.478,8.879-4.218.367-2.625-.81-2.578c-2.107.085-.061-2.09-1.539-2.461s-5.605-1.5-5.605-1.5" transform="translate(-125.281 -526.555)" fill="#33353b"/>
            <path id="Path_108" data-name="Path 108" d="M245.863,611.567a12.6,12.6,0,0,0,5.906-4.028,19.3,19.3,0,0,0,2.29-3.054l-3.341-2.03,1.67,1.015-1.147-1.167c-.725,1.245-3.792,4.447-6.468,5.21-2.017.575-4.823-.037-5.763-.213l-2.707,3.134c2.114,1.758,6.933,1.766,9.559,1.133" transform="translate(-211.508 -539.102)" fill="#c97e67"/>
            <path id="Path_109" data-name="Path 109" d="M208.232,1136.936s.033,1.3.915,1.672,3.44.7,2.484,1.539c-.548.481-3.132.17-3.862.17s-1.415.318-1.957-.17c-.6-.537,0-3.211,0-3.211a2.914,2.914,0,0,0,1.2.313,2.323,2.323,0,0,0,1.223-.313" transform="translate(-183.979 -1017.633)" fill="#33353b"/>
            <path id="Path_110" data-name="Path 110" d="M111.635,1136.933s.033,1.3.915,1.672,3.44.7,2.484,1.539c-.548.481-3.132.17-3.862.17s-1.415.318-1.957-.17c-.6-.537,0-3.211,0-3.211a2.914,2.914,0,0,0,1.2.313,2.323,2.323,0,0,0,1.223-.313" transform="translate(-97.518 -1017.63)" fill="#33353b"/>
            <path id="Path_111" data-name="Path 111" d="M200.628,837.891c-.226,2.5-.612,5.735-1.269,9.682-1.258,7.562-2.743,15.181-3.472,18.834a2.85,2.85,0,0,1-2.662,2.314l-.7.028a2.392,2.392,0,0,1-2.448-2.591l1.768-24.714.237-4.426s8.92-3.26,8.546.872" transform="translate(-170.126 -748.094)" fill="#70bc56"/>
            <path id="Path_112" data-name="Path 112" d="M139.969,818.489c.078,1.041,3.638,2.673,8.26,2.3s8.276-.965,8.2-2.006-3.857-2.137-8.479-1.764-8.057.429-7.979,1.47" transform="translate(-125.28 -731.219)" fill="#33353b"/>
            <path id="Path_113" data-name="Path 113" d="M111.793,832.591l-11.462,30.8a3.166,3.166,0,0,1-2.955,2.249l-.59.01a2.241,2.241,0,0,1-2.205-2.667l5.975-30.529c.078-.352,1.319-.514,1.672-.544,2.924-.243,9.746-.625,9.565.68" transform="translate(-84.622 -744.395)" fill="#70bc56"/>
            <path id="Path_114" data-name="Path 114" d="M145.542,651.312a5.871,5.871,0,0,1,6.6-2.062c2.125.577,4.755.5,4.939,4.518a61,61,0,0,1-.646,14.673,28.31,28.31,0,0,0-16.458-.294c.03-.394.48-10.574,2.644-16.065.622-1.579,2.213.274,2.918-.771" transform="translate(-125.291 -580.878)" fill="#fff2e2"/>
            <path id="Path_115" data-name="Path 115" d="M133.816,651.625l4.965,2.221s11.671,1.295,12.848-.667c1.234-2.058.364-4.9.364-4.9s-4.012-.23-7.049-.335c-.692-.024-1.986.031-2.668.042-6.246.1-8.461,3.638-8.461,3.638" transform="translate(-119.774 -579.949)" fill="#fff2e2"/>
            <path id="Path_116" data-name="Path 116" d="M197.217,886.685l-.161-.038,2.417-10.328a6.256,6.256,0,0,1,2.828-3.492l.082.143a6.088,6.088,0,0,0-2.751,3.393Z" transform="translate(-176.378 -781.239)" fill="#33353b"/>
            <path id="Path_117" data-name="Path 117" d="M132.463,677.123c-.1.555.786,1.714,2.829,2.013s2.788-.378,2.853-1.151c.048-.582-.828-1.55-2.762-1.807-1.992-.265-2.847.549-2.92.945" transform="translate(-118.556 -605.178)" fill="#33353b"/>
            <path id="Path_118" data-name="Path 118" d="M169.419,830.626a37.226,37.226,0,0,1,12.409.314.571.571,0,0,1,.446.611l-.217,2.29-6.42-1.6Z" transform="translate(-151.641 -743.124)" fill="#70bc56"/>
            <path id="Path_119" data-name="Path 119" d="M214.419,591.569a3.709,3.709,0,0,0,3.267,1.109.835.835,0,0,0,.593-1.137c-.414.03-.956-1.043-1.03-1.452l-.09-.5-.044-.249-.143-.795-.128-.714-.525-2.927-.487,3.078-.083.523-.285,1.8a1.613,1.613,0,0,1-1.036,1.256l-.008,0" transform="translate(-191.919 -523.528)" fill="#c97e67"/>
            <path id="Path_120" data-name="Path 120" d="M227.088,618.331a2.006,2.006,0,0,0,1.367.834l-.077-.928a5.988,5.988,0,0,0-1.29.094" transform="translate(-203.259 -553.353)" fill="#33353b"/>
            <path id="Path_121" data-name="Path 121" d="M200.4,588.286a3.316,3.316,0,0,1,.207,1.479c-.036,1.516,1.731,1.694,2.042,1.185.038-.063-.643-2.452-.643-2.452l-.6-.175Z" transform="translate(-179.376 -526.555)" fill="#33353b"/>
            <path id="Path_122" data-name="Path 122" d="M213.422,559.248c-.469-1.84-2.059-3.024-3.55-2.644s-2.321,2.18-1.852,4.021,2.059,3.024,3.55,2.644,2.321-2.18,1.851-4.021" transform="translate(-186.074 -498.135)" fill="#c97e67"/>
            <path id="Path_123" data-name="Path 123" d="M202.919,552.5c-.049.122.813,1.727-2.258,2.946s-2.146-3.12.175-3.8c3.351-.988,4.424,1.161,4.307,2.063s-2.224-1.2-2.224-1.2" transform="translate(-177.855 -493.527)" fill="#33353b"/>
            <path id="Path_124" data-name="Path 124" d="M207.6,584.018A3.291,3.291,0,0,0,207.46,587s-.962-.631-1.057-.933a12.216,12.216,0,0,1-.178-1.462Z" transform="translate(-184.585 -522.735)" fill="#33353b"/>
            <path id="Path_125" data-name="Path 125" d="M209.867,588.784a.685.685,0,0,0,.973-.177.766.766,0,0,0-.405-.952.685.685,0,0,0-.973.177.766.766,0,0,0,.405.952" transform="translate(-187.432 -525.882)" fill="#c97e67"/>
            <path id="Path_126" data-name="Path 126" d="M230.787,587.531a.063.063,0,0,0-.023-.118.686.686,0,0,0-.75.38.064.064,0,0,0,.024.086.07.07,0,0,0,.086-.024,1.086,1.086,0,0,1,.623-.316.063.063,0,0,0,.039-.008" transform="translate(-205.87 -525.763)" fill="#33353b"/>
            <path id="Path_127" data-name="Path 127" d="M234.378,593.576c.033.148.146.248.253.225a.246.246,0,0,0,.135-.31c-.033-.148-.146-.248-.253-.224a.246.246,0,0,0-.135.31" transform="translate(-209.776 -531.009)" fill="#33353b"/>
            <path id="Path_128" data-name="Path 128" d="M251.971,584.392a.063.063,0,0,0,.024-.118.686.686,0,0,0-.838.066.064.064,0,0,0-.01.089.07.07,0,0,0,.089.01,1.085,1.085,0,0,1,.7-.055.063.063,0,0,0,.039.008" transform="translate(-224.78 -522.863)" fill="#33353b"/>
            <path id="Path_129" data-name="Path 129" d="M253.407,590.235a.246.246,0,0,0,.149.3c.108.019.217-.087.243-.236a.246.246,0,0,0-.149-.3c-.108-.019-.217.087-.243.236" transform="translate(-226.811 -528.087)" fill="#33353b"/>
            <g id="Group_35" data-name="Group 35" transform="translate(23.359 60.745)" opacity="0.3">
              <g id="Group_34" data-name="Group 34">
                <g id="Group_33" data-name="Group 33" clip-path="url(#clip-path-8)">
                  <path id="Path_130" data-name="Path 130" d="M222.606,580.159a1.812,1.812,0,0,0,1.008,1.854c.6.171,1.126-.383,1.171-1.237a1.813,1.813,0,0,0-1.008-1.854c-.6-.17-1.126.383-1.171,1.237" transform="translate(-222.603 -578.891)" fill="#fff"/>
                </g>
              </g>
            </g>
            <g id="Group_38" data-name="Group 38" transform="translate(26.178 60.521)" opacity="0.3">
              <g id="Group_37" data-name="Group 37">
                <g id="Group_36" data-name="Group 36" clip-path="url(#clip-path-9)">
                  <path id="Path_131" data-name="Path 131" d="M249.473,578.053a1.915,1.915,0,0,0,1.068,1.756c.54.132.938-.44.888-1.277a1.915,1.915,0,0,0-1.068-1.756c-.54-.132-.938.44-.888,1.277" transform="translate(-249.469 -576.757)" fill="#fff"/>
                </g>
              </g>
            </g>
            <path id="Path_132" data-name="Path 132" d="M221.97,578.828c.011.043.023.085.037.126a1.881,1.881,0,0,0,.636.955,1.089,1.089,0,0,0,.362.18.87.87,0,0,0,.362.025.893.893,0,0,0,.095-.019.925.925,0,0,0,.3-.142,1.361,1.361,0,0,0,.492-.766,2.154,2.154,0,0,0,.071-.439,2.284,2.284,0,0,0-.022-.477,1.837,1.837,0,0,0-.037-.2,1.813,1.813,0,0,0-.886-1.253,1.025,1.025,0,0,0-.16-.06.861.861,0,0,0-.755.137,1.476,1.476,0,0,0-.544,1.011c-.01.064-.015.128-.019.194,0,.039,0,.078,0,.118a2.314,2.314,0,0,0,.021.338,2.369,2.369,0,0,0,.053.269m1.972.785a1.016,1.016,0,0,1-.243.253.76.76,0,0,1-.666.12,1.01,1.01,0,0,1-.371-.2,1.842,1.842,0,0,1-.595-1.006h0c-.015-.064-.028-.129-.039-.2s-.017-.126-.021-.19a2.133,2.133,0,0,1,0-.288,1.922,1.922,0,0,1,.032-.259,1.131,1.131,0,0,1,.031-.138.028.028,0,0,1,0-.008l0-.014a1.549,1.549,0,0,1,.089-.248,1.14,1.14,0,0,1,.36-.458.762.762,0,0,1,.666-.121.787.787,0,0,1,.12.043,1.682,1.682,0,0,1,.855,1.2,1.908,1.908,0,0,1,.036.2,2.289,2.289,0,0,1,.017.432,1.934,1.934,0,0,1-.068.417,1.5,1.5,0,0,1-.2.452l0,0" transform="translate(-198.611 -516.209)" fill="#33353b"/>
            <path id="Path_133" data-name="Path 133" d="M242.225,607.987a.987.987,0,0,1-.571-.183.033.033,0,0,1,.037-.054,1.081,1.081,0,0,0,1.252-.088.033.033,0,1,1,.042.05,1.322,1.322,0,0,1-.761.274" transform="translate(-216.284 -543.892)" fill="#33353b"/>
            <path id="Path_134" data-name="Path 134" d="M241.243,607.469a.033.033,0,0,1-.032-.029.436.436,0,0,1,.1-.293.036.036,0,0,1,.047-.014.03.03,0,0,1,.013.042l-.006.009a.368.368,0,0,0-.087.247.033.033,0,0,1-.028.036h0" transform="translate(-215.898 -543.421)" fill="#33353b"/>
            <path id="Path_135" data-name="Path 135" d="M171.69,593.6a1.9,1.9,0,0,1-.663-1.455,1.4,1.4,0,0,1,1.241-1.428,2.19,2.19,0,0,0,1.865-2.182l.176-.012a2.4,2.4,0,0,1-2,2.365c-.707.182-1.079.572-1.107,1.158a1.968,1.968,0,0,0,.524,1.382Z" transform="translate(-153.081 -526.764)" fill="#33353b"/>
            <path id="Path_136" data-name="Path 136" d="M249.1,576.921c.011.045.024.089.037.132s.029.086.045.128.021.057.032.084l0,.011c.01.023.019.046.03.069a0,0,0,0,1,0,0,2.52,2.52,0,0,1-.164-.676l-.039-.012c.007.045.014.089.023.133s.018.086.029.128m0,0c.011.045.024.089.037.132s.029.086.045.128.021.057.032.084l0,.011c.01.023.019.046.03.069a0,0,0,0,1,0,0,2.52,2.52,0,0,1-.164-.676l-.039-.012c.007.045.014.089.023.133s.018.086.029.128m0,0c.011.045.024.089.037.132s.029.086.045.128.021.057.032.084l0,.011c.01.023.019.046.03.069a0,0,0,0,1,0,0,2.52,2.52,0,0,1-.164-.676l-.039-.012c.007.045.014.089.023.133s.018.086.029.128m0,0c.011.045.024.089.037.132s.029.086.045.128.021.057.032.084l0,.011c.01.023.019.046.03.069a0,0,0,0,1,0,0,2.52,2.52,0,0,1-.164-.676l-.039-.012c.007.045.014.089.023.133s.018.086.029.128m0,0c.011.045.024.089.037.132s.029.086.045.128.021.057.032.084l0,.011c.01.023.019.046.03.069a0,0,0,0,1,0,0,2.52,2.52,0,0,1-.164-.676l-.039-.012c.007.045.014.089.023.133s.018.086.029.128m0,0c.011.045.024.089.037.132s.029.086.045.128.021.057.032.084l0,.011c.01.023.019.046.03.069a0,0,0,0,1,0,0,2.52,2.52,0,0,1-.164-.676l-.039-.012c.007.045.014.089.023.133s.018.086.029.128m0,0c.011.045.024.089.037.132s.029.086.045.128.021.057.032.084l0,.011c.01.023.019.046.03.069a0,0,0,0,1,0,0,2.52,2.52,0,0,1-.164-.676l-.039-.012c.007.045.014.089.023.133s.018.086.029.128m0,0c.011.045.024.089.037.132s.029.086.045.128.021.057.032.084l0,.011c.01.023.019.046.03.069a0,0,0,0,1,0,0,2.52,2.52,0,0,1-.164-.676l-.039-.012c.007.045.014.089.023.133s.018.086.029.128m-.049.145a2.221,2.221,0,0,0,.356.775h0a1.094,1.094,0,0,0,.559.422l.039.01h0a.67.67,0,0,0,.315,0,.7.7,0,0,0,.247-.12,1.588,1.588,0,0,0,.514-1.24,1.937,1.937,0,0,0-1-1.927l-.037-.009h0a.692.692,0,0,0-.145-.019.653.653,0,0,0-.2.027.746.746,0,0,0-.227.113,1.587,1.587,0,0,0-.513,1.239c0,.036,0,.072,0,.107,0,.066,0,.133.011.2a2.481,2.481,0,0,0,.071.422m.2.281a2.52,2.52,0,0,1-.164-.676c-.007-.07-.011-.14-.013-.21,0-.041,0-.081,0-.122a2.014,2.014,0,0,1,.136-.7,1.072,1.072,0,0,1,.32-.448l.015-.012a.61.61,0,0,1,.211-.1.545.545,0,0,1,.2-.013.621.621,0,0,1,.1.02,1.834,1.834,0,0,1,.922,1.823v.014s0,0,0,0,0,0,0,0a1.472,1.472,0,0,1-.471,1.135.569.569,0,0,1-.458.108.424.424,0,0,1-.056-.013.311.311,0,0,1-.047-.016.035.035,0,0,1-.014-.005h0s0,0,0,0a.918.918,0,0,1-.349-.248,1.75,1.75,0,0,1-.321-.516.243.243,0,0,0-.012-.028m-.151-.427c.011.045.024.089.037.132s.029.086.045.128.021.057.032.084l0,.011c.01.023.019.046.03.069a0,0,0,0,1,0,0,2.52,2.52,0,0,1-.164-.676l-.039-.012c.007.045.014.089.023.133s.018.086.029.128m0,0c.011.045.024.089.037.132s.029.086.045.128.021.057.032.084l0,.011c.01.023.019.046.03.069a0,0,0,0,1,0,0,2.52,2.52,0,0,1-.164-.676l-.039-.012c.007.045.014.089.023.133s.018.086.029.128m0,0c.011.045.024.089.037.132s.029.086.045.128.021.057.032.084l0,.011c.01.023.019.046.03.069a0,0,0,0,1,0,0,2.52,2.52,0,0,1-.164-.676l-.039-.012c.007.045.014.089.023.133s.018.086.029.128m0,0c.011.045.024.089.037.132s.029.086.045.128.021.057.032.084l0,.011c.01.023.019.046.03.069a0,0,0,0,1,0,0,2.52,2.52,0,0,1-.164-.676l-.039-.012c.007.045.014.089.023.133s.018.086.029.128m0,0c.011.045.024.089.037.132s.029.086.045.128.021.057.032.084l0,.011c.01.023.019.046.03.069a0,0,0,0,1,0,0,2.52,2.52,0,0,1-.164-.676l-.039-.012c.007.045.014.089.023.133s.018.086.029.128m0,0c.011.045.024.089.037.132s.029.086.045.128.021.057.032.084l0,.011c.01.023.019.046.03.069a0,0,0,0,1,0,0,2.52,2.52,0,0,1-.164-.676l-.039-.012c.007.045.014.089.023.133s.018.086.029.128m0,0c.011.045.024.089.037.132s.029.086.045.128.021.057.032.084l0,.011c.01.023.019.046.03.069a0,0,0,0,1,0,0,2.52,2.52,0,0,1-.164-.676l-.039-.012c.007.045.014.089.023.133s.018.086.029.128" transform="translate(-222.843 -514.626)" fill="#33353b"/>
            <path id="Path_137" data-name="Path 137" d="M242.935,589.289a.1.1,0,0,0,.015-.185,1.071,1.071,0,0,0-.88.08.1.1,0,0,0,.09.175.881.881,0,0,1,.711-.075.1.1,0,0,0,.064.005" transform="translate(-216.621 -527.235)" fill="#33353b"/>
            <path id="Path_138" data-name="Path 138" d="M152.92,688.619c-1.672.779-4.42,1.3-5.418.782-1.858-.971-2.12-3.264-2.508-5.071a1.846,1.846,0,0,0-1.975-1.58,4.61,4.61,0,0,0-2.481.24c-.528.225-.521.793-.455,1.271a16.441,16.441,0,0,0,.563,3.1c.957,3.069,1.4,4.407,3.51,5.841,2.591,1.759,7.47,1.189,10.9-1.614.362-.3-1.746-3.154-2.138-2.971" transform="translate(-125.355 -611.046)" fill="#c97e67"/>
            <g id="Group_41" data-name="Group 41" transform="translate(19.022 79.761)" opacity="0.5">
              <g id="Group_40" data-name="Group 40">
                <g id="Group_39" data-name="Group 39" clip-path="url(#clip-path-10)">
                  <path id="Path_139" data-name="Path 139" d="M182.717,761.938a1.505,1.505,0,0,1-.749-.221c-.562-.332-.832-.9-.613-1.287a.625.625,0,0,1,.4-.293,1.355,1.355,0,0,1,1,.189c.562.332.832.9.614,1.287a.626.626,0,0,1-.4.293.968.968,0,0,1-.252.032m-.711-1.619a.764.764,0,0,0-.2.025.423.423,0,0,0-.266.191c-.155.277.09.734.535,1a1.14,1.14,0,0,0,.836.167.423.423,0,0,0,.266-.191c.156-.277-.09-.734-.535-1a1.289,1.289,0,0,0-.638-.191" transform="translate(-181.279 -760.105)" fill="#b2604d"/>
                </g>
              </g>
            </g>
            <path id="Path_140" data-name="Path 140" d="M266.335,726.633s3.64-.034,4.524-.874,1.322-2.664.721-2.177a4.633,4.633,0,0,0-1,1.28s.888-1.819.528-1.96c-.52-.2-1.356,1.438-1.356,1.438s1.131-2.258.577-2.248-1.4,1.685-1.4,1.685,1.041-2.086.4-2.06-1.1,1.686-1.634,1.523-2.287-.14-2.755.418Z" transform="translate(-237.133 -645.984)" fill="#c97e67"/>
            <path id="Path_141" data-name="Path 141" d="M311.914,752.084l0-.09c.354-.014.674-.525.677-.53l.077.047c-.014.023-.349.556-.75.572" transform="translate(-279.18 -672.61)" fill="#b2604d"/>
            <path id="Path_142" data-name="Path 142" d="M302.9,747.223l-.021-.087a1.519,1.519,0,0,0,.824-.637l.077.046a1.583,1.583,0,0,1-.88.679" transform="translate(-271.095 -668.165)" fill="#b2604d"/>
            <path id="Path_143" data-name="Path 143" d="M295.723,741.535H295.7l0-.09c.373.018.756-.591.76-.6l.077.047c-.016.026-.4.64-.822.64" transform="translate(-264.675 -663.108)" fill="#b2604d"/>
            <path id="Path_144" data-name="Path 144" d="M260.555,723.724c.071-.024,2.173-2.006,2.694-2.007s-.762,2.34-.762,2.34Z" transform="translate(-233.214 -645.985)" fill="#c97e67"/>
            <path id="Path_145" data-name="Path 145" d="M382.275,588.226s3.64-.034,4.524-.874,1.322-2.664.721-2.177a4.633,4.633,0,0,0-1,1.28s.888-1.819.528-1.96c-.52-.2-1.356,1.438-1.356,1.438s1.131-2.258.577-2.249-1.4,1.685-1.4,1.685,1.041-2.086.4-2.06-1.1,1.686-1.635,1.523-2.287-.14-2.755.418Z" transform="translate(-340.907 -522.101)" fill="#c97e67"/>
            <path id="Path_146" data-name="Path 146" d="M377.251,585.536c.314-.618,2.094-2.226,2.615-2.226s-1.245,3.28-1.245,3.28Z" transform="translate(-337.665 -522.101)" fill="#c97e67"/>
            <path id="Path_147" data-name="Path 147" d="M397.3,597.382a1.144,1.144,0,0,1,.138-.926l.075.049a1.073,1.073,0,0,0-.128.846Z" transform="translate(-355.561 -533.868)" fill="#b2604d"/>
            <path id="Path_148" data-name="Path 148" d="M425.775,613.344a2.185,2.185,0,0,1-.324-.026l.013-.089c.725.11.914-.173.916-.176l.076.048c-.007.012-.162.243-.682.243" transform="translate(-380.807 -548.723)" fill="#b2604d"/>
            <path id="Path_149" data-name="Path 149" d="M416.969,604.273a1.905,1.905,0,0,1-.427-.052l.02-.088c1.027.236,1.277-.445,1.28-.452l.085.03a.969.969,0,0,1-.958.562" transform="translate(-372.833 -540.336)" fill="#b2604d"/>
            <path id="Path_150" data-name="Path 150" d="M411.163,600.023a1.92,1.92,0,0,1-.365-.039l.017-.088a1.037,1.037,0,0,0,.789-.079.387.387,0,0,0,.164-.242l.089.011a.476.476,0,0,1-.2.3.829.829,0,0,1-.5.135" transform="translate(-367.691 -536.659)" fill="#b2604d"/>
            <path id="Path_151" data-name="Path 151" d="M1246.11,989.86a.054.054,0,0,1-.045-.023l-1.674-2.406a.055.055,0,1,1,.09-.062l1.674,2.406a.054.054,0,0,1-.014.076.054.054,0,0,1-.031.01" transform="translate(-1113.804 -883.738)" fill="#33353b"/>
            <path id="Path_152" data-name="Path 152" d="M1257.749,990.349a.055.055,0,0,1-.045-.023l-2.071-2.9a.055.055,0,1,1,.089-.064l2.071,2.9a.055.055,0,0,1-.044.087" transform="translate(-1123.865 -883.738)" fill="#33353b"/>
            <path id="Path_153" data-name="Path 153" d="M1247.178,993.02a.055.055,0,0,1-.033-.1,24.128,24.128,0,0,1,2.219-1.564.055.055,0,0,1,.01.109c-.121.048-1.357.947-2.164,1.544a.054.054,0,0,1-.032.011" transform="translate(-1116.257 -887.33)" fill="#33353b"/>
            <path id="Path_154" data-name="Path 154" d="M1247.178,1000.694a.055.055,0,0,1-.035-.1c2.333-1.9,2.411-1.844,2.453-1.816a.055.055,0,0,1-.036.1c-.166.056-1.522,1.129-2.348,1.8a.054.054,0,0,1-.034.012" transform="translate(-1116.257 -893.968)" fill="#33353b"/>
            <path id="Path_155" data-name="Path 155" d="M303.476,1074.972s-3.328-3.426-2.183-5.377,3.078,4.191,3.078,4.191-1-7.264,1.074-7.39,0,7.39,0,7.39.769-1.752,1.521-1.861.537,1.486-.805,3.047Z" transform="translate(-269.463 -954.494)" fill="#ddf8c9"/>
            <path id="Path_156" data-name="Path 156" d="M302.644,1064.193a15.306,15.306,0,0,1-1.741-2.24c-1.063-1.7-1.316-3.046-.753-4.006.21-.358.464-.524.751-.491.583.066,1.239.956,2.005,2.719.229.528.433,1.056.593,1.494-.184-1.906-.4-5.7.646-6.969a1.116,1.116,0,0,1,.812-.441.851.851,0,0,1,.749.327c.938,1.158.095,5.28-.369,7.209.345-.564.835-1.192,1.334-1.264a.487.487,0,0,1,.53.248c.306.558-.109,1.985-1.333,3.409l-.185-.16c1.2-1.4,1.531-2.718,1.3-3.131a.244.244,0,0,0-.281-.123c-.644.093-1.4,1.5-1.63,2.039l-.23-.082c0-.017.461-1.676.766-3.491.4-2.374.366-3.93-.1-4.5a.61.61,0,0,0-.544-.236.87.87,0,0,0-.637.352c-1.316,1.606-.475,7.828-.467,7.891l-.238.053c-.434-1.381-1.777-4.989-2.756-5.1-.186-.021-.353.1-.512.371-1.237,2.107,2.421,5.914,2.458,5.952Z" transform="translate(-268.393 -943.63)" fill="#33353b"/>
            <path id="Path_157" data-name="Path 157" d="M373.019,1175.2s-2.454-2.527-1.61-3.966,2.27,3.091,2.27,3.091-.739-5.357.792-5.45,0,5.45,0,5.45.567-1.292,1.122-1.372.4,1.1-.594,2.247Z" transform="translate(-332.278 -1046.219)" fill="#ddf8c9"/>
            <path id="Path_158" data-name="Path 158" d="M372.406,1167.249a11.261,11.261,0,0,1-1.284-1.652c-.784-1.252-.971-2.247-.555-2.955.155-.264.341-.385.554-.362.43.049.914.7,1.479,2.006.169.39.319.779.437,1.1-.135-1.405-.292-4.2.476-5.14a.822.822,0,0,1,.6-.325.627.627,0,0,1,.553.241c.692.854.07,3.894-.272,5.317.255-.416.615-.879.984-.932a.359.359,0,0,1,.391.183c.226.411-.08,1.464-.983,2.514l-.137-.118c.888-1.032,1.129-2,.962-2.309a.181.181,0,0,0-.207-.091c-.475.068-1.029,1.109-1.2,1.5l-.17-.06c0-.012.34-1.236.565-2.575.294-1.75.27-2.9-.071-3.318a.448.448,0,0,0-.4-.174.641.641,0,0,0-.47.26c-.971,1.184-.351,5.773-.344,5.82l-.175.04c-.32-1.019-1.31-3.68-2.033-3.762-.137-.016-.261.074-.378.274-.913,1.555,1.786,4.361,1.813,4.39Z" transform="translate(-331.489 -1038.207)" fill="#33353b"/>
            <path id="Path_159" data-name="Path 159" d="M1059.176,1097.645s-2.454-2.527-1.61-3.966,2.27,3.091,2.27,3.091-.739-5.357.792-5.45,0,5.45,0,5.45.567-1.293,1.122-1.372.4,1.1-.594,2.247Z" transform="translate(-946.433 -976.803)" fill="#ddf8c9"/>
            <path id="Path_160" data-name="Path 160" d="M1058.562,1089.7a11.274,11.274,0,0,1-1.284-1.652c-.784-1.252-.971-2.247-.555-2.955.155-.264.342-.385.554-.362.43.049.913.7,1.479,2.006.169.389.319.779.437,1.1-.135-1.406-.292-4.2.476-5.14a.822.822,0,0,1,.6-.325.627.627,0,0,1,.553.241c.692.854.07,3.894-.272,5.317.255-.416.615-.879.984-.932a.358.358,0,0,1,.391.183c.226.411-.08,1.464-.983,2.514l-.137-.118c.888-1.033,1.129-2,.962-2.309a.18.18,0,0,0-.207-.091c-.475.069-1.029,1.109-1.2,1.5l-.17-.06c0-.012.34-1.236.565-2.575.294-1.751.27-2.9-.071-3.318a.45.45,0,0,0-.4-.174.641.641,0,0,0-.47.26c-.97,1.184-.351,5.773-.344,5.82l-.175.039c-.321-1.018-1.31-3.68-2.032-3.762-.139-.016-.261.074-.378.274-.912,1.554,1.786,4.361,1.813,4.39Z" transform="translate(-945.644 -968.79)" fill="#33353b"/>
            <path id="Path_161" data-name="Path 161" d="M874.288,1162.626s-3.23-3.325-2.119-5.219,2.987,4.068,2.987,4.068-.972-7.049,1.042-7.172,0,7.172,0,7.172.747-1.7,1.476-1.806.521,1.442-.781,2.957Z" transform="translate(-780.441 -1033.177)" fill="#a1de8c"/>
            <path id="Path_162" data-name="Path 162" d="M873.48,1152.164a14.837,14.837,0,0,1-1.69-2.174c-1.032-1.648-1.278-2.956-.731-3.888.2-.348.449-.508.729-.476.948.107,1.986,2.6,2.522,4.08-.056-.594-.116-1.375-.137-2.2-.062-2.332.2-3.866.763-4.559a1.083,1.083,0,0,1,.788-.428.825.825,0,0,1,.727.317c.91,1.123.092,5.124-.358,7,.335-.548.81-1.157,1.3-1.226a.471.471,0,0,1,.515.24c.3.541-.106,1.927-1.294,3.308l-.18-.155c1.168-1.359,1.486-2.638,1.266-3.039a.238.238,0,0,0-.273-.12c-.625.09-1.354,1.459-1.583,1.979l-.223-.079c0-.016.447-1.627.743-3.388.388-2.3.355-3.814-.093-4.367a.591.591,0,0,0-.528-.229.843.843,0,0,0-.618.342c-1.277,1.558-.461,7.6-.453,7.658l-.231.052c-.422-1.34-1.724-4.842-2.675-4.95-.18-.02-.343.1-.5.361-1.2,2.046,2.35,5.739,2.386,5.776Z" transform="translate(-779.402 -1022.632)" fill="#33353b"/>
            <path id="Path_163" data-name="Path 163" d="M1340.8,1123.6s-2.166-2.23-1.421-3.5,2,2.728,2,2.728-.652-4.728.7-4.81,0,4.81,0,4.81.5-1.141.99-1.211.349.967-.524,1.983Z" transform="translate(-1198.697 -1000.698)" fill="#ddf8c9"/>
            <path id="Path_164" data-name="Path 164" d="M1340.263,1116.581a9.961,9.961,0,0,1-1.133-1.458c-.692-1.105-.857-1.982-.49-2.607.137-.233.3-.341.489-.319.379.043.806.622,1.305,1.77.149.344.282.687.386.972-.12-1.24-.257-3.708.42-4.536a.726.726,0,0,1,.528-.287.553.553,0,0,1,.488.213c.611.753.062,3.437-.24,4.692.225-.367.543-.776.868-.823a.317.317,0,0,1,.345.161c.2.363-.071,1.292-.868,2.219l-.121-.1c.783-.911,1-1.769.849-2.038a.159.159,0,0,0-.183-.08c-.419.06-.908.978-1.061,1.327l-.15-.053c0-.011.3-1.091.5-2.272.26-1.545.238-2.558-.062-2.929a.4.4,0,0,0-.354-.154.566.566,0,0,0-.415.229c-.856,1.045-.309,5.095-.3,5.136l-.155.035c-.283-.9-1.156-3.247-1.794-3.319-.12-.014-.23.065-.333.242-.805,1.372,1.576,3.849,1.6,3.874Z" transform="translate(-1198.001 -993.626)" fill="#33353b"/>
            <path id="Path_165" data-name="Path 165" d="M25.844,1121.571s-1.907-1.964-1.251-3.082,1.764,2.4,1.764,2.4-.574-4.163.615-4.235,0,4.235,0,4.235.441-1,.872-1.066.308.852-.461,1.746Z" transform="translate(-21.889 -999.481)" fill="#ddf8c9"/>
            <path id="Path_166" data-name="Path 166" d="M25.366,1115.393a8.761,8.761,0,0,1-1-1.284c-.609-.973-.754-1.746-.431-2.3.121-.205.265-.3.431-.281.334.038.71.548,1.149,1.559.132.3.248.605.34.856-.105-1.092-.227-3.266.37-3.994a.639.639,0,0,1,.465-.253.487.487,0,0,1,.429.187c.538.663.054,3.026-.211,4.132.2-.323.478-.683.765-.724a.279.279,0,0,1,.3.142c.175.32-.063,1.138-.764,1.954l-.106-.091c.69-.8.878-1.558.748-1.795a.14.14,0,0,0-.161-.071c-.369.053-.8.862-.934,1.169l-.132-.047c0-.01.264-.96.439-2,.229-1.36.21-2.252-.055-2.579a.351.351,0,0,0-.312-.135.5.5,0,0,0-.365.2c-.754.92-.272,4.486-.267,4.522l-.136.031c-.249-.792-1.018-2.86-1.579-2.923-.106-.012-.2.058-.294.213-.709,1.208,1.388,3.389,1.409,3.411Z" transform="translate(-21.276 -993.254)" fill="#33353b"/>
          </g>
        </g>
      </g>
    </g>
  </g>
</svg>
