<svg id="twitter" xmlns="http://www.w3.org/2000/svg" width="21.358" height="17.353" viewBox="0 0 21.358 17.353">
  <g id="Group_933" data-name="Group 933">
    <path id="Path_432" data-name="Path 432" d="M21.358,50.054a9.128,9.128,0,0,1-2.523.691,4.354,4.354,0,0,0,1.926-2.42,8.75,8.75,0,0,1-2.777,1.06,4.378,4.378,0,0,0-7.574,2.994,4.509,4.509,0,0,0,.1,1A12.394,12.394,0,0,1,1.487,48.8,4.38,4.38,0,0,0,2.833,54.65a4.324,4.324,0,0,1-1.978-.539v.048a4.4,4.4,0,0,0,3.508,4.3,4.37,4.37,0,0,1-1.148.144,3.872,3.872,0,0,1-.829-.075,4.42,4.42,0,0,0,4.091,3.05,8.8,8.8,0,0,1-5.429,1.867A8.2,8.2,0,0,1,0,63.388a12.327,12.327,0,0,0,6.717,1.965,12.376,12.376,0,0,0,12.462-12.46c0-.194-.007-.38-.016-.566A8.735,8.735,0,0,0,21.358,50.054Z" transform="translate(0 -48)" fill="#fff"/>
  </g>
</svg>
